<svg xmlns="http://www.w3.org/2000/svg" xmlns:xlink="http://www.w3.org/1999/xlink" xmlns:lucid="lucid" width="1072" height="494"><g transform="translate(-1106 -990)" lucid:page-tab-id="0_0"><path d="M-1000 0h4000v3000h-4000z" fill="#fff"/><path d="M1842.28 1027.75a6 6 0 0 1 6-6h194.77a6 6 0 0 1 6 6v281.33a6 6 0 0 1-6 6h-194.77a6 6 0 0 1-6-6z" fill="#ffe7e7"/><path d="M1869.92 1021.75h21.64m10.82 0h21.64m10.83 0h21.64m10.8 0h21.65m10.82 0h21.64m10.83 0h10.82l.94.07.9.22.87.36.8.5.72.6.6.72.5.8.35.88.22.9.08.95v10.42m0 10.42v20.83m0 10.42v20.84m0 10.4v20.85m0 10.42v20.84m0 10.43v20.84m0 10.42v20.82m0 10.42v20.84m0 10.42v20.84m0 10.42v10.42l-.08.94-.22.92-.36.87-.5.8-.6.73-.72.6-.8.5-.88.36-.9.2-.95.08h-10.82m-10.82 0h-21.63m-10.82 0h-21.64m-10.8 0h-21.65m-10.82 0h-21.65m-10.82 0h-21.64m-10.82 0h-10.82l-.94-.07-.9-.2-.88-.37-.8-.5-.72-.6-.6-.72-.5-.8-.36-.86-.22-.92-.08-.94v-10.42m0-10.42v-20.84m0-10.42v-20.84m0-10.42v-20.83m0-10.43v-20.84m0-10.42v-20.83m0-10.42v-20.84m0-10.4v-20.85m0-10.42v-20.84m0-10.43v-10.42l.08-.94.22-.9.36-.87.5-.8.6-.72.72-.6.8-.5.87-.36.9-.22.95-.07h10.82" stroke="#282c33" stroke-width="2" fill="none"/><path d="M1867.28 1231.4a6 6 0 0 1 6-6h144.77a6 6 0 0 1 6 6v65.33a6 6 0 0 1-6 6h-144.77a6 6 0 0 1-6-6z" stroke="#282c33" stroke-width="2" fill="#fbaeae"/><use xlink:href="#a" transform="matrix(1,0,0,1,1879.2839307627949,1237.393353021104) translate(32.05555555555556 21.15277777777778)"/><use xlink:href="#b" transform="matrix(1,0,0,1,1879.2839307627949,1237.393353021104) translate(5.481481481481488 47.81944444444444)"/><use xlink:href="#c" transform="matrix(1,0,0,1,1879.2839307627949,1237.393353021104) translate(75.79012345679013 47.81944444444444)"/><path d="M1861.95 1059.92a6 6 0 0 1 6-6h155.43a6 6 0 0 1 6 6v93.53a6 6 0 0 1-6 6h-155.43a6 6 0 0 1-6-6z" stroke="#282c33" stroke-width="2" fill="#fcc7c7"/><path d="M1946.14 1208h-.95v-4.9h.94zm0-26.25h-.95v-4.92h.94z" stroke="#3a414a" stroke-width=".05" fill="#3a414a"/><path d="M1950.3 1176.33h-9.27l4.63-14.27z" fill="#3a414a"/><path d="M1950.95 1176.8h-10.57l5.28-16.27zm-9.27-.95h7.97l-4-12.25z" stroke="#3a414a" stroke-width=".05" fill="#3a414a"/><path d="M1945.66 1222.77l-4.63-14.26h9.27z" fill="#3a414a"/><path d="M1945.66 1224.3l-5.28-16.27h10.57zm-3.98-15.32l3.98 12.26 4-12.26z" stroke="#3a414a" stroke-width=".05" fill="#3a414a"/><use xlink:href="#d" transform="matrix(1,0,0,1,1886.0603300474925,1181.7527771304565) translate(0 14.222222222222223)"/><use xlink:href="#e" transform="matrix(1,0,0,1,1886.0603300474925,1181.7527771304565) translate(36.49382716049384 14.222222222222223)"/><path d="M1879.27 1041.08a6 6 0 0 1 6-6h122.4a6 6 0 0 1 6 6v28.6a6 6 0 0 1-6 6h-122.4a6 6 0 0 1-6-6z" stroke="#282c33" stroke-width="2" fill="#fbaeae"/><use xlink:href="#f" transform="matrix(1,0,0,1,1891.273526122779,1047.083280862998) translate(9.296296296296298 17.77777777777778)"/><path d="M1871.48 1118.55a6 6 0 0 1 6-6h137.97a6 6 0 0 1 6 6v28.58a6 6 0 0 1-6 6h-137.97a6 6 0 0 1-6-6z" stroke="#282c33" stroke-width="2" fill="#fbaeae"/><use xlink:href="#g" transform="matrix(1,0,0,1,1883.4802891387894,1124.547020026898) translate(2.583333333333343 15.999999999999998)"/><use xlink:href="#h" transform="matrix(1,0,0,1,1883.4802891387894,1124.547020026898) translate(61.30555555555555 15.999999999999998)"/><path d="M1967.44 1111.05h-.95v-6.28h.94zm0-27.6h-.95v-6.28h.94zM1965.44 1111.05h-.95v-6.28h.94zm0-27.6h-.95v-6.28h.94z" stroke="#3a414a" stroke-width=".05" fill="#3a414a"/><path d="M1967.44 1077.18h-.95v-.5h.94z" fill="#3a414a"/><path stroke="#3a414a" stroke-width=".05" fill="#3a414a"/><path d="M1965.44 1077.18h-.95v-.5h.94z" fill="#3a414a"/><path stroke="#3a414a" stroke-width=".05" fill="#3a414a"/><path d="M1967.44 1111.55h-.95v-.52h.94z" fill="#3a414a"/><path stroke="#3a414a" stroke-width=".05" fill="#3a414a"/><path d="M1965.44 1111.55h-.95v-.52h.94z" fill="#3a414a"/><path stroke="#3a414a" stroke-width=".05" fill="#3a414a"/><use xlink:href="#i" transform="matrix(1,0,0,1,1941.8444164110529,1083.4400957420598) translate(0 14.222222222222223)"/><path d="M1910.47 1111.05h-.94v-6.28h.94zm0-27.6h-.94v-6.28h.94zM1908.47 1111.05h-.94v-6.28h.94zm0-27.6h-.94v-6.28h.94z" stroke="#3a414a" stroke-width=".05" fill="#3a414a"/><path d="M1910.47 1077.18h-.94v-.5h.94z" fill="#3a414a"/><path stroke="#3a414a" stroke-width=".05" fill="#3a414a"/><path d="M1908.47 1077.18h-.94v-.5h.94z" fill="#3a414a"/><path stroke="#3a414a" stroke-width=".05" fill="#3a414a"/><path d="M1910.47 1111.55h-.94v-.52h.94z" fill="#3a414a"/><path stroke="#3a414a" stroke-width=".05" fill="#3a414a"/><path d="M1908.47 1111.55h-.94v-.52h.94z" fill="#3a414a"/><path stroke="#3a414a" stroke-width=".05" fill="#3a414a"/><use xlink:href="#j" transform="matrix(1,0,0,1,1893.2222174688004,1083.4404012636403) translate(0 14.222222222222223)"/><path d="M1596.64 1229.08a6 6 0 0 1 6-6h134.67a6 6 0 0 1 6 6v80a6 6 0 0 1-6 6h-134.66a6 6 0 0 1-6-6z" stroke="#282c33" stroke-width="2" fill="#ceeec9"/><use xlink:href="#a" transform="matrix(1,0,0,1,1608.6405668839302,1235.083280862998) translate(27.055555555555557 24.15277777777778)"/><use xlink:href="#k" transform="matrix(1,0,0,1,1608.6405668839302,1235.083280862998) translate(7.456790123456791 50.81944444444445)"/><path d="M1132.62 1027.75a6 6 0 0 1 6-6h181.43a6 6 0 0 1 6 6v281.33a6 6 0 0 1-6 6h-181.43a6 6 0 0 1-6-6z" fill="#e4f5ff"/><path d="M1158.78 1021.75h20.16m10.08 0h20.15m10.08 0h20.16m10.1 0h20.15m10.08 0h20.16m10.07 0h10.08l.94.07.9.22.87.36.8.5.72.6.6.72.5.8.36.88.2.9.1.95v10.42m0 10.42v20.83m0 10.42v20.84m0 10.4v20.85m0 10.42v20.84m0 10.43v20.84m0 10.42v20.82m0 10.42v20.84m0 10.42v20.84m0 10.42v10.42l-.08.94-.22.92-.37.87-.5.8-.6.73-.72.6-.8.5-.88.36-.9.2-.95.08h-10.08m-10.08 0h-20.17m-10.08 0h-20.16m-10.1 0h-20.15m-10.08 0h-20.15m-10.08 0h-20.16m-10.08 0h-10.08l-.94-.07-.92-.2-.87-.37-.8-.5-.72-.6-.62-.72-.5-.8-.35-.86-.2-.92-.08-.94v-10.42m0-10.42v-20.84m0-10.42v-20.84m0-10.42v-20.83m0-10.43v-20.84m0-10.42v-20.83m0-10.42v-20.84m0-10.4v-20.85m0-10.42v-20.84m0-10.43v-10.42l.07-.94.2-.9.37-.87.5-.8.6-.72.72-.6.8-.5.86-.36.92-.22.94-.07h10.08" stroke="#282c33" stroke-width="2" fill="none"/><path d="M1150.15 1244.9a6 6 0 0 1 6-6h144.76a6 6 0 0 1 6 6v51.83a6 6 0 0 1-6 6h-144.75a6 6 0 0 1-6-6z" stroke="#282c33" stroke-width="2" fill="#8ad4ff"/><use xlink:href="#l" transform="matrix(1,0,0,1,1162.1526895696156,1250.9023259644437) translate(6.777777777777786 25.277777777777775)"/><use xlink:href="#m" transform="matrix(1,0,0,1,1162.1526895696156,1250.9023259644437) translate(74.49382716049382 25.277777777777775)"/><path d="M1144.82 1059.92a6 6 0 0 1 6-6h155.43a6 6 0 0 1 6 6v93.53a6 6 0 0 1-6 6h-155.43a6 6 0 0 1-6-6z" stroke="#282c33" stroke-width="2" fill="#bbe6ff"/><path d="M1229 1221.52h-.94v-11.68h.95zm0-33h-.94v-11.7h.95z" stroke="#3a414a" stroke-width=".05" fill="#3a414a"/><path d="M1233.17 1176.33h-9.27l4.63-14.27z" fill="#3a414a"/><path d="M1233.82 1176.8h-10.58l5.3-16.27zm-9.27-.95h7.97l-4-12.25z" stroke="#3a414a" stroke-width=".05" fill="#3a414a"/><path d="M1228.53 1236.28l-4.63-14.26h9.27z" fill="#3a414a"/><path d="M1228.53 1237.82l-5.3-16.28h10.6zm-3.98-15.33l3.98 12.25 4-12.26z" stroke="#3a414a" stroke-width=".05" fill="#3a414a"/><use xlink:href="#n" transform="matrix(1,0,0,1,1175.496990088881,1188.5072636021264) translate(0 14.222222222222223)"/><use xlink:href="#o" transform="matrix(1,0,0,1,1175.496990088881,1188.5072636021264) translate(52.93827160493827 14.222222222222223)"/><path d="M1162.14 1041.08a6 6 0 0 1 6-6h122.38a6 6 0 0 1 6 6v28.6a6 6 0 0 1-6 6h-122.38a6 6 0 0 1-6-6z" stroke="#282c33" stroke-width="2" fill="#8ad4ff"/><use xlink:href="#f" transform="matrix(1,0,0,1,1174.1422849296,1047.083280862998) translate(9.296296296296298 17.77777777777778)"/><path d="M1154.35 1118.55a6 6 0 0 1 6-6h137.97a6 6 0 0 1 6 6v28.58a6 6 0 0 1-6 6h-137.97a6 6 0 0 1-6-6z" stroke="#282c33" stroke-width="2" fill="#8ad4ff"/><use xlink:href="#g" transform="matrix(1,0,0,1,1166.3490479456104,1124.547020026898) translate(2.583333333333343 15.999999999999998)"/><use xlink:href="#h" transform="matrix(1,0,0,1,1166.3490479456104,1124.547020026898) translate(61.30555555555555 15.999999999999998)"/><path d="M1230.8 1111.05h-.94v-6.28h.95zm0-27.6h-.94v-6.28h.95zM1228.8 1111.05h-.94v-6.28h.95zm0-27.6h-.94v-6.28h.95z" stroke="#3a414a" stroke-width=".05" fill="#3a414a"/><path d="M1230.8 1077.18h-.94v-.5h.95z" fill="#3a414a"/><path stroke="#3a414a" stroke-width=".05" fill="#3a414a"/><path d="M1228.8 1077.18h-.94v-.5h.95z" fill="#3a414a"/><path stroke="#3a414a" stroke-width=".05" fill="#3a414a"/><path d="M1230.8 1111.55h-.94v-.52h.95z" fill="#3a414a"/><path stroke="#3a414a" stroke-width=".05" fill="#3a414a"/><path d="M1228.8 1111.55h-.94v-.52h.95z" fill="#3a414a"/><path stroke="#3a414a" stroke-width=".05" fill="#3a414a"/><use xlink:href="#i" transform="matrix(1,0,0,1,1205.2098766179668,1083.4401107782812) translate(0 14.222222222222223)"/><path d="M1231.83 1335.62l.85 3.65 1 3.6 1.16 3.53 1.3 3.5 1.46 3.5 1.63 3.45 1.8 3.45 2 3.44 2.18 3.45 2.42 3.45 2.64 3.47 2.9 3.5 3.17 3.53 3.5 3.56 3.83 3.6 4.2 3.65 4.66 3.68 5.12 3.72 5.65 3.75 6.23 3.78 6.9 3.8 7.64 3.78 8.44 3.75 9.34 3.7 10.27 3.57 11.28 3.4 12.3 3.16 13.35 2.83 8.23 1.4v.96l-8.4-1.42-13.4-2.84-12.33-3.17-11.32-3.42-10.3-3.6-9.36-3.7-8.47-3.76-7.67-3.8-6.94-3.82-6.28-3.8-5.68-3.77-5.16-3.74-4.67-3.72-4.25-3.66-3.86-3.63-3.52-3.6-3.2-3.56-2.93-3.53-2.65-3.5-2.43-3.5-2.2-3.47-2.02-3.47-1.82-3.5-1.65-3.48-1.47-3.52-1.32-3.54-1.17-3.6-1-3.6-.87-3.7-.64-3.34.93-.18zm415.5-3.14l-.64 3.33-.88 3.7-1 3.63-1.17 3.58-1.32 3.55-1.48 3.52-1.64 3.5-1.8 3.48-2.02 3.47-2.2 3.5-2.44 3.48-2.66 3.5-2.92 3.54-3.2 3.55-3.53 3.6-3.86 3.6-4.24 3.67-4.68 3.7-5.15 3.75-5.68 3.77-6.28 3.8-6.93 3.8-7.66 3.8-8.48 3.78-9.36 3.7-10.3 3.6-11.32 3.4-12.34 3.17-13.37 2.84-8.44 1.4v-.95l8.26-1.4 13.32-2.83 12.3-3.15 11.28-3.4 10.27-3.58 9.32-3.7 8.43-3.75 7.63-3.8 6.9-3.78 6.25-3.78 5.66-3.76 5.12-3.72 4.64-3.68 4.22-3.64 3.83-3.6 3.5-3.56 3.17-3.52 2.9-3.5 2.63-3.48 2.4-3.46 2.2-3.45 1.98-3.44 1.8-3.46 1.63-3.46 1.47-3.48 1.3-3.5 1.15-3.55 1-3.6.86-3.64.63-3.3z" stroke="#3a414a" stroke-width=".05" fill="#3a414a"/><path d="M1235.3 1331.52l-9.23.8 3.4-14.62z" fill="#3a414a"/><path d="M1236 1331.94l-10.54.9 3.88-16.67zm-9.32-.16l7.93-.68-5-11.87z" stroke="#3a414a" stroke-width=".05" fill="#3a414a"/><path d="M1651.52 1332.3l-9.24-.78 5.83-13.83z" fill="#3a414a"/><path d="M1652.13 1332.83l-10.54-.9 6.64-15.77zm-9.16-1.73l7.94.68-2.92-12.55z" stroke="#3a414a" stroke-width=".05" fill="#3a414a"/><use xlink:href="#p" transform="matrix(1,0,0,1,1377.2630061009054,1420.3386798679342) translate(0 14.222222222222223)"/><use xlink:href="#q" transform="matrix(1,0,0,1,1377.2630061009054,1420.3386798679342) translate(51.20987654320989 14.222222222222223)"/><use xlink:href="#r" transform="matrix(1,0,0,1,1377.2630061009054,1420.3386798679342) translate(0 35.55555555555556)"/><use xlink:href="#s" transform="matrix(1,0,0,1,1377.2630061009054,1420.3386798679342) translate(17.7283950617284 35.55555555555556)"/><path d="M1452.4 1333.1l.75 1.44.83 1.44.9 1.44 1.02 1.45 1.1 1.45 1.2 1.46 1.34 1.48 1.46 1.5 1.6 1.5 1.77 1.52 1.94 1.54 2.16 1.55 2.36 1.58 2.62 1.58 1.1.6v1.1l-1.58-.88-2.64-1.6-2.4-1.6-2.18-1.58-1.98-1.56-1.8-1.54-1.63-1.53-1.48-1.52-1.36-1.5-1.24-1.5-1.13-1.47-1.03-1.48-.93-1.48-.85-1.47-.78-1.47-.62-1.33.86-.4zm168.83-.9l-.63 1.32-.77 1.48-.85 1.47-.93 1.48-1.03 1.47-1.13 1.5-1.25 1.48-1.35 1.5-1.5 1.52-1.62 1.54-1.8 1.55-1.97 1.57-2.17 1.58-2.4 1.6-2.64 1.6-1.6.87v-1.1l1.1-.6 2.63-1.58 2.36-1.57 2.14-1.56 1.94-1.53 1.76-1.52 1.6-1.5 1.47-1.5 1.34-1.47 1.2-1.46 1.1-1.45 1-1.45.93-1.44.83-1.44.75-1.44.62-1.3z" stroke="#3a414a" stroke-width=".05" fill="#3a414a"/><path d="M1455.8 1330.67l-9.07 1.9 1.6-14.9z" fill="#3a414a"/><path d="M1456.54 1331l-10.35 2.18 1.8-17.02zm-9.26.98l7.8-1.64-6.44-11.17z" stroke="#3a414a" stroke-width=".05" fill="#3a414a"/><path d="M1625.4 1332.58l-9.06-1.9 7.48-13z" fill="#3a414a"/><path d="M1625.95 1333.18l-10.35-2.18 8.54-14.84zm-8.87-2.84l7.8 1.64-1.37-12.8z" stroke="#3a414a" stroke-width=".05" fill="#3a414a"/><use xlink:href="#p" transform="matrix(1,0,0,1,1474.5422228408238,1347.5652228966064) translate(0 14.222222222222223)"/><use xlink:href="#q" transform="matrix(1,0,0,1,1474.5422228408238,1347.5652228966064) translate(51.20987654320989 14.222222222222223)"/><use xlink:href="#r" transform="matrix(1,0,0,1,1474.5422228408238,1347.5652228966064) translate(0 35.55555555555556)"/><use xlink:href="#s" transform="matrix(1,0,0,1,1474.5422228408238,1347.5652228966064) translate(17.7283950617284 35.55555555555556)"/><path d="M1721.67 1133.77l-3.4 6.5-3.12 6.65-2.87 6.82-2.6 7-2.32 7.13-2.03 7.3-1.75 7.43-1.45 7.6-1.14 7.74-.83 7.82-.95-.1.83-7.84 1.15-7.78 1.45-7.64 1.76-7.48 2.05-7.33 2.33-7.18 2.62-7.02 2.88-6.86 3.15-6.7 3.4-6.53 2.14-3.67h1.1zm140.28-89.75l-3.9.32-7.8 1-7.67 1.3-7.52 1.58-7.37 1.9-7.23 2.18-7.06 2.45-6.9 2.74-6.73 3-6.58 3.25-6.42 3.52-6.23 3.78-6.05 4.02-5.86 4.26-5.67 4.5-3.64 3.13h-1.45l4.48-3.87 5.7-4.53 5.9-4.28 6.08-4.06 6.27-3.8 6.45-3.53 6.6-3.27 6.8-3.02 6.93-2.74 7.1-2.47 7.25-2.2 7.4-1.9 7.57-1.6 7.7-1.3 7.86-1 3.9-.33z" stroke="#3a414a" stroke-width=".05" fill="#3a414a"/><path d="M1704.3 1206.4l-5.22 14.06-4.04-14.44z" fill="#3a414a"/><path d="M1704.98 1205.96L1699 1222l-4.6-16.5zm-5.84 12.97l4.5-12.08-7.96-.33z" stroke="#3a414a" stroke-width=".05" fill="#3a414a"/><path d="M1876.66 1042.9l-14.05 5.25-.4-9.26z" fill="#3a414a"/><path d="M1878.2 1042.82l-16.03 6-.47-10.56zm-15.14 4.66l12.06-4.52-12.42-3.44z" stroke="#3a414a" stroke-width=".05" fill="#3a414a"/><use xlink:href="#p" transform="matrix(1,0,0,1,1663.7709977644388,1086.9596549237929) translate(0 14.222222222222223)"/><use xlink:href="#q" transform="matrix(1,0,0,1,1663.7709977644388,1086.9596549237929) translate(51.20987654320989 14.222222222222223)"/><use xlink:href="#t" transform="matrix(1,0,0,1,1663.7709977644388,1086.9596549237929) translate(0 35.55555555555556)"/><use xlink:href="#u" transform="matrix(1,0,0,1,1663.7709977644388,1086.9596549237929) translate(74.96296296296296 35.55555555555556)"/><use xlink:href="#v" transform="matrix(1,0,0,1,1663.7709977644388,1086.9596549237929) translate(111.40740740740742 35.55555555555556)"/><path d="M1760.7 1262.33h89.2" stroke="#3a414a" stroke-linejoin="round" fill="none"/><path d="M1745.93 1262.33l14.26-4.64v9.26zM1864.67 1262.33l-14.27 4.63v-9.27z" stroke="#3a414a" fill="#3a414a"/><use xlink:href="#w" transform="matrix(1,0,0,1,1780.2100718406768,1266.328794391328) translate(0 14.222222222222223)"/><path d="M2044.55 1357.95a7.8 7.8 0 0 1 7.54-5.8h96.58a4.6 4.6 0 0 1 4.46 5.8l-13.62 51.07a7.8 7.8 0 0 1-7.55 5.8h-96.6a4.6 4.6 0 0 1-4.44-5.8z" fill="#ffdda6"/><path d="M2049.1 1352.75l.97-.33 1-.2 1.02-.07h2.9m3.85 0h5.8m3.86 0h5.8m3.87 0h5.8m3.86 0h5.8m3.86 0h5.78m3.87 0h5.8m3.86 0h5.8m3.87 0h5.8m3.85 0h5.8m3.86 0h2.9l.84.08.8.23.77.37m2 2.62l.16.82.02.85-.14.83-.82 3.06m-1.1 4.1l-1.63 6.13m-1.1 4.08l-1.63 6.14m-1.1 4.1l-1.62 6.12m-1.1 4.08l-1.63 6.13m-1.1 4.1l-.8 3.05-.33.97-.46.9-.57.86m-3.2 2.46l-.98.33-1 .2-1.03.07h-2.9m-3.86 0h-5.8m-3.85 0h-5.8m-3.86 0h-5.8m-3.87 0h-5.8m-3.86 0h-5.8m-3.86 0h-5.78m-3.86 0h-5.8m-3.86 0h-5.8m-3.86 0h-5.8m-3.86 0h-2.9l-.84-.08-.8-.23-.77-.36m-2-2.62l-.17-.83-.02-.85.15-.83.8-3.07m1.1-4.08l1.64-6.13m1.1-4.1l1.62-6.1m1.08-4.1l1.63-6.13m1.1-4.07l1.64-6.13m1.1-4.1l.8-3.05.33-.97.45-.92.57-.85" stroke="#282c33" stroke-width="2" fill="none"/><use xlink:href="#a" transform="matrix(1,0,0,1,2034.3799389088983,1357.150519263121) translate(26.060555555555553 21.09027777777778)"/><use xlink:href="#x" transform="matrix(1,0,0,1,2034.3799389088983,1357.150519263121) translate(16.233395061728388 47.75694444444444)"/><path d="M2094.27 1334.77l1.26-95.73-.94-15.07-1.2-11.4-1.33-9.1-1.43-7.55-1.5-6.37-1.52-5.48-1.55-4.78-1.57-4.23-1.58-3.75-1.58-3.38-1.6-3.04-1.6-2.78-1.6-2.53-1.63-2.34-1.62-2.16-1.65-2-1.67-1.85-1.7-1.73-1.72-1.62-1.76-1.52-1.8-1.42-1.84-1.34-1.9-1.26-1.95-1.18-2.03-1.1-2.1-1.06-2.2-.97-2.28-.9-2.42-.85-2.53-.76-2.68-.7-2.86-.6-3.04-.5-3.28-.42-3.54-.3-3.84-.16-1.55-.02" stroke="#3a414a" stroke-linejoin="round" fill="none"/><path d="M2094.07 1349.53l-4.44-14.33 9.27.13z" stroke="#3a414a" fill="#3a414a"/><path d="M2022.97 1132.37v.95h-.52v-.96z" stroke="#3a414a" stroke-width=".05" fill="#3a414a"/><path d="M1351.27 1027.75a6 6 0 0 1 6-6h181.43a6 6 0 0 1 6 6v281.33a6 6 0 0 1-6 6h-181.43a6 6 0 0 1-6-6z" fill="#e4f5ff"/><path d="M1377.43 1021.75h20.16m10.07 0h20.16m10.08 0h20.17m10.08 0h20.15m10.08 0h20.16m10.08 0h10.08l.94.07.92.22.87.36.8.5.7.6.63.72.5.8.35.88.23.9.07.95v10.42m0 10.42v20.83m0 10.42v20.84m0 10.4v20.85m0 10.42v20.84m0 10.43v20.84m0 10.42v20.82m0 10.42v20.84m0 10.42v20.84m0 10.42v10.42l-.07.94-.22.92-.35.87-.5.8-.6.73-.72.6-.8.5-.87.36-.92.2-.94.08h-10.08m-10.08 0h-20.16m-10.08 0h-20.15m-10.08 0h-20.16m-10.07 0h-20.16m-10.08 0h-20.17m-10.08 0h-10.08l-.94-.07-.9-.2-.88-.37-.8-.5-.72-.6-.6-.72-.5-.8-.37-.86-.22-.92-.07-.94v-10.42m0-10.42v-20.84m0-10.42v-20.84m0-10.42v-20.83m0-10.43v-20.84m0-10.42v-20.83m0-10.42v-20.84m0-10.4v-20.85m0-10.42v-20.84m0-10.43v-10.42l.07-.94.22-.9.36-.87.5-.8.6-.72.72-.6.8-.5.88-.36.9-.22.95-.07h10.08" stroke="#282c33" stroke-width="2" fill="none"/><path d="M1368.8 1244.9a6 6 0 0 1 6-6h144.77a6 6 0 0 1 6 6v51.83a6 6 0 0 1-6 6H1374.8a6 6 0 0 1-6-6z" stroke="#282c33" stroke-width="2" fill="#8ad4ff"/><use xlink:href="#l" transform="matrix(1,0,0,1,1380.8055715656433,1250.9023259644437) translate(6.777777777777786 25.277777777777775)"/><use xlink:href="#m" transform="matrix(1,0,0,1,1380.8055715656433,1250.9023259644437) translate(74.49382716049382 25.277777777777775)"/><path d="M1363.47 1059.92a6 6 0 0 1 6-6h155.43a6 6 0 0 1 6 6v93.53a6 6 0 0 1-6 6h-155.43a6 6 0 0 1-6-6z" stroke="#282c33" stroke-width="2" fill="#bbe6ff"/><path d="M1447.66 1221.52h-.95v-11.68h.96zm0-33h-.95v-11.7h.96z" stroke="#3a414a" stroke-width=".05" fill="#3a414a"/><path d="M1451.82 1176.33h-9.27l4.64-14.27z" fill="#3a414a"/><path d="M1452.48 1176.8h-10.58l5.3-16.27zm-9.28-.95h7.97l-3.98-12.25z" stroke="#3a414a" stroke-width=".05" fill="#3a414a"/><path d="M1447.2 1236.28l-4.65-14.26h9.27z" fill="#3a414a"/><path d="M1447.2 1237.82l-5.3-16.28h10.58zm-4-15.33l4 12.25 3.97-12.26z" stroke="#3a414a" stroke-width=".05" fill="#3a414a"/><g><use xlink:href="#n" transform="matrix(1,0,0,1,1394.1498720849086,1188.5072636021264) translate(0 14.222222222222223)"/><use xlink:href="#o" transform="matrix(1,0,0,1,1394.1498720849086,1188.5072636021264) translate(52.93827160493827 14.222222222222223)"/></g><path d="M1380.8 1041.08a6 6 0 0 1 6-6h122.38a6 6 0 0 1 6 6v28.6a6 6 0 0 1-6 6H1386.8a6 6 0 0 1-6-6z" stroke="#282c33" stroke-width="2" fill="#8ad4ff"/><g><use xlink:href="#f" transform="matrix(1,0,0,1,1392.7951669256277,1047.0832808629978) translate(9.296296296296298 17.77777777777778)"/></g><path d="M1373 1118.55a6 6 0 0 1 6-6h137.97a6 6 0 0 1 6 6v28.58a6 6 0 0 1-6 6H1379a6 6 0 0 1-6-6z" stroke="#282c33" stroke-width="2" fill="#8ad4ff"/><g><use xlink:href="#g" transform="matrix(1,0,0,1,1385.001929941638,1124.547020026898) translate(2.583333333333343 15.999999999999998)"/><use xlink:href="#h" transform="matrix(1,0,0,1,1385.001929941638,1124.547020026898) translate(61.30555555555555 15.999999999999998)"/></g><path d="M1449.46 1111.05h-.95v-6.28h.96zm0-27.6h-.95v-6.28h.96zM1447.46 1111.05h-.95v-6.28h.96zm0-27.6h-.95v-6.28h.96z" stroke="#3a414a" stroke-width=".05" fill="#3a414a"/><path d="M1449.46 1077.18h-.95v-.5h.96z" fill="#3a414a"/><path stroke="#3a414a" stroke-width=".05" fill="#3a414a"/><path d="M1447.46 1077.18h-.95v-.5h.96z" fill="#3a414a"/><path stroke="#3a414a" stroke-width=".05" fill="#3a414a"/><path d="M1449.46 1111.55h-.95v-.52h.96z" fill="#3a414a"/><path stroke="#3a414a" stroke-width=".05" fill="#3a414a"/><path d="M1447.46 1111.55h-.95v-.52h.96z" fill="#3a414a"/><path stroke="#3a414a" stroke-width=".05" fill="#3a414a"/><g><use xlink:href="#i" transform="matrix(1,0,0,1,1423.8627586139944,1083.4401107782812) translate(0 14.222222222222223)"/></g><defs><path fill="#3a414a" d="M169-182c-1-43-94-46-97-3 18 66 151 10 154 114 3 95-165 93-204 36-6-8-10-19-12-30l50-8c3 46 112 56 116 5-17-69-150-10-154-114-4-87 153-88 188-35 5 8 8 18 10 28" id="y"/><path fill="#3a414a" d="M110-194c64 0 96 36 96 99 0 64-35 99-97 99-61 0-95-36-95-99 0-62 34-99 96-99zm-1 164c35 0 45-28 45-65 0-40-10-65-43-65-34 0-45 26-45 65 0 36 10 65 43 65" id="z"/><path fill="#3a414a" d="M85 4C-2 5 27-109 22-190h50c7 57-23 150 33 157 60-5 35-97 40-157h50l1 190h-47c-2-12 1-28-3-38-12 25-28 42-61 42" id="A"/><path fill="#3a414a" d="M135-194c87-1 58 113 63 194h-50c-7-57 23-157-34-157-59 0-34 97-39 157H25l-1-190h47c2 12-1 28 3 38 12-26 28-41 61-42" id="B"/><path fill="#3a414a" d="M88-194c31-1 46 15 58 34l-1-101h50l1 261h-48c-2-10 0-23-3-31C134-8 116 4 84 4 32 4 16-41 15-95c0-56 19-97 73-99zm17 164c33 0 40-30 41-66 1-37-9-64-41-64s-38 30-39 65c0 43 13 65 39 65" id="C"/><g id="a"><use transform="matrix(0.06172839506172839,0,0,0.06172839506172839,0,0)" xlink:href="#y"/><use transform="matrix(0.06172839506172839,0,0,0.06172839506172839,14.814814814814813,0)" xlink:href="#z"/><use transform="matrix(0.06172839506172839,0,0,0.06172839506172839,28.33333333333333,0)" xlink:href="#A"/><use transform="matrix(0.06172839506172839,0,0,0.06172839506172839,41.85185185185185,0)" xlink:href="#B"/><use transform="matrix(0.06172839506172839,0,0,0.06172839506172839,55.37037037037037,0)" xlink:href="#C"/></g><path fill="#3a414a" d="M24-248c120-7 223 5 221 122C244-46 201 0 124 0H24v-248zM76-40c74 7 117-18 117-86 0-67-45-88-117-82v168" id="D"/><path fill="#3a414a" d="M135-150c-39-12-60 13-60 57V0H25l-1-190h47c2 13-1 29 3 40 6-28 27-53 61-41v41" id="E"/><path fill="#3a414a" d="M25-224v-37h50v37H25zM25 0v-190h50V0H25" id="F"/><path fill="#3a414a" d="M128 0H69L1-190h53L99-40l48-150h52" id="G"/><path fill="#3a414a" d="M185-48c-13 30-37 53-82 52C43 2 14-33 14-96s30-98 90-98c62 0 83 45 84 108H66c0 31 8 55 39 56 18 0 30-7 34-22zm-45-69c5-46-57-63-70-21-2 6-4 13-4 21h74" id="H"/><g id="b"><use transform="matrix(0.06172839506172839,0,0,0.06172839506172839,0,0)" xlink:href="#D"/><use transform="matrix(0.06172839506172839,0,0,0.06172839506172839,15.987654320987653,0)" xlink:href="#E"/><use transform="matrix(0.06172839506172839,0,0,0.06172839506172839,24.629629629629626,0)" xlink:href="#F"/><use transform="matrix(0.06172839506172839,0,0,0.06172839506172839,30.802469135802465,0)" xlink:href="#G"/><use transform="matrix(0.06172839506172839,0,0,0.06172839506172839,43.148148148148145,0)" xlink:href="#H"/><use transform="matrix(0.06172839506172839,0,0,0.06172839506172839,55.49382716049382,0)" xlink:href="#E"/></g><path fill="#3a414a" d="M147 0H94L2-248h55l64 206c17-72 42-137 63-206h54" id="I"/><path fill="#3a414a" d="M230 0l2-204L168 0h-37L68-204 70 0H24v-248h70l56 185 57-185h69V0h-46" id="J"/><g id="c"><use transform="matrix(0.06172839506172839,0,0,0.06172839506172839,0,0)" xlink:href="#I"/><use transform="matrix(0.06172839506172839,0,0,0.06172839506172839,14.814814814814813,0)" xlink:href="#J"/><use transform="matrix(0.06172839506172839,0,0,0.06172839506172839,33.2716049382716,0)" xlink:href="#J"/></g><path fill="#333" d="M238-95c0 69-44 99-111 99C63 4 22-25 22-93v-155h51v151c-1 38 19 59 55 60 90 1 49-130 58-211h52v153" id="K"/><path fill="#333" d="M24 0v-248h52V0H24" id="L"/><path fill="#333" d="M140-251c80 0 125 45 125 126S219 4 139 4C58 4 15-44 15-125s44-126 125-126zm-1 214c52 0 73-35 73-88 0-50-21-86-72-86-52 0-73 35-73 86s22 88 72 88" id="M"/><g id="d"><use transform="matrix(0.04938271604938272,0,0,0.04938271604938272,0,0)" xlink:href="#K"/><use transform="matrix(0.04938271604938272,0,0,0.04938271604938272,12.790123456790125,0)" xlink:href="#L"/><use transform="matrix(0.04938271604938272,0,0,0.04938271604938272,17.7283950617284,0)" xlink:href="#M"/></g><path fill="#333" d="M135-194c87-1 58 113 63 194h-50c-7-57 23-157-34-157-59 0-34 97-39 157H25l-1-190h47c2 12-1 28 3 38 12-26 28-41 61-42" id="N"/><path fill="#333" d="M115-3C79 11 28 4 28-45v-112H4v-33h27l15-45h31v45h36v33H77v99c-1 23 16 31 38 25v30" id="O"/><path fill="#333" d="M185-48c-13 30-37 53-82 52C43 2 14-33 14-96s30-98 90-98c62 0 83 45 84 108H66c0 31 8 55 39 56 18 0 30-7 34-22zm-45-69c5-46-57-63-70-21-2 6-4 13-4 21h74" id="P"/><path fill="#333" d="M135-150c-39-12-60 13-60 57V0H25l-1-190h47c2 13-1 29 3 40 6-28 27-53 61-41v41" id="Q"/><path fill="#333" d="M85 4C-2 5 27-109 22-190h50c7 57-23 150 33 157 60-5 35-97 40-157h50l1 190h-47c-2-12 1-28-3-38-12 25-28 42-61 42" id="R"/><path fill="#333" d="M135-194c53 0 70 44 70 98 0 56-19 98-73 100-31 1-45-17-59-34 3 33 2 69 2 105H25l-1-265h48c2 10 0 23 3 31 11-24 29-35 60-35zM114-30c33 0 39-31 40-66 0-38-9-64-40-64-56 0-55 130 0 130" id="S"/><path fill="#333" d="M137-138c1-29-70-34-71-4 15 46 118 7 119 86 1 83-164 76-172 9l43-7c4 19 20 25 44 25 33 8 57-30 24-41C81-84 22-81 20-136c-2-80 154-74 161-7" id="T"/><g id="e"><use transform="matrix(0.04938271604938272,0,0,0.04938271604938272,0,0)" xlink:href="#L"/><use transform="matrix(0.04938271604938272,0,0,0.04938271604938272,4.938271604938272,0)" xlink:href="#N"/><use transform="matrix(0.04938271604938272,0,0,0.04938271604938272,15.753086419753087,0)" xlink:href="#O"/><use transform="matrix(0.04938271604938272,0,0,0.04938271604938272,21.62962962962963,0)" xlink:href="#P"/><use transform="matrix(0.04938271604938272,0,0,0.04938271604938272,31.506172839506174,0)" xlink:href="#Q"/><use transform="matrix(0.04938271604938272,0,0,0.04938271604938272,38.41975308641975,0)" xlink:href="#Q"/><use transform="matrix(0.04938271604938272,0,0,0.04938271604938272,45.333333333333336,0)" xlink:href="#R"/><use transform="matrix(0.04938271604938272,0,0,0.04938271604938272,56.14814814814815,0)" xlink:href="#S"/><use transform="matrix(0.04938271604938272,0,0,0.04938271604938272,66.96296296296296,0)" xlink:href="#O"/><use transform="matrix(0.04938271604938272,0,0,0.04938271604938272,72.8395061728395,0)" xlink:href="#T"/></g><path fill="#3a414a" d="M137-138c1-29-70-34-71-4 15 46 118 7 119 86 1 83-164 76-172 9l43-7c4 19 20 25 44 25 33 8 57-30 24-41C81-84 22-81 20-136c-2-80 154-74 161-7" id="U"/><path fill="#3a414a" d="M25 0v-261h50V0H25" id="V"/><path fill="#3a414a" d="M133-34C117-15 103 5 69 4 32 3 11-16 11-54c-1-60 55-63 116-61 1-26-3-47-28-47-18 1-26 9-28 27l-52-2c7-38 36-58 82-57s74 22 75 68l1 82c-1 14 12 18 25 15v27c-30 8-71 5-69-32zm-48 3c29 0 43-24 42-57-32 0-66-3-65 30 0 17 8 27 23 27" id="W"/><g id="f"><use transform="matrix(0.06172839506172839,0,0,0.06172839506172839,0,0)" xlink:href="#A"/><use transform="matrix(0.06172839506172839,0,0,0.06172839506172839,13.518518518518517,0)" xlink:href="#U"/><use transform="matrix(0.06172839506172839,0,0,0.06172839506172839,25.864197530864196,0)" xlink:href="#H"/><use transform="matrix(0.06172839506172839,0,0,0.06172839506172839,38.20987654320987,0)" xlink:href="#E"/><use transform="matrix(0.06172839506172839,0,0,0.06172839506172839,46.85185185185185,0)" xlink:href="#V"/><use transform="matrix(0.06172839506172839,0,0,0.06172839506172839,53.02469135802469,0)" xlink:href="#W"/><use transform="matrix(0.06172839506172839,0,0,0.06172839506172839,65.37037037037037,0)" xlink:href="#B"/><use transform="matrix(0.06172839506172839,0,0,0.06172839506172839,78.88888888888889,0)" xlink:href="#C"/></g><path fill="#3a414a" d="M24 0v-248h52v208h133V0H24" id="X"/><path fill="#3a414a" d="M144 0l-44-69L55 0H2l70-98-66-92h53l41 62 40-62h54l-67 91 71 99h-54" id="Y"/><g id="g"><use transform="matrix(0.055555555555555546,0,0,0.055555555555555546,0,0)" xlink:href="#X"/><use transform="matrix(0.055555555555555546,0,0,0.055555555555555546,12.166666666666664,0)" xlink:href="#F"/><use transform="matrix(0.055555555555555546,0,0,0.055555555555555546,17.722222222222218,0)" xlink:href="#B"/><use transform="matrix(0.055555555555555546,0,0,0.055555555555555546,29.888888888888882,0)" xlink:href="#A"/><use transform="matrix(0.055555555555555546,0,0,0.055555555555555546,42.05555555555554,0)" xlink:href="#Y"/></g><path fill="#3a414a" d="M195 0l-88-114-31 24V0H24v-248h52v113l112-113h60L142-143 257 0h-62" id="Z"/><g id="h"><use transform="matrix(0.055555555555555546,0,0,0.055555555555555546,0,0)" xlink:href="#Z"/><use transform="matrix(0.055555555555555546,0,0,0.055555555555555546,14.388888888888886,0)" xlink:href="#H"/><use transform="matrix(0.055555555555555546,0,0,0.055555555555555546,25.499999999999993,0)" xlink:href="#E"/><use transform="matrix(0.055555555555555546,0,0,0.055555555555555546,33.27777777777777,0)" xlink:href="#B"/><use transform="matrix(0.055555555555555546,0,0,0.055555555555555546,45.444444444444436,0)" xlink:href="#H"/><use transform="matrix(0.055555555555555546,0,0,0.055555555555555546,56.55555555555554,0)" xlink:href="#V"/></g><path fill="#333" d="M199 0l-22-63H83L61 0H9l90-248h61L250 0h-51zm-33-102l-36-108c-10 38-24 72-36 108h72" id="aa"/><path fill="#333" d="M24 0v-248h52v208h133V0H24" id="ab"/><path fill="#333" d="M169-182c-1-43-94-46-97-3 18 66 151 10 154 114 3 95-165 93-204 36-6-8-10-19-12-30l50-8c3 46 112 56 116 5-17-69-150-10-154-114-4-87 153-88 188-35 5 8 8 18 10 28" id="ac"/><g id="i"><use transform="matrix(0.04938271604938272,0,0,0.04938271604938272,0,0)" xlink:href="#aa"/><use transform="matrix(0.04938271604938272,0,0,0.04938271604938272,12.790123456790125,0)" xlink:href="#ab"/><use transform="matrix(0.04938271604938272,0,0,0.04938271604938272,23.60493827160494,0)" xlink:href="#ac"/><use transform="matrix(0.04938271604938272,0,0,0.04938271604938272,35.45679012345679,0)" xlink:href="#aa"/></g><g id="j"><use transform="matrix(0.04938271604938272,0,0,0.04938271604938272,0,0)" xlink:href="#K"/><use transform="matrix(0.04938271604938272,0,0,0.04938271604938272,12.790123456790125,0)" xlink:href="#L"/><use transform="matrix(0.04938271604938272,0,0,0.04938271604938272,17.7283950617284,0)" xlink:href="#M"/></g><path fill="#3a414a" d="M115-3C79 11 28 4 28-45v-112H4v-33h27l15-45h31v45h36v33H77v99c-1 23 16 31 38 25v30" id="ad"/><g id="k"><use transform="matrix(0.06172839506172839,0,0,0.06172839506172839,0,0)" xlink:href="#I"/><use transform="matrix(0.06172839506172839,0,0,0.06172839506172839,14.382716049382715,0)" xlink:href="#F"/><use transform="matrix(0.06172839506172839,0,0,0.06172839506172839,20.555555555555554,0)" xlink:href="#E"/><use transform="matrix(0.06172839506172839,0,0,0.06172839506172839,29.197530864197528,0)" xlink:href="#ad"/><use transform="matrix(0.06172839506172839,0,0,0.06172839506172839,36.54320987654321,0)" xlink:href="#A"/><use transform="matrix(0.06172839506172839,0,0,0.06172839506172839,50.06172839506173,0)" xlink:href="#W"/><use transform="matrix(0.06172839506172839,0,0,0.06172839506172839,62.407407407407405,0)" xlink:href="#V"/><use transform="matrix(0.06172839506172839,0,0,0.06172839506172839,68.58024691358024,0)" xlink:href="#F"/><use transform="matrix(0.06172839506172839,0,0,0.06172839506172839,74.75308641975307,0)" xlink:href="#U"/><use transform="matrix(0.06172839506172839,0,0,0.06172839506172839,87.09876543209876,0)" xlink:href="#H"/><use transform="matrix(0.06172839506172839,0,0,0.06172839506172839,99.44444444444444,0)" xlink:href="#E"/></g><path fill="#3a414a" d="M67-125c0 53 21 87 73 88 37 1 54-22 65-47l45 17C233-25 199 4 140 4 58 4 20-42 15-125 8-235 124-281 211-232c18 10 29 29 36 50l-46 12c-8-25-30-41-62-41-52 0-71 34-72 86" id="ae"/><g id="l"><use transform="matrix(0.061728395061728385,0,0,0.061728395061728385,0,0)" xlink:href="#ae"/><use transform="matrix(0.061728395061728385,0,0,0.061728395061728385,15.987654320987652,0)" xlink:href="#V"/><use transform="matrix(0.061728395061728385,0,0,0.061728395061728385,22.16049382716049,0)" xlink:href="#F"/><use transform="matrix(0.061728395061728385,0,0,0.061728395061728385,28.33333333333333,0)" xlink:href="#H"/><use transform="matrix(0.061728395061728385,0,0,0.061728395061728385,40.679012345679006,0)" xlink:href="#B"/><use transform="matrix(0.061728395061728385,0,0,0.061728395061728385,54.19753086419752,0)" xlink:href="#ad"/></g><g id="m"><use transform="matrix(0.061728395061728385,0,0,0.061728395061728385,0,0)" xlink:href="#I"/><use transform="matrix(0.061728395061728385,0,0,0.061728395061728385,14.814814814814813,0)" xlink:href="#J"/><use transform="matrix(0.061728395061728385,0,0,0.061728395061728385,33.2716049382716,0)" xlink:href="#J"/></g><path fill="#333" d="M147 0H94L2-248h55l64 206c17-72 42-137 63-206h54" id="af"/><path fill="#333" d="M25-224v-37h50v37H25zM25 0v-190h50V0H25" id="ag"/><g id="n"><use transform="matrix(0.04938271604938272,0,0,0.04938271604938272,0,0)" xlink:href="#af"/><use transform="matrix(0.04938271604938272,0,0,0.04938271604938272,11.506172839506174,0)" xlink:href="#ag"/><use transform="matrix(0.04938271604938272,0,0,0.04938271604938272,16.444444444444446,0)" xlink:href="#Q"/><use transform="matrix(0.04938271604938272,0,0,0.04938271604938272,23.358024691358025,0)" xlink:href="#O"/><use transform="matrix(0.04938271604938272,0,0,0.04938271604938272,29.23456790123457,0)" xlink:href="#L"/><use transform="matrix(0.04938271604938272,0,0,0.04938271604938272,34.17283950617284,0)" xlink:href="#M"/></g><path fill="#333" d="M110-194c64 0 96 36 96 99 0 64-35 99-97 99-61 0-95-36-95-99 0-62 34-99 96-99zm-1 164c35 0 45-28 45-65 0-40-10-65-43-65-34 0-45 26-45 65 0 36 10 65 43 65" id="ah"/><path fill="#333" d="M88-194c31-1 46 15 58 34l-1-101h50l1 261h-48c-2-10 0-23-3-31C134-8 116 4 84 4 32 4 16-41 15-95c0-56 19-97 73-99zm17 164c33 0 40-30 41-66 1-37-9-64-41-64s-38 30-39 65c0 43 13 65 39 65" id="ai"/><g id="o"><use transform="matrix(0.04938271604938272,0,0,0.04938271604938272,0,0)" xlink:href="#T"/><use transform="matrix(0.04938271604938272,0,0,0.04938271604938272,9.876543209876544,0)" xlink:href="#ah"/><use transform="matrix(0.04938271604938272,0,0,0.04938271604938272,20.69135802469136,0)" xlink:href="#R"/><use transform="matrix(0.04938271604938272,0,0,0.04938271604938272,31.506172839506174,0)" xlink:href="#N"/><use transform="matrix(0.04938271604938272,0,0,0.04938271604938272,42.320987654320994,0)" xlink:href="#ai"/></g><path fill="#333" d="M24-248c120-7 223 5 221 122C244-46 201 0 124 0H24v-248zM76-40c74 7 117-18 117-86 0-67-45-88-117-82v168" id="aj"/><path fill="#333" d="M76-208v77h127v40H76V0H24v-248h183v40H76" id="ak"/><g id="p"><use transform="matrix(0.04938271604938272,0,0,0.04938271604938272,0,0)" xlink:href="#T"/><use transform="matrix(0.04938271604938272,0,0,0.04938271604938272,9.876543209876544,0)" xlink:href="#aj"/><use transform="matrix(0.04938271604938272,0,0,0.04938271604938272,22.66666666666667,0)" xlink:href="#aj"/><use transform="matrix(0.04938271604938272,0,0,0.04938271604938272,35.4567901234568,0)" xlink:href="#ak"/></g><path fill="#333" d="M84 4C32 4 15-41 15-95c0-55 18-99 73-99 29 0 47 12 58 34l2-30h48l-1 265h-49V-32C136-9 114 4 84 4zm21-34c32 0 41-29 41-66 0-36-9-64-40-64-33 0-39 30-40 65 0 43 13 65 39 65" id="al"/><g id="q"><use transform="matrix(0.04938271604938272,0,0,0.04938271604938272,0,0)" xlink:href="#al"/><use transform="matrix(0.04938271604938272,0,0,0.04938271604938272,10.814814814814815,0)" xlink:href="#R"/><use transform="matrix(0.04938271604938272,0,0,0.04938271604938272,21.62962962962963,0)" xlink:href="#P"/><use transform="matrix(0.04938271604938272,0,0,0.04938271604938272,31.506172839506174,0)" xlink:href="#R"/><use transform="matrix(0.04938271604938272,0,0,0.04938271604938272,42.32098765432099,0)" xlink:href="#P"/><use transform="matrix(0.04938271604938272,0,0,0.04938271604938272,52.19753086419754,0)" xlink:href="#T"/></g><path fill="#333" d="M168-19C124 19 11 11 16-68c3-43 29-60 59-75-25-44-12-111 53-106 37 3 64 15 64 52 0 43-40 52-69 68 12 22 27 41 43 59 14-19 21-38 28-64l37 13c-8 29-19 52-34 74 12 10 32 16 52 10v35c-28 11-65-2-81-17zm-58-139c19-9 43-14 43-39 0-14-10-22-25-22-34 0-33 41-18 61zM60-68c-3 40 55 47 79 25-18-20-34-42-48-67-18 8-30 20-31 42" id="am"/><use transform="matrix(0.04938271604938272,0,0,0.04938271604938272,0,0)" xlink:href="#am" id="r"/><path fill="#333" d="M121-226c-27-7-43 5-38 36h38v33H83V0H34v-157H6v-33h28c-9-59 32-81 87-68v32" id="an"/><path fill="#333" d="M190-63c-7 42-38 67-86 67-59 0-84-38-90-98-12-110 154-137 174-36l-49 2c-2-19-15-32-35-32-30 0-35 28-38 64-6 74 65 87 74 30" id="ao"/><path fill="#333" d="M133-34C117-15 103 5 69 4 32 3 11-16 11-54c-1-60 55-63 116-61 1-26-3-47-28-47-18 1-26 9-28 27l-52-2c7-38 36-58 82-57s74 22 75 68l1 82c-1 14 12 18 25 15v27c-30 8-71 5-69-32zm-48 3c29 0 43-24 42-57-32 0-66-3-65 30 0 17 8 27 23 27" id="ap"/><g id="s"><use transform="matrix(0.04938271604938272,0,0,0.04938271604938272,0,0)" xlink:href="#N"/><use transform="matrix(0.04938271604938272,0,0,0.04938271604938272,10.814814814814815,0)" xlink:href="#ah"/><use transform="matrix(0.04938271604938272,0,0,0.04938271604938272,21.62962962962963,0)" xlink:href="#O"/><use transform="matrix(0.04938271604938272,0,0,0.04938271604938272,27.506172839506174,0)" xlink:href="#ag"/><use transform="matrix(0.04938271604938272,0,0,0.04938271604938272,32.44444444444444,0)" xlink:href="#an"/><use transform="matrix(0.04938271604938272,0,0,0.04938271604938272,38.32098765432099,0)" xlink:href="#ag"/><use transform="matrix(0.04938271604938272,0,0,0.04938271604938272,43.25925925925926,0)" xlink:href="#ao"/><use transform="matrix(0.04938271604938272,0,0,0.04938271604938272,53.135802469135804,0)" xlink:href="#ap"/><use transform="matrix(0.04938271604938272,0,0,0.04938271604938272,63.01234567901235,0)" xlink:href="#O"/><use transform="matrix(0.04938271604938272,0,0,0.04938271604938272,68.88888888888889,0)" xlink:href="#ag"/><use transform="matrix(0.04938271604938272,0,0,0.04938271604938272,73.82716049382717,0)" xlink:href="#ah"/><use transform="matrix(0.04938271604938272,0,0,0.04938271604938272,84.64197530864197,0)" xlink:href="#N"/><use transform="matrix(0.04938271604938272,0,0,0.04938271604938272,95.45679012345678,0)" xlink:href="#T"/></g><path fill="#333" d="M87 75C49 33 22-17 22-94c0-76 28-126 65-167h31c-38 41-64 92-64 168S80 34 118 75H87" id="aq"/><path fill="#333" d="M210-169c-67 3-38 105-44 169h-31v-121c0-29-5-50-35-48C34-165 62-65 56 0H25l-1-190h30c1 10-1 24 2 32 10-44 99-50 107 0 11-21 27-35 58-36 85-2 47 119 55 194h-31v-121c0-29-5-49-35-48" id="ar"/><path fill="#333" d="M141-36C126-15 110 5 73 4 37 3 15-17 15-53c-1-64 63-63 125-63 3-35-9-54-41-54-24 1-41 7-42 31l-33-3c5-37 33-52 76-52 45 0 72 20 72 64v82c-1 20 7 32 28 27v20c-31 9-61-2-59-35zM48-53c0 20 12 33 32 33 41-3 63-29 60-74-43 2-92-5-92 41" id="as"/><path fill="#333" d="M115-194c55 1 70 41 70 98S169 2 115 4C84 4 66-9 55-30l1 105H24l-1-265h31l2 30c10-21 28-34 59-34zm-8 174c40 0 45-34 45-75s-6-73-45-74c-42 0-51 32-51 76 0 43 10 73 51 73" id="at"/><path fill="#333" d="M100-194c63 0 86 42 84 106H49c0 40 14 67 53 68 26 1 43-12 49-29l28 8c-11 28-37 45-77 45C44 4 14-33 15-96c1-61 26-98 85-98zm52 81c6-60-76-77-97-28-3 7-6 17-6 28h103" id="au"/><path fill="#333" d="M85-194c31 0 48 13 60 33l-1-100h32l1 261h-30c-2-10 0-23-3-31C134-8 116 4 85 4 32 4 16-35 15-94c0-66 23-100 70-100zm9 24c-40 0-46 34-46 75 0 40 6 74 45 74 42 0 51-32 51-76 0-42-9-74-50-73" id="av"/><g id="t"><use transform="matrix(0.04938271604938272,0,0,0.04938271604938272,0,0)" xlink:href="#aq"/><use transform="matrix(0.04938271604938272,0,0,0.04938271604938272,5.8765432098765435,0)" xlink:href="#ar"/><use transform="matrix(0.04938271604938272,0,0,0.04938271604938272,20.641975308641978,0)" xlink:href="#as"/><use transform="matrix(0.04938271604938272,0,0,0.04938271604938272,30.518518518518523,0)" xlink:href="#at"/><use transform="matrix(0.04938271604938272,0,0,0.04938271604938272,40.39506172839506,0)" xlink:href="#at"/><use transform="matrix(0.04938271604938272,0,0,0.04938271604938272,50.27160493827161,0)" xlink:href="#au"/><use transform="matrix(0.04938271604938272,0,0,0.04938271604938272,60.14814814814815,0)" xlink:href="#av"/></g><path fill="#333" d="M206 0h-36l-40-164L89 0H53L-1-190h32L70-26l43-164h34l41 164 42-164h31" id="aw"/><path fill="#333" d="M24-231v-30h32v30H24zM24 0v-190h32V0H24" id="ax"/><path fill="#333" d="M59-47c-2 24 18 29 38 22v24C64 9 27 4 27-40v-127H5v-23h24l9-43h21v43h35v23H59v120" id="ay"/><path fill="#333" d="M106-169C34-169 62-67 57 0H25v-261h32l-1 103c12-21 28-36 61-36 89 0 53 116 60 194h-32v-121c2-32-8-49-39-48" id="az"/><g id="u"><use transform="matrix(0.04938271604938272,0,0,0.04938271604938272,0,0)" xlink:href="#aw"/><use transform="matrix(0.04938271604938272,0,0,0.04938271604938272,12.790123456790125,0)" xlink:href="#ax"/><use transform="matrix(0.04938271604938272,0,0,0.04938271604938272,16.69135802469136,0)" xlink:href="#ay"/><use transform="matrix(0.04938271604938272,0,0,0.04938271604938272,21.629629629629633,0)" xlink:href="#az"/></g><path fill="#333" d="M232-93c-1 65-40 97-104 97C67 4 28-28 28-90v-158h33c8 89-33 224 67 224 102 0 64-133 71-224h33v155" id="aA"/><path fill="#333" d="M33 0v-248h34V0H33" id="aB"/><path fill="#333" d="M140-251c81 0 123 46 123 126C263-46 219 4 140 4 59 4 17-45 17-125s42-126 123-126zm0 227c63 0 89-41 89-101s-29-99-89-99c-61 0-89 39-89 99S79-25 140-24" id="aC"/><path fill="#333" d="M33-261c38 41 65 92 65 168S71 34 33 75H2C39 34 66-17 66-93S39-220 2-261h31" id="aD"/><g id="v"><use transform="matrix(0.04938271604938272,0,0,0.04938271604938272,0,0)" xlink:href="#aA"/><use transform="matrix(0.04938271604938272,0,0,0.04938271604938272,12.790123456790125,0)" xlink:href="#aB"/><use transform="matrix(0.04938271604938272,0,0,0.04938271604938272,17.7283950617284,0)" xlink:href="#aC"/><use transform="matrix(0.04938271604938272,0,0,0.04938271604938272,31.555555555555557,0)" xlink:href="#aD"/></g><path fill="#333" d="M175 0L67-191c6 58 2 128 3 191H24v-248h59L193-55c-6-58-2-129-3-193h46V0h-61" id="aE"/><path fill="#333" d="M123 10C108 53 80 86 19 72V37c35 8 53-11 59-39L3-190h52l48 148c12-52 28-100 44-148h51" id="aF"/><g id="w"><use transform="matrix(0.04938271604938272,0,0,0.04938271604938272,0,0)" xlink:href="#aE"/><use transform="matrix(0.04938271604938272,0,0,0.04938271604938272,12.790123456790125,0)" xlink:href="#ah"/><use transform="matrix(0.04938271604938272,0,0,0.04938271604938272,23.60493827160494,0)" xlink:href="#O"/><use transform="matrix(0.04938271604938272,0,0,0.04938271604938272,29.481481481481485,0)" xlink:href="#ag"/><use transform="matrix(0.04938271604938272,0,0,0.04938271604938272,34.41975308641976,0)" xlink:href="#an"/><use transform="matrix(0.04938271604938272,0,0,0.04938271604938272,40.296296296296305,0)" xlink:href="#aF"/></g><path fill="#3a414a" d="M190-63c-7 42-38 67-86 67-59 0-84-38-90-98-12-110 154-137 174-36l-49 2c-2-19-15-32-35-32-30 0-35 28-38 64-6 74 65 87 74 30" id="aG"/><g id="x"><use transform="matrix(0.06172839506172839,0,0,0.06172839506172839,0,0)" xlink:href="#D"/><use transform="matrix(0.06172839506172839,0,0,0.06172839506172839,15.987654320987653,0)" xlink:href="#H"/><use transform="matrix(0.06172839506172839,0,0,0.06172839506172839,28.333333333333332,0)" xlink:href="#G"/><use transform="matrix(0.06172839506172839,0,0,0.06172839506172839,40.67901234567901,0)" xlink:href="#F"/><use transform="matrix(0.06172839506172839,0,0,0.06172839506172839,46.851851851851855,0)" xlink:href="#aG"/><use transform="matrix(0.06172839506172839,0,0,0.06172839506172839,59.19753086419753,0)" xlink:href="#H"/></g></defs></g></svg>