<svg xmlns="http://www.w3.org/2000/svg" xmlns:xlink="http://www.w3.org/1999/xlink" xmlns:lucid="lucid" width="808" height="549"><g transform="translate(575 -9)" lucid:page-tab-id="0_0"><path d="M-1000 0h4000v3000h-4000z" fill="#fff"/><path d="M-550.95 231.47h78.67v35.5h-78.67zM-550.95 195.97h78.67v35.5h-78.67zM-550.95 160.46h78.67v35.5h-78.67zM-550.95 124.96h78.67v35.5h-78.67zM-550.95 89.45h78.67v35.5h-78.67zM-256.8 50.18h95.6v38.25h-95.6z" stroke="#282c33" stroke-width="2" fill="#fff"/><use xlink:href="#a" transform="matrix(1,0,0,1,-244.80862950968645,62.18415785908073) translate(14.395061728395063 17.77777777777778)"/><path d="M-550.95 66.06a6 6 0 0 1 6-6h66.67a6 6 0 0 1 6 6v17.4a6 6 0 0 1-6 6h-66.67a6 6 0 0 1-6-6z" stroke="#000" stroke-opacity="0" stroke-width="2" fill="#fff" fill-opacity="0"/><use xlink:href="#b" transform="matrix(1,0,0,1,-545.945098167994,65.06158161939798) translate(10.703703703703702 19.02777777777778)"/><path d="M54.26 33.75H197.7v68.19H54.26z" stroke="#282c33" stroke-width="2" fill="#fff"/><use xlink:href="#c" transform="matrix(1,0,0,1,66.2626699368264,45.74742937266671) translate(2.037037037037038 17.77777777777778)"/><use xlink:href="#d" transform="matrix(1,0,0,1,66.2626699368264,45.74742937266671) translate(82.22222222222221 17.77777777777778)"/><use xlink:href="#e" transform="matrix(1,0,0,1,66.2626699368264,45.74742937266671) translate(30.462962962962965 44.44444444444444)"/><path d="M-256.8 88.43h95.6v38.24h-95.6z" stroke="#282c33" stroke-width="2" fill="#fff"/><use xlink:href="#f" transform="matrix(1,0,0,1,-244.80862950968645,100.4284670288972) translate(15.012345679012345 17.77777777777778)"/><path d="M-159.7 69.3l196.58-1.35" stroke="#3a414a" stroke-linejoin="round" fill="none"/><path d="M-159.7 69.78h-.5v-.95h.5z" stroke="#3a414a" stroke-width=".05" fill="#3a414a"/><path d="M51.65 67.85L37.4 72.6l-.05-9.28z" stroke="#3a414a" fill="#3a414a"/><path d="M-470.77 107.2l16.43-.34 13.95-.87 11.94-1.25 10.6-1.57 9.85-1.87 9.65-2.26 10.42-2.92 15.47-5.07 31.3-10.66 10.42-2.93 9.66-2.27 9.85-1.87 10.6-1.56 11.94-1.25 13.95-.87h.56" stroke="#3a414a" stroke-linejoin="round" fill="none"/><path d="M-470.75 107.67h-.53v-.94h.5z" stroke="#3a414a" stroke-width=".05" fill="#3a414a"/><path d="M-259.43 69.34l-14.17 4.92-.18-9.27z" stroke="#3a414a" fill="#3a414a"/><path d="M-256.8 169.56h95.6v33.1h-95.6z" stroke="#282c33" stroke-width="2" fill="#fff"/><use xlink:href="#a" transform="matrix(1,0,0,1,-244.8086295082873,181.55843769417237) translate(14.395061728395063 17.77777777777778)"/><path d="M-256.8 202.66h95.6v33.1h-95.6z" stroke="#282c33" stroke-width="2" fill="#fff"/><use xlink:href="#f" transform="matrix(1,0,0,1,-244.8086295082873,214.65745063936117) translate(15.012345679012345 17.77777777777778)"/><path d="M-209 128.17v24" stroke="#3a414a" stroke-linejoin="round" fill="none"/><path d="M-208.53 128.2h-.95v-.53h.95z" stroke="#3a414a" stroke-width=".05" fill="#3a414a"/><path d="M-209 166.94l-4.64-14.26h9.27z" stroke="#3a414a" fill="#3a414a"/><path d="M54.26 135.77H197.7v79.85H54.26z" stroke="#282c33" stroke-width="2" fill="#fff"/><use xlink:href="#g" transform="matrix(1,0,0,1,66.26266993822554,147.7739941559259) translate(8.858024691358025 21.27777777777778)"/><use xlink:href="#h" transform="matrix(1,0,0,1,66.26266993822554,147.7739941559259) translate(64.29012345679013 21.27777777777778)"/><use xlink:href="#e" transform="matrix(1,0,0,1,66.26266993822554,147.7739941559259) translate(30.462962962962965 47.94444444444444)"/><path d="M-159.7 186.1l48.94-.92 34.85-2.2 79.7-6.35L36.9 176" stroke="#3a414a" stroke-linejoin="round" fill="none"/><path d="M-159.68 186.57h-.53v-.94h.5z" stroke="#3a414a" stroke-width=".05" fill="#3a414a"/><path d="M51.65 175.73l-14.18 4.9-.18-9.27z" stroke="#3a414a" fill="#3a414a"/><path d="M-256.8 280.68h95.6v33.1h-95.6z" stroke="#282c33" stroke-width="2" fill="#fff"/><use xlink:href="#a" transform="matrix(1,0,0,1,-244.8086295077104,292.67987714953273) translate(14.395061728395063 17.77777777777778)"/><path d="M-256.8 313.78h95.6v33.1h-95.6z" stroke="#282c33" stroke-width="2" fill="#fff"/><use xlink:href="#f" transform="matrix(1,0,0,1,-244.8086295077104,325.77889009472165) translate(15.012345679012345 17.77777777777778)"/><path d="M54.26 243.88H197.7v79.85H54.26z" stroke="#282c33" stroke-width="2" fill="#fff"/><use xlink:href="#g" transform="matrix(1,0,0,1,66.26266993822554,255.8848973928116) translate(8.858024691358025 21.27777777777778)"/><use xlink:href="#h" transform="matrix(1,0,0,1,66.26266993822554,255.8848973928116) translate(64.29012345679013 21.27777777777778)"/><use xlink:href="#e" transform="matrix(1,0,0,1,66.26266993822554,255.8848973928116) translate(30.462962962962965 47.94444444444444)"/><path d="M-159.7 297.22l40.18-.77 27.94-1.74 104.15-10.1 24.3-.48" stroke="#3a414a" stroke-linejoin="round" fill="none"/><path d="M-159.68 297.7h-.53v-.95h.5z" stroke="#3a414a" stroke-width=".05" fill="#3a414a"/><path d="M51.65 283.84l-14.18 4.9-.18-9.26z" stroke="#3a414a" fill="#3a414a"/><path d="M-209 237.26v26.04" stroke="#3a414a" stroke-linejoin="round" fill="none"/><path d="M-208.53 237.27h-.95v-.5h.95z" stroke="#3a414a" stroke-width=".05" fill="#3a414a"/><path d="M-209 278.06l-4.64-14.26h9.27z" stroke="#3a414a" fill="#3a414a"/><path d="M-256.8 417.25h95.6v38.24h-95.6z" stroke="#282c33" stroke-width="2" fill="#fff"/><use xlink:href="#a" transform="matrix(1,0,0,1,-244.80862950968645,429.24588218465857) translate(14.395061728395063 17.77777777777778)"/><path d="M54.26 388.83H197.7v68.2H54.26z" stroke="#282c33" stroke-width="2" fill="#fff"/><use xlink:href="#i" transform="matrix(1,0,0,1,66.2626699368264,400.832610147964) translate(30.370370370370374 17.77777777777778)"/><use xlink:href="#j" transform="matrix(1,0,0,1,66.2626699368264,400.832610147964) translate(29.290123456790123 44.44444444444444)"/><path d="M-256.8 455.5h95.6v38.24h-95.6z" stroke="#282c33" stroke-width="2" fill="#fff"/><use xlink:href="#f" transform="matrix(1,0,0,1,-244.80862950968645,467.49019135447514) translate(15.012345679012345 17.77777777777778)"/><path d="M-159.7 436.36l40.14-.77 27.9-1.75L12.62 423.7l24.28-.46" stroke="#3a414a" stroke-linejoin="round" fill="none"/><path d="M-159.68 436.83h-.53v-.94l.5-.02z" stroke="#3a414a" stroke-width=".05" fill="#3a414a"/><path d="M51.65 422.96l-14.18 4.9-.18-9.26z" stroke="#3a414a" fill="#3a414a"/><path d="M-208.53 399.86h-.95v-17.08h.95zm0-38.42h-.95V348.4h.95z" stroke="#3a414a" stroke-width=".05" fill="#3a414a"/><path d="M-208.53 348.4h-.95v-.52h.95z" fill="#3a414a"/><path stroke="#3a414a" stroke-width=".05" fill="#3a414a"/><path d="M-209 414.63l-4.64-14.27h9.27z" fill="#3a414a"/><path d="M-209 416.17l-5.3-16.28h10.58zm-4-15.33l4 12.25 3.97-12.26z" stroke="#3a414a" stroke-width=".05" fill="#3a414a"/><use xlink:href="#k" transform="matrix(1,0,0,1,-216.41528837111187,361.4449085432062) translate(0 14.222222222222223)"/><path d="M-209 495.24v21.36" stroke="#3a414a" stroke-linejoin="round" fill="none"/><path d="M-208.53 495.25h-.95v-.5h.95z" stroke="#3a414a" stroke-width=".05" fill="#3a414a"/><path d="M-209 531.36l-4.64-14.26h9.27z" stroke="#3a414a" fill="#3a414a"/><path d="M-550.95 459.24h78.67v35.5h-78.67zM-550.95 423.74h78.67v35.5h-78.67zM-550.95 388.23h78.67v35.5h-78.67zM-550.95 352.73h78.67v35.5h-78.67zM-550.95 317.22h78.67v35.5h-78.67z" stroke="#282c33" stroke-width="2" fill="#fff"/><path d="M-550.95 293.83a6 6 0 0 1 6-6h66.67a6 6 0 0 1 6 6v17.4a6 6 0 0 1-6 6h-66.67a6 6 0 0 1-6-6z" stroke="#000" stroke-opacity="0" stroke-width="2" fill="#fff" fill-opacity="0"/><g><use xlink:href="#l" transform="matrix(1,0,0,1,-545.945098167994,292.8297028611262) translate(8.60493827160494 19.02777777777778)"/></g><defs><path fill="#3a414a" d="M85-194c31 0 48 13 60 33l-1-100h32l1 261h-30c-2-10 0-23-3-31C134-8 116 4 85 4 32 4 16-35 15-94c0-66 23-100 70-100zm9 24c-40 0-46 34-46 75 0 40 6 74 45 74 42 0 51-32 51-76 0-42-9-74-50-73" id="m"/><path fill="#3a414a" d="M141-36C126-15 110 5 73 4 37 3 15-17 15-53c-1-64 63-63 125-63 3-35-9-54-41-54-24 1-41 7-42 31l-33-3c5-37 33-52 76-52 45 0 72 20 72 64v82c-1 20 7 32 28 27v20c-31 9-61-2-59-35zM48-53c0 20 12 33 32 33 41-3 63-29 60-74-43 2-92-5-92 41" id="n"/><path fill="#3a414a" d="M59-47c-2 24 18 29 38 22v24C64 9 27 4 27-40v-127H5v-23h24l9-43h21v43h35v23H59v120" id="o"/><g id="a"><use transform="matrix(0.06172839506172839,0,0,0.06172839506172839,0,0)" xlink:href="#m"/><use transform="matrix(0.06172839506172839,0,0,0.06172839506172839,12.345679012345679,0)" xlink:href="#n"/><use transform="matrix(0.06172839506172839,0,0,0.06172839506172839,24.691358024691358,0)" xlink:href="#o"/><use transform="matrix(0.06172839506172839,0,0,0.06172839506172839,30.864197530864196,0)" xlink:href="#n"/></g><path fill="#3a414a" d="M205 0l-28-72H64L36 0H1l101-248h38L239 0h-34zm-38-99l-47-123c-12 45-31 82-46 123h93" id="p"/><path fill="#3a414a" d="M108 0H70L1-190h34L89-25l56-165h34" id="q"/><path fill="#3a414a" d="M24-231v-30h32v30H24zM24 0v-190h32V0H24" id="r"/><path fill="#3a414a" d="M24 0v-261h32V0H24" id="s"/><g id="b"><use transform="matrix(0.06172839506172839,0,0,0.06172839506172839,0,0)" xlink:href="#p"/><use transform="matrix(0.06172839506172839,0,0,0.06172839506172839,14.382716049382715,0)" xlink:href="#q"/><use transform="matrix(0.06172839506172839,0,0,0.06172839506172839,25.493827160493826,0)" xlink:href="#n"/><use transform="matrix(0.06172839506172839,0,0,0.06172839506172839,37.839506172839506,0)" xlink:href="#r"/><use transform="matrix(0.06172839506172839,0,0,0.06172839506172839,42.71604938271605,0)" xlink:href="#s"/></g><path fill="#3a414a" d="M114-163C36-179 61-72 57 0H25l-1-190h30c1 12-1 29 2 39 6-27 23-49 58-41v29" id="t"/><path fill="#3a414a" d="M100-194c63 0 86 42 84 106H49c0 40 14 67 53 68 26 1 43-12 49-29l28 8c-11 28-37 45-77 45C44 4 14-33 15-96c1-61 26-98 85-98zm52 81c6-60-76-77-97-28-3 7-6 17-6 28h103" id="u"/><path fill="#3a414a" d="M145-31C134-9 116 4 85 4 32 4 16-35 15-94c0-59 17-99 70-100 32-1 48 14 60 33 0-11-1-24 2-32h30l-1 268h-32zM93-21c41 0 51-33 51-76s-8-73-50-73c-40 0-46 35-46 75s5 74 45 74" id="v"/><path fill="#3a414a" d="M84 4C-5 8 30-112 23-190h32v120c0 31 7 50 39 49 72-2 45-101 50-169h31l1 190h-30c-1-10 1-25-2-33-11 22-28 36-60 37" id="w"/><path fill="#3a414a" d="M135-143c-3-34-86-38-87 0 15 53 115 12 119 90S17 21 10-45l28-5c4 36 97 45 98 0-10-56-113-15-118-90-4-57 82-63 122-42 12 7 21 19 24 35" id="x"/><g id="c"><use transform="matrix(0.06172839506172839,0,0,0.06172839506172839,0,0)" xlink:href="#t"/><use transform="matrix(0.06172839506172839,0,0,0.06172839506172839,7.345679012345679,0)" xlink:href="#u"/><use transform="matrix(0.06172839506172839,0,0,0.06172839506172839,19.691358024691358,0)" xlink:href="#v"/><use transform="matrix(0.06172839506172839,0,0,0.06172839506172839,32.03703703703704,0)" xlink:href="#w"/><use transform="matrix(0.06172839506172839,0,0,0.06172839506172839,44.382716049382715,0)" xlink:href="#u"/><use transform="matrix(0.06172839506172839,0,0,0.06172839506172839,56.72839506172839,0)" xlink:href="#x"/><use transform="matrix(0.06172839506172839,0,0,0.06172839506172839,67.8395061728395,0)" xlink:href="#o"/></g><path fill="#3a414a" d="M117-194c89-4 53 116 60 194h-32v-121c0-31-8-49-39-48C34-167 62-67 57 0H25l-1-190h30c1 10-1 24 2 32 11-22 29-35 61-36" id="y"/><path fill="#3a414a" d="M101-234c-31-9-42 10-38 44h38v23H63V0H32v-167H5v-23h27c-7-52 17-82 69-68v24" id="z"/><path fill="#3a414a" d="M100-194c62-1 85 37 85 99 1 63-27 99-86 99S16-35 15-95c0-66 28-99 85-99zM99-20c44 1 53-31 53-75 0-43-8-75-51-75s-53 32-53 75 10 74 51 75" id="A"/><g id="d"><use transform="matrix(0.06172839506172839,0,0,0.06172839506172839,0,0)" xlink:href="#r"/><use transform="matrix(0.06172839506172839,0,0,0.06172839506172839,4.876543209876543,0)" xlink:href="#y"/><use transform="matrix(0.06172839506172839,0,0,0.06172839506172839,17.22222222222222,0)" xlink:href="#z"/><use transform="matrix(0.06172839506172839,0,0,0.06172839506172839,23.39506172839506,0)" xlink:href="#A"/></g><path fill="#3a414a" d="M87 75C49 33 22-17 22-94c0-76 28-126 65-167h31c-38 41-64 92-64 168S80 34 118 75H87" id="B"/><path fill="#3a414a" d="M33-261c38 41 65 92 65 168S71 34 33 75H2C39 34 66-17 66-93S39-220 2-261h31" id="C"/><g id="e"><use transform="matrix(0.06172839506172839,0,0,0.06172839506172839,0,0)" xlink:href="#B"/><use transform="matrix(0.06172839506172839,0,0,0.06172839506172839,7.345679012345679,0)" xlink:href="#t"/><use transform="matrix(0.06172839506172839,0,0,0.06172839506172839,14.691358024691358,0)" xlink:href="#u"/><use transform="matrix(0.06172839506172839,0,0,0.06172839506172839,27.037037037037038,0)" xlink:href="#n"/><use transform="matrix(0.06172839506172839,0,0,0.06172839506172839,39.382716049382715,0)" xlink:href="#m"/><use transform="matrix(0.06172839506172839,0,0,0.06172839506172839,51.72839506172839,0)" xlink:href="#C"/></g><path fill="#3a414a" d="M141 0L90-78 38 0H4l68-98-65-92h35l48 74 47-74h35l-64 92 68 98h-35" id="D"/><g id="f"><use transform="matrix(0.06172839506172839,0,0,0.06172839506172839,0,0)" xlink:href="#y"/><use transform="matrix(0.06172839506172839,0,0,0.06172839506172839,12.345679012345679,0)" xlink:href="#u"/><use transform="matrix(0.06172839506172839,0,0,0.06172839506172839,24.691358024691358,0)" xlink:href="#D"/><use transform="matrix(0.06172839506172839,0,0,0.06172839506172839,35.80246913580247,0)" xlink:href="#o"/></g><path fill="#3a414a" d="M30-248c87 1 191-15 191 75 0 78-77 80-158 76V0H30v-248zm33 125c57 0 124 11 124-50 0-59-68-47-124-48v98" id="E"/><path fill="#3a414a" d="M212-179c-10-28-35-45-73-45-59 0-87 40-87 99 0 60 29 101 89 101 43 0 62-24 78-52l27 14C228-24 195 4 139 4 59 4 22-46 18-125c-6-104 99-153 187-111 19 9 31 26 39 46" id="F"/><path fill="#3a414a" d="M240 0l2-218c-23 76-54 145-80 218h-23L58-218 59 0H30v-248h44l77 211c21-75 51-140 76-211h43V0h-30" id="G"/><g id="g"><use transform="matrix(0.06172839506172839,0,0,0.06172839506172839,0,0)" xlink:href="#E"/><use transform="matrix(0.06172839506172839,0,0,0.06172839506172839,14.814814814814813,0)" xlink:href="#F"/><use transform="matrix(0.06172839506172839,0,0,0.06172839506172839,30.80246913580247,0)" xlink:href="#G"/></g><path fill="#3a414a" d="M30-248c118-7 216 8 213 122C240-48 200 0 122 0H30v-248zM63-27c89 8 146-16 146-99s-60-101-146-95v194" id="H"/><g id="h"><use transform="matrix(0.06172839506172839,0,0,0.06172839506172839,0,0)" xlink:href="#H"/><use transform="matrix(0.06172839506172839,0,0,0.06172839506172839,15.987654320987653,0)" xlink:href="#n"/><use transform="matrix(0.06172839506172839,0,0,0.06172839506172839,28.333333333333332,0)" xlink:href="#o"/><use transform="matrix(0.06172839506172839,0,0,0.06172839506172839,34.50617283950617,0)" xlink:href="#n"/></g><g id="i"><use transform="matrix(0.06172839506172839,0,0,0.06172839506172839,0,0)" xlink:href="#x"/><use transform="matrix(0.06172839506172839,0,0,0.06172839506172839,11.11111111111111,0)" xlink:href="#o"/><use transform="matrix(0.06172839506172839,0,0,0.06172839506172839,17.28395061728395,0)" xlink:href="#n"/><use transform="matrix(0.06172839506172839,0,0,0.06172839506172839,29.629629629629626,0)" xlink:href="#o"/><use transform="matrix(0.06172839506172839,0,0,0.06172839506172839,35.80246913580247,0)" xlink:href="#w"/><use transform="matrix(0.06172839506172839,0,0,0.06172839506172839,48.148148148148145,0)" xlink:href="#x"/></g><path fill="#3a414a" d="M206 0h-36l-40-164L89 0H53L-1-190h32L70-26l43-164h34l41 164 42-164h31" id="I"/><g id="j"><use transform="matrix(0.06172839506172839,0,0,0.06172839506172839,0,0)" xlink:href="#B"/><use transform="matrix(0.06172839506172839,0,0,0.06172839506172839,7.345679012345679,0)" xlink:href="#I"/><use transform="matrix(0.06172839506172839,0,0,0.06172839506172839,23.333333333333332,0)" xlink:href="#t"/><use transform="matrix(0.06172839506172839,0,0,0.06172839506172839,30.679012345679013,0)" xlink:href="#r"/><use transform="matrix(0.06172839506172839,0,0,0.06172839506172839,35.55555555555556,0)" xlink:href="#o"/><use transform="matrix(0.06172839506172839,0,0,0.06172839506172839,41.7283950617284,0)" xlink:href="#u"/><use transform="matrix(0.06172839506172839,0,0,0.06172839506172839,54.074074074074076,0)" xlink:href="#C"/></g><path fill="#333" d="M24 0v-54h51V0H24" id="J"/><g id="k"><use transform="matrix(0.04938271604938272,0,0,0.04938271604938272,0,0)" xlink:href="#J"/><use transform="matrix(0.04938271604938272,0,0,0.04938271604938272,4.938271604938272,0)" xlink:href="#J"/><use transform="matrix(0.04938271604938272,0,0,0.04938271604938272,9.876543209876544,0)" xlink:href="#J"/></g><path fill="#3a414a" d="M232-93c-1 65-40 97-104 97C67 4 28-28 28-90v-158h33c8 89-33 224 67 224 102 0 64-133 71-224h33v155" id="K"/><g id="l"><use transform="matrix(0.06172839506172839,0,0,0.06172839506172839,0,0)" xlink:href="#K"/><use transform="matrix(0.06172839506172839,0,0,0.06172839506172839,15.987654320987653,0)" xlink:href="#x"/><use transform="matrix(0.06172839506172839,0,0,0.06172839506172839,27.098765432098766,0)" xlink:href="#u"/><use transform="matrix(0.06172839506172839,0,0,0.06172839506172839,39.44444444444444,0)" xlink:href="#m"/></g></defs></g></svg>