<svg width="1075" height="1089" viewBox="0 0 1075 1089" fill="none" xmlns="http://www.w3.org/2000/svg">
<path d="M0 927L691 927" stroke="black" stroke-opacity="0.4" stroke-width="6" stroke-dasharray="16 16"/>
<path d="M1.66992 877.898H6.38086C6.60938 880.096 8.40234 881.361 11.2852 881.361C14.0273 881.361 15.7676 880.043 15.7676 877.986C15.7676 876.264 14.6426 875.35 11.707 874.699L9.07031 874.084C4.48242 873.047 2.23242 870.621 2.23242 866.859C2.23242 862.131 5.73047 859.125 11.2148 859.125C16.5234 859.125 20.0918 862.096 20.25 866.631H15.5391C15.3457 864.539 13.7461 863.256 11.2676 863.256C8.75391 863.256 7.18945 864.434 7.18945 866.332C7.18945 868.125 8.31445 869.109 11.0566 869.707L13.6582 870.305C18.5625 871.395 20.707 873.592 20.707 877.477C20.707 882.486 17.1211 885.51 11.1973 885.51C5.44922 885.51 1.8457 882.645 1.66992 877.898ZM43.1367 874.26C43.1367 881.309 39.4629 885.51 33.3809 885.51C27.2988 885.51 23.625 881.309 23.625 874.26V870.375C23.625 863.326 27.2988 859.125 33.3809 859.125C39.4629 859.125 43.1367 863.326 43.1367 870.375V874.26ZM33.3809 881.08C36.4395 881.08 38.0566 878.777 38.0566 874.207V870.428C38.0566 865.857 36.4395 863.555 33.3809 863.555C30.3223 863.555 28.7051 865.857 28.7051 870.428V874.207C28.7051 878.777 30.3223 881.08 33.3809 881.08ZM53.2969 885H48.2871V859.635H64.3184V863.941H53.2969V870.814H63.3164V874.945H53.2969V885ZM80.3848 885H75.3926V863.941H68.1328V859.635H87.6445V863.941H80.3848V885ZM100.283 870.059H100.002L97.3477 885H92.9531L89.0156 859.635H93.5508L94.5703 868.389L95.5723 878.408H95.8535L98.209 865.436H102.076L104.432 878.408H104.713L105.715 868.389L106.734 859.635H111.27L107.332 885H102.938L100.283 870.059ZM119.443 874.893H124.98L122.344 864.609H122.115L119.443 874.893ZM127.564 885L125.982 878.795H118.441L116.824 885H111.832L119.443 859.635H125.35L132.961 885H127.564ZM141.012 863.713V871.834H144.545C147.375 871.834 149.062 870.305 149.062 867.738C149.062 865.225 147.41 863.713 144.598 863.713H141.012ZM144.633 875.666H141.012V885H136.037V859.635H145.248C150.768 859.635 154.143 862.693 154.143 867.721C154.143 871.008 152.402 873.75 149.643 874.84L154.723 885H149.098L144.633 875.666ZM175.254 880.693V885H159.258V859.635H175.254V863.941H164.268V870.182H174.604V874.172H164.268V880.693H175.254Z" fill="black" fill-opacity="0.4"/>
<path d="M20.1797 989H15.2754V978.277H6.97852V989H2.07422V963.635H6.97852V973.971H15.2754V963.635H20.1797V989ZM30.4277 978.893H35.9648L33.3281 968.609H33.0996L30.4277 978.893ZM38.5488 989L36.9668 982.795H29.4258L27.8086 989H22.8164L30.4277 963.635H36.334L43.9453 989H38.5488ZM51.9961 967.713V975.834H55.5293C58.3594 975.834 60.0469 974.305 60.0469 971.738C60.0469 969.225 58.3945 967.713 55.582 967.713H51.9961ZM55.6172 979.666H51.9961V989H47.0215V963.635H56.2324C61.752 963.635 65.127 966.693 65.127 971.721C65.127 975.008 63.3867 977.75 60.627 978.84L65.707 989H60.082L55.6172 979.666ZM68.8887 963.635H77.0273C84.1289 963.635 87.8379 967.924 87.8379 976.133C87.8379 984.641 84.1816 989 77.0273 989H68.8887V963.635ZM73.8809 967.941V984.693H76.3418C80.7363 984.693 82.7402 982.057 82.7402 976.221C82.7402 970.631 80.666 967.941 76.3418 967.941H73.8809ZM100.283 974.059H100.002L97.3477 989H92.9531L89.0156 963.635H93.5508L94.5703 972.389L95.5723 982.408H95.8535L98.209 969.436H102.076L104.432 982.408H104.713L105.715 972.389L106.734 963.635H111.27L107.332 989H102.938L100.283 974.059ZM119.443 978.893H124.98L122.344 968.609H122.115L119.443 978.893ZM127.564 989L125.982 982.795H118.441L116.824 989H111.832L119.443 963.635H125.35L132.961 989H127.564ZM141.012 967.713V975.834H144.545C147.375 975.834 149.062 974.305 149.062 971.738C149.062 969.225 147.41 967.713 144.598 967.713H141.012ZM144.633 979.666H141.012V989H136.037V963.635H145.248C150.768 963.635 154.143 966.693 154.143 971.721C154.143 975.008 152.402 977.75 149.643 978.84L154.723 989H149.098L144.633 979.666ZM175.254 984.693V989H159.258V963.635H175.254V967.941H164.268V974.182H174.604V978.172H164.268V984.693H175.254Z" fill="black" fill-opacity="0.4"/>
<rect x="495" y="983" width="316" height="103" fill="black" stroke="black" stroke-width="6"/>
<path d="M531.034 1051V1016.09H554.557V1022.18H538.415V1030.49H553.347V1036.58H538.415V1044.91H554.625V1051H531.034ZM559.095 1022.18V1016.09H587.766V1022.18H577.078V1051H569.783V1022.18H559.095ZM592.487 1051V1016.09H599.868V1030.49H614.851V1016.09H622.214V1051H614.851V1036.58H599.868V1051H592.487ZM628.3 1051V1016.09H651.822V1022.18H635.68V1030.49H650.612V1036.58H635.68V1044.91H651.891V1051H628.3ZM657.69 1051V1016.09H671.463C674.099 1016.09 676.349 1016.56 678.213 1017.51C680.088 1018.44 681.514 1019.76 682.491 1021.48C683.48 1023.18 683.974 1025.19 683.974 1027.49C683.974 1029.81 683.474 1031.81 682.474 1033.48C681.474 1035.14 680.026 1036.41 678.128 1037.3C676.241 1038.18 673.957 1038.62 671.276 1038.62H662.054V1032.69H670.082C671.491 1032.69 672.662 1032.5 673.594 1032.11C674.526 1031.73 675.219 1031.15 675.673 1030.38C676.139 1029.6 676.372 1028.64 676.372 1027.49C676.372 1026.34 676.139 1025.36 675.673 1024.56C675.219 1023.77 674.52 1023.16 673.577 1022.76C672.645 1022.34 671.469 1022.12 670.048 1022.12H665.071V1051H657.69ZM676.543 1035.11L685.219 1051H677.071L668.582 1035.11H676.543ZM718.389 1016.09V1051H712.014L696.827 1029.03H696.571V1051H689.19V1016.09H695.668L710.736 1038.05H711.043V1016.09H718.389ZM724.487 1051V1016.09H748.01V1022.18H731.868V1030.49H746.8V1036.58H731.868V1044.91H748.078V1051H724.487ZM752.548 1022.18V1016.09H781.219V1022.18H770.531V1051H763.236V1022.18H752.548Z" fill="white"/>
<path d="M653 880L635.679 910L670.321 910L653 880ZM656 980L656 907L650 907L650 980L656 980Z" fill="black"/>
<path d="M653 680L635.679 710L670.321 710L653 680ZM656 780L656 707L650 707L650 780L656 780Z" fill="black"/>
<path d="M653 407L635.679 437L670.321 437L653 407ZM656 507L656 434L650 434L650 507L656 507Z" fill="black"/>
<path d="M709.869 941V911.909H715.139V924.224H728.619V911.909H733.903V941H728.619V928.642H715.139V941H709.869ZM745.686 941.44C744.304 941.44 743.058 941.194 741.95 940.702C740.852 940.2 739.981 939.461 739.337 938.486C738.702 937.51 738.385 936.308 738.385 934.878C738.385 933.647 738.612 932.629 739.067 931.824C739.521 931.019 740.142 930.375 740.928 929.892C741.714 929.409 742.599 929.045 743.584 928.798C744.578 928.543 745.606 928.358 746.666 928.244C747.945 928.112 748.982 927.993 749.777 927.889C750.572 927.776 751.15 927.605 751.51 927.378C751.879 927.141 752.064 926.777 752.064 926.284V926.199C752.064 925.129 751.747 924.3 751.112 923.713C750.478 923.126 749.564 922.832 748.371 922.832C747.111 922.832 746.112 923.107 745.374 923.656C744.644 924.205 744.152 924.854 743.896 925.602L739.095 924.92C739.474 923.595 740.099 922.487 740.97 921.597C741.841 920.697 742.907 920.025 744.166 919.58C745.426 919.125 746.818 918.898 748.342 918.898C749.393 918.898 750.44 919.021 751.482 919.267C752.523 919.513 753.475 919.92 754.337 920.489C755.198 921.047 755.89 921.81 756.411 922.776C756.941 923.741 757.206 924.949 757.206 926.398V941H752.263V938.003H752.092C751.78 938.609 751.339 939.177 750.771 939.707C750.213 940.228 749.507 940.65 748.655 940.972C747.812 941.284 746.822 941.44 745.686 941.44ZM747.021 937.662C748.054 937.662 748.948 937.458 749.706 937.051C750.464 936.634 751.046 936.085 751.453 935.403C751.87 934.722 752.078 933.978 752.078 933.173V930.602C751.917 930.735 751.643 930.858 751.254 930.972C750.875 931.085 750.449 931.185 749.976 931.27C749.502 931.355 749.034 931.431 748.57 931.497C748.106 931.563 747.703 931.62 747.362 931.668C746.595 931.772 745.909 931.942 745.303 932.179C744.696 932.416 744.218 932.747 743.868 933.173C743.518 933.59 743.342 934.13 743.342 934.793C743.342 935.74 743.688 936.455 744.379 936.938C745.071 937.42 745.951 937.662 747.021 937.662ZM762.376 941V919.182H767.362V922.818H767.589C767.987 921.559 768.669 920.588 769.635 919.906C770.61 919.215 771.723 918.869 772.973 918.869C773.257 918.869 773.574 918.884 773.925 918.912C774.285 918.931 774.583 918.964 774.82 919.011V923.741C774.602 923.666 774.256 923.599 773.783 923.543C773.319 923.476 772.869 923.443 772.433 923.443C771.496 923.443 770.653 923.647 769.905 924.054C769.166 924.452 768.584 925.006 768.158 925.716C767.732 926.426 767.518 927.245 767.518 928.173V941H762.376ZM785.434 941.384C783.72 941.384 782.186 940.943 780.832 940.062C779.478 939.182 778.407 937.903 777.621 936.227C776.835 934.551 776.442 932.515 776.442 930.119C776.442 927.695 776.84 925.65 777.636 923.983C778.441 922.307 779.525 921.043 780.888 920.19C782.252 919.329 783.772 918.898 785.448 918.898C786.727 918.898 787.778 919.116 788.602 919.551C789.425 919.977 790.079 920.493 790.562 921.099C791.045 921.696 791.419 922.259 791.684 922.79H791.897V911.909H797.053V941H791.996V937.562H791.684C791.419 938.093 791.035 938.656 790.533 939.253C790.031 939.84 789.369 940.342 788.545 940.759C787.721 941.175 786.684 941.384 785.434 941.384ZM786.869 937.165C787.958 937.165 788.886 936.871 789.653 936.284C790.42 935.687 791.002 934.859 791.4 933.798C791.798 932.738 791.996 931.502 791.996 930.091C791.996 928.68 791.798 927.454 791.4 926.412C791.012 925.37 790.434 924.561 789.667 923.983C788.909 923.405 787.977 923.116 786.869 923.116C785.723 923.116 784.766 923.415 783.999 924.011C783.232 924.608 782.655 925.432 782.266 926.483C781.878 927.534 781.684 928.737 781.684 930.091C781.684 931.455 781.878 932.671 782.266 933.741C782.664 934.802 783.246 935.64 784.013 936.256C784.79 936.862 785.742 937.165 786.869 937.165ZM807.036 941L800.871 919.182H806.112L809.947 934.523H810.146L814.067 919.182H819.251L823.172 934.438H823.385L827.163 919.182H832.419L826.24 941H820.885L816.794 926.256H816.496L812.405 941H807.036ZM842.288 941.44C840.905 941.44 839.66 941.194 838.552 940.702C837.453 940.2 836.582 939.461 835.938 938.486C835.304 937.51 834.987 936.308 834.987 934.878C834.987 933.647 835.214 932.629 835.668 931.824C836.123 931.019 836.743 930.375 837.529 929.892C838.315 929.409 839.201 929.045 840.185 928.798C841.18 928.543 842.207 928.358 843.268 928.244C844.546 928.112 845.583 927.993 846.379 927.889C847.174 927.776 847.752 927.605 848.112 927.378C848.481 927.141 848.665 926.777 848.665 926.284V926.199C848.665 925.129 848.348 924.3 847.714 923.713C847.079 923.126 846.165 922.832 844.972 922.832C843.713 922.832 842.714 923.107 841.975 923.656C841.246 924.205 840.754 924.854 840.498 925.602L835.697 924.92C836.076 923.595 836.701 922.487 837.572 921.597C838.443 920.697 839.508 920.025 840.768 919.58C842.027 919.125 843.419 918.898 844.944 918.898C845.995 918.898 847.041 919.021 848.083 919.267C849.125 919.513 850.076 919.92 850.938 920.489C851.8 921.047 852.491 921.81 853.012 922.776C853.542 923.741 853.808 924.949 853.808 926.398V941H848.864V938.003H848.694C848.381 938.609 847.941 939.177 847.373 939.707C846.814 940.228 846.109 940.65 845.256 940.972C844.414 941.284 843.424 941.44 842.288 941.44ZM843.623 937.662C844.655 937.662 845.55 937.458 846.308 937.051C847.065 936.634 847.647 936.085 848.055 935.403C848.471 934.722 848.68 933.978 848.68 933.173V930.602C848.519 930.735 848.244 930.858 847.856 930.972C847.477 931.085 847.051 931.185 846.577 931.27C846.104 931.355 845.635 931.431 845.171 931.497C844.707 931.563 844.305 931.62 843.964 931.668C843.197 931.772 842.51 931.942 841.904 932.179C841.298 932.416 840.82 932.747 840.469 933.173C840.119 933.59 839.944 934.13 839.944 934.793C839.944 935.74 840.29 936.455 840.981 936.938C841.672 937.42 842.553 937.662 843.623 937.662ZM858.978 941V919.182H863.964V922.818H864.191C864.589 921.559 865.271 920.588 866.237 919.906C867.212 919.215 868.325 918.869 869.575 918.869C869.859 918.869 870.176 918.884 870.526 918.912C870.886 918.931 871.184 918.964 871.421 919.011V923.741C871.203 923.666 870.858 923.599 870.384 923.543C869.92 923.476 869.47 923.443 869.035 923.443C868.097 923.443 867.254 923.647 866.506 924.054C865.768 924.452 865.185 925.006 864.759 925.716C864.333 926.426 864.12 927.245 864.12 928.173V941H858.978ZM883.598 941.426C881.411 941.426 879.521 940.972 877.93 940.062C876.349 939.144 875.132 937.847 874.28 936.17C873.428 934.485 873.001 932.501 873.001 930.219C873.001 927.974 873.428 926.005 874.28 924.31C875.142 922.605 876.344 921.279 877.888 920.332C879.431 919.376 881.245 918.898 883.328 918.898C884.673 918.898 885.942 919.116 887.135 919.551C888.338 919.977 889.398 920.64 890.317 921.54C891.245 922.439 891.974 923.585 892.504 924.977C893.035 926.36 893.3 928.008 893.3 929.92V931.497H875.416V928.031H888.371C888.361 927.046 888.148 926.17 887.732 925.403C887.315 924.627 886.732 924.016 885.984 923.571C885.246 923.126 884.384 922.903 883.399 922.903C882.348 922.903 881.425 923.159 880.629 923.67C879.834 924.172 879.214 924.835 878.768 925.659C878.333 926.473 878.11 927.368 878.101 928.344V931.369C878.101 932.638 878.333 933.727 878.797 934.636C879.261 935.536 879.91 936.227 880.743 936.71C881.576 937.184 882.552 937.42 883.669 937.42C884.417 937.42 885.094 937.316 885.7 937.108C886.306 936.89 886.832 936.573 887.277 936.156C887.722 935.74 888.058 935.223 888.286 934.608L893.087 935.148C892.784 936.417 892.206 937.525 891.354 938.472C890.511 939.409 889.431 940.138 888.115 940.659C886.799 941.17 885.293 941.426 883.598 941.426ZM907.572 941V919.182H912.714V941H907.572ZM910.157 916.085C909.343 916.085 908.642 915.815 908.055 915.276C907.468 914.726 907.174 914.068 907.174 913.301C907.174 912.525 907.468 911.866 908.055 911.327C908.642 910.777 909.343 910.503 910.157 910.503C910.981 910.503 911.682 910.777 912.259 911.327C912.846 911.866 913.14 912.525 913.14 913.301C913.14 914.068 912.846 914.726 912.259 915.276C911.682 915.815 910.981 916.085 910.157 916.085ZM923.143 928.216V941H918.001V919.182H922.916V922.889H923.172C923.674 921.668 924.474 920.697 925.572 919.977C926.68 919.258 928.049 918.898 929.678 918.898C931.183 918.898 932.495 919.22 933.612 919.864C934.739 920.508 935.61 921.44 936.226 922.662C936.851 923.884 937.159 925.366 937.149 927.108V941H932.007V927.903C932.007 926.445 931.628 925.304 930.871 924.48C930.123 923.656 929.086 923.244 927.76 923.244C926.86 923.244 926.06 923.443 925.359 923.841C924.668 924.229 924.124 924.793 923.726 925.531C923.338 926.27 923.143 927.165 923.143 928.216ZM953.271 919.182V923.159H940.729V919.182H953.271ZM943.825 913.955H948.967V934.438C948.967 935.129 949.071 935.659 949.28 936.028C949.498 936.388 949.782 936.634 950.132 936.767C950.482 936.9 950.871 936.966 951.297 936.966C951.619 936.966 951.912 936.942 952.178 936.895C952.452 936.848 952.661 936.805 952.803 936.767L953.669 940.787C953.394 940.882 953.001 940.986 952.49 941.099C951.988 941.213 951.373 941.279 950.643 941.298C949.356 941.336 948.196 941.142 947.163 940.716C946.131 940.28 945.312 939.608 944.706 938.699C944.109 937.79 943.816 936.653 943.825 935.29V913.955ZM966.996 941.426C964.809 941.426 962.92 940.972 961.329 940.062C959.747 939.144 958.531 937.847 957.678 936.17C956.826 934.485 956.4 932.501 956.4 930.219C956.4 927.974 956.826 926.005 957.678 924.31C958.54 922.605 959.743 921.279 961.286 920.332C962.83 919.376 964.643 918.898 966.727 918.898C968.071 918.898 969.34 919.116 970.533 919.551C971.736 919.977 972.797 920.64 973.715 921.54C974.643 922.439 975.372 923.585 975.903 924.977C976.433 926.36 976.698 928.008 976.698 929.92V931.497H958.815V928.031H971.769C971.76 927.046 971.547 926.17 971.13 925.403C970.713 924.627 970.131 924.016 969.383 923.571C968.644 923.126 967.782 922.903 966.798 922.903C965.746 922.903 964.823 923.159 964.028 923.67C963.232 924.172 962.612 924.835 962.167 925.659C961.731 926.473 961.509 927.368 961.499 928.344V931.369C961.499 932.638 961.731 933.727 962.195 934.636C962.659 935.536 963.308 936.227 964.141 936.71C964.975 937.184 965.95 937.42 967.067 937.42C967.816 937.42 968.493 937.316 969.099 937.108C969.705 936.89 970.23 936.573 970.675 936.156C971.121 935.74 971.457 935.223 971.684 934.608L976.485 935.148C976.182 936.417 975.604 937.525 974.752 938.472C973.909 939.409 972.83 940.138 971.513 940.659C970.197 941.17 968.692 941.426 966.996 941.426ZM981.048 941V919.182H986.034V922.818H986.261C986.659 921.559 987.341 920.588 988.307 919.906C989.282 919.215 990.395 918.869 991.645 918.869C991.929 918.869 992.246 918.884 992.597 918.912C992.956 918.931 993.255 918.964 993.491 919.011V923.741C993.274 923.666 992.928 923.599 992.455 923.543C991.991 923.476 991.541 923.443 991.105 923.443C990.168 923.443 989.325 923.647 988.577 924.054C987.838 924.452 987.256 925.006 986.83 925.716C986.403 926.426 986.19 927.245 986.19 928.173V941H981.048ZM996.908 941V919.182H1001.89V922.818H1002.12C1002.52 921.559 1003.2 920.588 1004.17 919.906C1005.14 919.215 1006.25 918.869 1007.5 918.869C1007.79 918.869 1008.11 918.884 1008.46 918.912C1008.82 918.931 1009.11 918.964 1009.35 919.011V923.741C1009.13 923.666 1008.79 923.599 1008.31 923.543C1007.85 923.476 1007.4 923.443 1006.96 923.443C1006.03 923.443 1005.18 923.647 1004.44 924.054C1003.7 924.452 1003.12 925.006 1002.69 925.716C1002.26 926.426 1002.05 927.245 1002.05 928.173V941H996.908ZM1026.67 931.824V919.182H1031.82V941H1026.83V937.122H1026.6C1026.11 938.344 1025.3 939.343 1024.17 940.119C1023.06 940.896 1021.68 941.284 1020.04 941.284C1018.61 941.284 1017.35 940.967 1016.25 940.332C1015.16 939.688 1014.31 938.756 1013.69 937.534C1013.07 936.303 1012.77 934.816 1012.77 933.074V919.182H1017.91V932.278C1017.91 933.661 1018.29 934.759 1019.05 935.574C1019.8 936.388 1020.8 936.795 1022.03 936.795C1022.79 936.795 1023.52 936.611 1024.23 936.241C1024.94 935.872 1025.52 935.323 1025.98 934.594C1026.44 933.855 1026.67 932.932 1026.67 931.824ZM1037.1 949.182V919.182H1042.16V922.79H1042.46C1042.72 922.259 1043.1 921.696 1043.58 921.099C1044.06 920.493 1044.72 919.977 1045.54 919.551C1046.36 919.116 1047.42 918.898 1048.69 918.898C1050.38 918.898 1051.9 919.329 1053.25 920.19C1054.62 921.043 1055.7 922.307 1056.49 923.983C1057.3 925.65 1057.7 927.695 1057.7 930.119C1057.7 932.515 1057.31 934.551 1056.52 936.227C1055.73 937.903 1054.66 939.182 1053.31 940.062C1051.96 940.943 1050.42 941.384 1048.71 941.384C1047.46 941.384 1046.42 941.175 1045.6 940.759C1044.77 940.342 1044.11 939.84 1043.61 939.253C1043.12 938.656 1042.73 938.093 1042.46 937.562H1042.25V949.182H1037.1ZM1042.15 930.091C1042.15 931.502 1042.34 932.738 1042.74 933.798C1043.15 934.859 1043.73 935.687 1044.49 936.284C1045.26 936.871 1046.18 937.165 1047.27 937.165C1048.41 937.165 1049.36 936.862 1050.13 936.256C1050.9 935.64 1051.47 934.802 1051.86 933.741C1052.26 932.671 1052.46 931.455 1052.46 930.091C1052.46 928.737 1052.26 927.534 1051.88 926.483C1051.49 925.432 1050.91 924.608 1050.14 924.011C1049.38 923.415 1048.42 923.116 1047.27 923.116C1046.17 923.116 1045.24 923.405 1044.48 923.983C1043.71 924.561 1043.13 925.37 1042.73 926.412C1042.34 927.454 1042.15 928.68 1042.15 930.091ZM1073 919.182V923.159H1060.46V919.182H1073ZM1063.55 913.955H1068.69V934.438C1068.69 935.129 1068.8 935.659 1069.01 936.028C1069.22 936.388 1069.51 936.634 1069.86 936.767C1070.21 936.9 1070.6 936.966 1071.02 936.966C1071.35 936.966 1071.64 936.942 1071.9 936.895C1072.18 936.848 1072.39 936.805 1072.53 936.767L1073.4 940.787C1073.12 940.882 1072.73 940.986 1072.22 941.099C1071.71 941.213 1071.1 941.279 1070.37 941.298C1069.08 941.336 1067.92 941.142 1066.89 940.716C1065.86 940.28 1065.04 939.608 1064.43 938.699C1063.84 937.79 1063.54 936.653 1063.55 935.29V913.955Z" fill="black"/>
<path d="M737.776 705.909V735H733.088L719.381 715.185H719.139V735H713.869V705.909H718.585L732.278 725.739H732.534V705.909H737.776ZM752.808 735.426C750.677 735.426 748.83 734.957 747.268 734.02C745.705 733.082 744.493 731.771 743.631 730.085C742.779 728.4 742.353 726.43 742.353 724.176C742.353 721.922 742.779 719.948 743.631 718.253C744.493 716.558 745.705 715.241 747.268 714.304C748.83 713.366 750.677 712.898 752.808 712.898C754.938 712.898 756.785 713.366 758.347 714.304C759.91 715.241 761.117 716.558 761.969 718.253C762.831 719.948 763.262 721.922 763.262 724.176C763.262 726.43 762.831 728.4 761.969 730.085C761.117 731.771 759.91 733.082 758.347 734.02C756.785 734.957 754.938 735.426 752.808 735.426ZM752.836 731.307C753.991 731.307 754.957 730.99 755.734 730.355C756.51 729.711 757.088 728.849 757.467 727.77C757.855 726.69 758.049 725.488 758.049 724.162C758.049 722.827 757.855 721.619 757.467 720.54C757.088 719.451 756.51 718.584 755.734 717.94C754.957 717.296 753.991 716.974 752.836 716.974C751.652 716.974 750.667 717.296 749.881 717.94C749.105 718.584 748.522 719.451 748.134 720.54C747.755 721.619 747.566 722.827 747.566 724.162C747.566 725.488 747.755 726.69 748.134 727.77C748.522 728.849 749.105 729.711 749.881 730.355C750.667 730.99 751.652 731.307 752.836 731.307ZM778.521 713.182V717.159H765.979V713.182H778.521ZM769.075 707.955H774.217V728.438C774.217 729.129 774.321 729.659 774.53 730.028C774.748 730.388 775.032 730.634 775.382 730.767C775.732 730.9 776.121 730.966 776.547 730.966C776.869 730.966 777.162 730.942 777.428 730.895C777.702 730.848 777.911 730.805 778.053 730.767L778.919 734.787C778.644 734.882 778.251 734.986 777.74 735.099C777.238 735.213 776.623 735.279 775.893 735.298C774.606 735.336 773.446 735.142 772.413 734.716C771.381 734.28 770.562 733.608 769.956 732.699C769.359 731.79 769.066 730.653 769.075 729.29V707.955ZM782.822 735V713.182H787.964V735H782.822ZM785.407 710.085C784.593 710.085 783.892 709.815 783.305 709.276C782.718 708.726 782.424 708.068 782.424 707.301C782.424 706.525 782.718 705.866 783.305 705.327C783.892 704.777 784.593 704.503 785.407 704.503C786.231 704.503 786.932 704.777 787.509 705.327C788.096 705.866 788.39 706.525 788.39 707.301C788.39 708.068 788.096 708.726 787.509 709.276C786.932 709.815 786.231 710.085 785.407 710.085ZM804.303 713.182V717.159H791.405V713.182H804.303ZM794.629 735V711.122C794.629 709.654 794.932 708.433 795.538 707.457C796.154 706.482 796.978 705.753 798.01 705.27C799.042 704.787 800.188 704.545 801.447 704.545C802.338 704.545 803.128 704.616 803.82 704.759C804.511 704.901 805.022 705.028 805.354 705.142L804.331 709.119C804.113 709.053 803.839 708.987 803.507 708.92C803.176 708.845 802.806 708.807 802.399 708.807C801.443 708.807 800.766 709.039 800.368 709.503C799.98 709.957 799.786 710.611 799.786 711.463V735H794.629ZM808.33 735V713.182H813.472V735H808.33ZM810.915 710.085C810.1 710.085 809.4 709.815 808.812 709.276C808.225 708.726 807.932 708.068 807.932 707.301C807.932 706.525 808.225 705.866 808.812 705.327C809.4 704.777 810.1 704.503 810.915 704.503C811.739 704.503 812.439 704.777 813.017 705.327C813.604 705.866 813.898 706.525 813.898 707.301C813.898 708.068 813.604 708.726 813.017 709.276C812.439 709.815 811.739 710.085 810.915 710.085ZM828.276 735.426C826.098 735.426 824.228 734.948 822.665 733.991C821.112 733.035 819.915 731.714 819.072 730.028C818.238 728.333 817.822 726.383 817.822 724.176C817.822 721.96 818.248 720.005 819.1 718.31C819.952 716.605 821.155 715.279 822.708 714.332C824.271 713.376 826.117 712.898 828.248 712.898C830.019 712.898 831.586 713.224 832.95 713.878C834.323 714.522 835.416 715.436 836.231 716.619C837.045 717.794 837.509 719.167 837.623 720.739H832.708C832.509 719.687 832.036 718.812 831.288 718.111C830.549 717.401 829.559 717.045 828.319 717.045C827.268 717.045 826.344 717.33 825.549 717.898C824.754 718.456 824.133 719.261 823.688 720.312C823.253 721.364 823.035 722.623 823.035 724.091C823.035 725.578 823.253 726.856 823.688 727.926C824.124 728.987 824.735 729.806 825.521 730.384C826.316 730.952 827.249 731.236 828.319 731.236C829.076 731.236 829.754 731.094 830.35 730.81C830.956 730.516 831.463 730.095 831.87 729.545C832.277 728.996 832.557 728.329 832.708 727.543H837.623C837.5 729.086 837.045 730.455 836.259 731.648C835.473 732.831 834.403 733.759 833.049 734.432C831.695 735.095 830.104 735.426 828.276 735.426ZM848.124 735.44C846.741 735.44 845.496 735.194 844.388 734.702C843.289 734.2 842.418 733.461 841.774 732.486C841.14 731.51 840.822 730.308 840.822 728.878C840.822 727.647 841.05 726.629 841.504 725.824C841.959 725.019 842.579 724.375 843.365 723.892C844.151 723.409 845.036 723.045 846.021 722.798C847.016 722.543 848.043 722.358 849.104 722.244C850.382 722.112 851.419 721.993 852.214 721.889C853.01 721.776 853.588 721.605 853.947 721.378C854.317 721.141 854.501 720.777 854.501 720.284V720.199C854.501 719.129 854.184 718.3 853.55 717.713C852.915 717.126 852.001 716.832 850.808 716.832C849.549 716.832 848.55 717.107 847.811 717.656C847.082 718.205 846.589 718.854 846.334 719.602L841.533 718.92C841.911 717.595 842.536 716.487 843.408 715.597C844.279 714.697 845.344 714.025 846.604 713.58C847.863 713.125 849.255 712.898 850.78 712.898C851.831 712.898 852.877 713.021 853.919 713.267C854.961 713.513 855.912 713.92 856.774 714.489C857.636 715.047 858.327 715.81 858.848 716.776C859.378 717.741 859.643 718.949 859.643 720.398V735H854.7V732.003H854.53C854.217 732.609 853.777 733.177 853.209 733.707C852.65 734.228 851.945 734.65 851.092 734.972C850.25 735.284 849.26 735.44 848.124 735.44ZM849.459 731.662C850.491 731.662 851.386 731.458 852.143 731.051C852.901 730.634 853.483 730.085 853.891 729.403C854.307 728.722 854.516 727.978 854.516 727.173V724.602C854.355 724.735 854.08 724.858 853.692 724.972C853.313 725.085 852.887 725.185 852.413 725.27C851.94 725.355 851.471 725.431 851.007 725.497C850.543 725.563 850.141 725.62 849.8 725.668C849.033 725.772 848.346 725.942 847.74 726.179C847.134 726.416 846.656 726.747 846.305 727.173C845.955 727.59 845.78 728.13 845.78 728.793C845.78 729.74 846.125 730.455 846.817 730.938C847.508 731.42 848.389 731.662 849.459 731.662ZM875.709 713.182V717.159H863.166V713.182H875.709ZM866.263 707.955H871.405V728.438C871.405 729.129 871.509 729.659 871.717 730.028C871.935 730.388 872.219 730.634 872.57 730.767C872.92 730.9 873.308 730.966 873.734 730.966C874.056 730.966 874.35 730.942 874.615 730.895C874.89 730.848 875.098 730.805 875.24 730.767L876.107 734.787C875.832 734.882 875.439 734.986 874.928 735.099C874.426 735.213 873.81 735.279 873.081 735.298C871.793 735.336 870.633 735.142 869.601 734.716C868.569 734.28 867.75 733.608 867.143 732.699C866.547 731.79 866.253 730.653 866.263 729.29V707.955ZM880.009 735V713.182H885.151V735H880.009ZM882.594 710.085C881.78 710.085 881.079 709.815 880.492 709.276C879.905 708.726 879.612 708.068 879.612 707.301C879.612 706.525 879.905 705.866 880.492 705.327C881.079 704.777 881.78 704.503 882.594 704.503C883.418 704.503 884.119 704.777 884.697 705.327C885.284 705.866 885.577 706.525 885.577 707.301C885.577 708.068 885.284 708.726 884.697 709.276C884.119 709.815 883.418 710.085 882.594 710.085ZM899.956 735.426C897.825 735.426 895.979 734.957 894.416 734.02C892.854 733.082 891.642 731.771 890.78 730.085C889.928 728.4 889.501 726.43 889.501 724.176C889.501 721.922 889.928 719.948 890.78 718.253C891.642 716.558 892.854 715.241 894.416 714.304C895.979 713.366 897.825 712.898 899.956 712.898C902.087 712.898 903.933 713.366 905.496 714.304C907.058 715.241 908.266 716.558 909.118 718.253C909.98 719.948 910.411 721.922 910.411 724.176C910.411 726.43 909.98 728.4 909.118 730.085C908.266 731.771 907.058 733.082 905.496 734.02C903.933 734.957 902.087 735.426 899.956 735.426ZM899.984 731.307C901.14 731.307 902.106 730.99 902.882 730.355C903.659 729.711 904.236 728.849 904.615 727.77C905.003 726.69 905.197 725.488 905.197 724.162C905.197 722.827 905.003 721.619 904.615 720.54C904.236 719.451 903.659 718.584 902.882 717.94C902.106 717.296 901.14 716.974 899.984 716.974C898.801 716.974 897.816 717.296 897.03 717.94C896.253 718.584 895.671 719.451 895.283 720.54C894.904 721.619 894.714 722.827 894.714 724.162C894.714 725.488 894.904 726.69 895.283 727.77C895.671 728.849 896.253 729.711 897.03 730.355C897.816 730.99 898.801 731.307 899.984 731.307ZM919.917 722.216V735H914.775V713.182H919.69V716.889H919.945C920.447 715.668 921.247 714.697 922.346 713.977C923.454 713.258 924.822 712.898 926.451 712.898C927.957 712.898 929.268 713.22 930.386 713.864C931.513 714.508 932.384 715.44 932.999 716.662C933.624 717.884 933.932 719.366 933.923 721.108V735H928.781V721.903C928.781 720.445 928.402 719.304 927.644 718.48C926.896 717.656 925.859 717.244 924.533 717.244C923.634 717.244 922.834 717.443 922.133 717.841C921.442 718.229 920.897 718.793 920.499 719.531C920.111 720.27 919.917 721.165 919.917 722.216Z" fill="black"/>
<path d="M717.761 442.909L725.332 465.807H725.631L733.188 442.909H738.983L728.727 472H722.222L711.98 442.909H717.761ZM742.587 472V450.182H747.729V472H742.587ZM745.173 447.085C744.358 447.085 743.657 446.815 743.07 446.276C742.483 445.726 742.19 445.068 742.19 444.301C742.19 443.525 742.483 442.866 743.07 442.327C743.657 441.777 744.358 441.503 745.173 441.503C745.996 441.503 746.697 441.777 747.275 442.327C747.862 442.866 748.156 443.525 748.156 444.301C748.156 445.068 747.862 445.726 747.275 446.276C746.697 446.815 745.996 447.085 745.173 447.085ZM753.017 472V450.182H758.003V453.818H758.23C758.628 452.559 759.31 451.588 760.276 450.906C761.251 450.215 762.364 449.869 763.614 449.869C763.898 449.869 764.215 449.884 764.565 449.912C764.925 449.931 765.223 449.964 765.46 450.011V454.741C765.242 454.666 764.897 454.599 764.423 454.543C763.959 454.476 763.509 454.443 763.074 454.443C762.136 454.443 761.294 454.647 760.545 455.054C759.807 455.452 759.224 456.006 758.798 456.716C758.372 457.426 758.159 458.245 758.159 459.173V472H753.017ZM780.943 450.182V454.159H768.401V450.182H780.943ZM771.497 444.955H776.639V465.438C776.639 466.129 776.743 466.659 776.952 467.028C777.17 467.388 777.454 467.634 777.804 467.767C778.154 467.9 778.543 467.966 778.969 467.966C779.291 467.966 779.584 467.942 779.849 467.895C780.124 467.848 780.332 467.805 780.474 467.767L781.341 471.787C781.066 471.882 780.673 471.986 780.162 472.099C779.66 472.213 779.045 472.279 778.315 472.298C777.027 472.336 775.867 472.142 774.835 471.716C773.803 471.28 772.984 470.608 772.378 469.699C771.781 468.79 771.488 467.653 771.497 466.29V444.955ZM799.15 462.824V450.182H804.292V472H799.306V468.122H799.079C798.586 469.344 797.777 470.343 796.65 471.119C795.532 471.896 794.155 472.284 792.516 472.284C791.086 472.284 789.822 471.967 788.724 471.332C787.635 470.688 786.782 469.756 786.167 468.534C785.551 467.303 785.244 465.816 785.244 464.074V450.182H790.386V463.278C790.386 464.661 790.764 465.759 791.522 466.574C792.28 467.388 793.274 467.795 794.505 467.795C795.263 467.795 795.996 467.611 796.707 467.241C797.417 466.872 797.999 466.323 798.454 465.594C798.918 464.855 799.15 463.932 799.15 462.824ZM815.858 472.44C814.475 472.44 813.23 472.194 812.122 471.702C811.024 471.2 810.152 470.461 809.509 469.486C808.874 468.51 808.557 467.308 808.557 465.878C808.557 464.647 808.784 463.629 809.239 462.824C809.693 462.019 810.313 461.375 811.099 460.892C811.885 460.409 812.771 460.045 813.756 459.798C814.75 459.543 815.777 459.358 816.838 459.244C818.116 459.112 819.153 458.993 819.949 458.889C820.744 458.776 821.322 458.605 821.682 458.378C822.051 458.141 822.236 457.777 822.236 457.284V457.199C822.236 456.129 821.919 455.3 821.284 454.713C820.65 454.126 819.736 453.832 818.543 453.832C817.283 453.832 816.284 454.107 815.545 454.656C814.816 455.205 814.324 455.854 814.068 456.602L809.267 455.92C809.646 454.595 810.271 453.487 811.142 452.597C812.013 451.697 813.079 451.025 814.338 450.58C815.598 450.125 816.99 449.898 818.514 449.898C819.565 449.898 820.612 450.021 821.653 450.267C822.695 450.513 823.647 450.92 824.509 451.489C825.37 452.047 826.062 452.81 826.582 453.776C827.113 454.741 827.378 455.949 827.378 457.398V472H822.435V469.003H822.264C821.952 469.609 821.511 470.177 820.943 470.707C820.384 471.228 819.679 471.65 818.827 471.972C817.984 472.284 816.994 472.44 815.858 472.44ZM817.193 468.662C818.225 468.662 819.12 468.458 819.878 468.051C820.635 467.634 821.218 467.085 821.625 466.403C822.042 465.722 822.25 464.978 822.25 464.173V461.602C822.089 461.735 821.814 461.858 821.426 461.972C821.047 462.085 820.621 462.185 820.148 462.27C819.674 462.355 819.205 462.431 818.741 462.497C818.277 462.563 817.875 462.62 817.534 462.668C816.767 462.772 816.08 462.942 815.474 463.179C814.868 463.416 814.39 463.747 814.04 464.173C813.689 464.59 813.514 465.13 813.514 465.793C813.514 466.74 813.86 467.455 814.551 467.938C815.242 468.42 816.123 468.662 817.193 468.662ZM837.69 442.909V472H832.548V442.909H837.69ZM852.9 472V450.182H858.042V472H852.9ZM855.485 447.085C854.671 447.085 853.97 446.815 853.383 446.276C852.796 445.726 852.502 445.068 852.502 444.301C852.502 443.525 852.796 442.866 853.383 442.327C853.97 441.777 854.671 441.503 855.485 441.503C856.309 441.503 857.01 441.777 857.587 442.327C858.174 442.866 858.468 443.525 858.468 444.301C858.468 445.068 858.174 445.726 857.587 446.276C857.01 446.815 856.309 447.085 855.485 447.085ZM868.472 459.216V472H863.33V450.182H868.244V453.889H868.5C869.002 452.668 869.802 451.697 870.901 450.977C872.009 450.258 873.377 449.898 875.006 449.898C876.511 449.898 877.823 450.22 878.94 450.864C880.067 451.508 880.938 452.44 881.554 453.662C882.179 454.884 882.487 456.366 882.477 458.108V472H877.335V458.903C877.335 457.445 876.956 456.304 876.199 455.48C875.451 454.656 874.414 454.244 873.088 454.244C872.188 454.244 871.388 454.443 870.688 454.841C869.996 455.229 869.452 455.793 869.054 456.531C868.666 457.27 868.472 458.165 868.472 459.216ZM898.599 450.182V454.159H886.057V450.182H898.599ZM889.153 444.955H894.295V465.438C894.295 466.129 894.4 466.659 894.608 467.028C894.826 467.388 895.11 467.634 895.46 467.767C895.811 467.9 896.199 467.966 896.625 467.966C896.947 467.966 897.241 467.942 897.506 467.895C897.78 467.848 897.989 467.805 898.131 467.767L898.997 471.787C898.723 471.882 898.33 471.986 897.818 472.099C897.316 472.213 896.701 472.279 895.972 472.298C894.684 472.336 893.524 472.142 892.491 471.716C891.459 471.28 890.64 470.608 890.034 469.699C889.438 468.79 889.144 467.653 889.153 466.29V444.955ZM912.325 472.426C910.137 472.426 908.248 471.972 906.657 471.062C905.076 470.144 903.859 468.847 903.006 467.17C902.154 465.485 901.728 463.501 901.728 461.219C901.728 458.974 902.154 457.005 903.006 455.31C903.868 453.605 905.071 452.279 906.614 451.332C908.158 450.376 909.971 449.898 912.055 449.898C913.399 449.898 914.668 450.116 915.862 450.551C917.064 450.977 918.125 451.64 919.043 452.54C919.971 453.439 920.701 454.585 921.231 455.977C921.761 457.36 922.026 459.008 922.026 460.92V462.497H904.143V459.031H917.097C917.088 458.046 916.875 457.17 916.458 456.403C916.041 455.627 915.459 455.016 914.711 454.571C913.972 454.126 913.111 453.903 912.126 453.903C911.075 453.903 910.151 454.159 909.356 454.67C908.56 455.172 907.94 455.835 907.495 456.659C907.059 457.473 906.837 458.368 906.827 459.344V462.369C906.827 463.638 907.059 464.727 907.523 465.636C907.987 466.536 908.636 467.227 909.469 467.71C910.303 468.184 911.278 468.42 912.396 468.42C913.144 468.42 913.821 468.316 914.427 468.108C915.033 467.89 915.558 467.573 916.004 467.156C916.449 466.74 916.785 466.223 917.012 465.608L921.813 466.148C921.51 467.417 920.933 468.525 920.08 469.472C919.237 470.409 918.158 471.138 916.842 471.659C915.525 472.17 914.02 472.426 912.325 472.426ZM926.376 472V450.182H931.362V453.818H931.589C931.987 452.559 932.669 451.588 933.635 450.906C934.61 450.215 935.723 449.869 936.973 449.869C937.257 449.869 937.574 449.884 937.925 449.912C938.285 449.931 938.583 449.964 938.82 450.011V454.741C938.602 454.666 938.256 454.599 937.783 454.543C937.319 454.476 936.869 454.443 936.433 454.443C935.496 454.443 934.653 454.647 933.905 455.054C933.166 455.452 932.584 456.006 932.158 456.716C931.732 457.426 931.518 458.245 931.518 459.173V472H926.376ZM942.236 472V450.182H947.222V453.818H947.449C947.847 452.559 948.528 451.588 949.494 450.906C950.47 450.215 951.582 449.869 952.832 449.869C953.116 449.869 953.434 449.884 953.784 449.912C954.144 449.931 954.442 449.964 954.679 450.011V454.741C954.461 454.666 954.116 454.599 953.642 454.543C953.178 454.476 952.728 454.443 952.293 454.443C951.355 454.443 950.512 454.647 949.764 455.054C949.026 455.452 948.443 456.006 948.017 456.716C947.591 457.426 947.378 458.245 947.378 459.173V472H942.236ZM972.001 462.824V450.182H977.143V472H972.158V468.122H971.93C971.438 469.344 970.628 470.343 969.501 471.119C968.384 471.896 967.006 472.284 965.368 472.284C963.938 472.284 962.674 471.967 961.575 471.332C960.486 470.688 959.634 469.756 959.018 468.534C958.403 467.303 958.095 465.816 958.095 464.074V450.182H963.237V463.278C963.237 464.661 963.616 465.759 964.374 466.574C965.131 467.388 966.125 467.795 967.357 467.795C968.114 467.795 968.848 467.611 969.558 467.241C970.268 466.872 970.851 466.323 971.305 465.594C971.769 464.855 972.001 463.932 972.001 462.824ZM982.431 480.182V450.182H987.488V453.79H987.786C988.051 453.259 988.425 452.696 988.908 452.099C989.391 451.493 990.045 450.977 990.869 450.551C991.692 450.116 992.744 449.898 994.022 449.898C995.708 449.898 997.228 450.329 998.582 451.19C999.945 452.043 1001.02 453.307 1001.82 454.983C1002.63 456.65 1003.03 458.695 1003.03 461.119C1003.03 463.515 1002.63 465.551 1001.85 467.227C1001.06 468.903 999.993 470.182 998.638 471.062C997.284 471.943 995.75 472.384 994.036 472.384C992.786 472.384 991.749 472.175 990.925 471.759C990.102 471.342 989.439 470.84 988.937 470.253C988.444 469.656 988.061 469.093 987.786 468.562H987.573V480.182H982.431ZM987.474 461.091C987.474 462.502 987.673 463.738 988.07 464.798C988.478 465.859 989.06 466.687 989.817 467.284C990.585 467.871 991.513 468.165 992.602 468.165C993.738 468.165 994.69 467.862 995.457 467.256C996.224 466.64 996.801 465.802 997.19 464.741C997.587 463.671 997.786 462.455 997.786 461.091C997.786 459.737 997.592 458.534 997.204 457.483C996.816 456.432 996.238 455.608 995.471 455.011C994.704 454.415 993.747 454.116 992.602 454.116C991.503 454.116 990.57 454.405 989.803 454.983C989.036 455.561 988.454 456.37 988.056 457.412C987.668 458.454 987.474 459.68 987.474 461.091ZM1018.33 450.182V454.159H1005.78V450.182H1018.33ZM1008.88 444.955H1014.02V465.438C1014.02 466.129 1014.13 466.659 1014.33 467.028C1014.55 467.388 1014.84 467.634 1015.19 467.767C1015.54 467.9 1015.93 467.966 1016.35 467.966C1016.67 467.966 1016.97 467.942 1017.23 467.895C1017.51 467.848 1017.72 467.805 1017.86 467.767L1018.72 471.787C1018.45 471.882 1018.06 471.986 1017.54 472.099C1017.04 472.213 1016.43 472.279 1015.7 472.298C1014.41 472.336 1013.25 472.142 1012.22 471.716C1011.19 471.28 1010.37 470.608 1009.76 469.699C1009.16 468.79 1008.87 467.653 1008.88 466.29V444.955Z" fill="black"/>
<rect x="465" y="510" width="375" height="167" fill="#2C6AB1" stroke="#233E5C" stroke-width="6"/>
<path d="M600.341 575.091L608.778 601.614H609.102L617.557 575.091H625.739L613.705 610H604.193L592.142 575.091H600.341ZM629.94 575.091H639.043L648.656 598.545H649.065L658.679 575.091H667.781V610H660.622V587.278H660.332L651.298 609.83H646.423L637.389 587.193H637.099V610H629.94V575.091ZM673.862 575.091H682.964L692.578 598.545H692.987L702.601 575.091H711.703V610H704.544V587.278H704.254L695.22 609.83H690.345L681.311 587.193H681.021V610H673.862V575.091Z" fill="white"/>
<path d="M70.4432 580.091H78.1818L88.5455 605.386H88.9545L99.3182 580.091H107.057V615H100.989V591.017H100.665L91.017 614.898H86.483L76.8352 590.966H76.5114V615H70.4432V580.091ZM113.943 580.091H121.682L132.045 605.386H132.455L142.818 580.091H150.557V615H144.489V591.017H144.165L134.517 614.898H129.983L120.335 590.966H120.011V615H113.943V580.091ZM163.767 580.091V615H157.443V580.091H163.767ZM201.808 597.545C201.808 601.307 201.104 604.528 199.695 607.21C198.297 609.881 196.388 611.926 193.967 613.347C191.558 614.767 188.825 615.477 185.768 615.477C182.712 615.477 179.973 614.767 177.553 613.347C175.143 611.915 173.234 609.864 171.825 607.193C170.428 604.511 169.729 601.295 169.729 597.545C169.729 593.784 170.428 590.568 171.825 587.898C173.234 585.216 175.143 583.165 177.553 581.744C179.973 580.324 182.712 579.614 185.768 579.614C188.825 579.614 191.558 580.324 193.967 581.744C196.388 583.165 198.297 585.216 199.695 587.898C201.104 590.568 201.808 593.784 201.808 597.545ZM195.45 597.545C195.45 594.898 195.036 592.665 194.206 590.847C193.388 589.017 192.251 587.636 190.797 586.705C189.342 585.761 187.666 585.29 185.768 585.29C183.871 585.29 182.195 585.761 180.74 586.705C179.286 587.636 178.143 589.017 177.314 590.847C176.496 592.665 176.087 594.898 176.087 597.545C176.087 600.193 176.496 602.432 177.314 604.261C178.143 606.08 179.286 607.46 180.74 608.403C182.195 609.335 183.871 609.801 185.768 609.801C187.666 609.801 189.342 609.335 190.797 608.403C192.251 607.46 193.388 606.08 194.206 604.261C195.036 602.432 195.45 600.193 195.45 597.545Z" fill="black"/>
<rect x="465" y="3" width="375" height="401" fill="#D75A49" stroke="#761A0D" stroke-width="6"/>
<path d="M597.463 94.375C597.224 93.5455 596.889 92.8125 596.457 92.1761C596.026 91.5284 595.497 90.983 594.872 90.5398C594.259 90.0852 593.554 89.7386 592.759 89.5C591.974 89.2614 591.105 89.142 590.151 89.142C588.366 89.142 586.798 89.5852 585.446 90.4716C584.105 91.358 583.06 92.6477 582.31 94.3409C581.56 96.0227 581.185 98.0795 581.185 100.511C581.185 102.943 581.554 105.011 582.293 106.716C583.031 108.42 584.077 109.722 585.429 110.619C586.781 111.506 588.378 111.949 590.219 111.949C591.889 111.949 593.315 111.653 594.497 111.062C595.69 110.46 596.599 109.614 597.224 108.523C597.861 107.432 598.179 106.142 598.179 104.653L599.679 104.875H590.679V99.3182H605.287V103.716C605.287 106.784 604.639 109.42 603.344 111.625C602.048 113.818 600.264 115.511 597.991 116.705C595.719 117.886 593.116 118.477 590.185 118.477C586.912 118.477 584.037 117.756 581.56 116.312C579.082 114.858 577.151 112.795 575.764 110.125C574.389 107.443 573.702 104.261 573.702 100.58C573.702 97.75 574.111 95.2273 574.929 93.0114C575.759 90.7841 576.918 88.8977 578.406 87.3523C579.895 85.8068 581.628 84.6307 583.605 83.8239C585.582 83.017 587.724 82.6136 590.031 82.6136C592.009 82.6136 593.849 82.9034 595.554 83.483C597.259 84.0511 598.77 84.858 600.088 85.9034C601.418 86.9489 602.503 88.1932 603.344 89.6364C604.185 91.0682 604.724 92.6477 604.963 94.375H597.463ZM632.393 83.0909H639.774V105.761C639.774 108.307 639.166 110.534 637.95 112.443C636.746 114.352 635.058 115.841 632.888 116.909C630.717 117.966 628.189 118.494 625.303 118.494C622.405 118.494 619.871 117.966 617.7 116.909C615.53 115.841 613.842 114.352 612.638 112.443C611.433 110.534 610.831 108.307 610.831 105.761V83.0909H618.212V105.131C618.212 106.46 618.501 107.642 619.081 108.676C619.672 109.71 620.501 110.523 621.57 111.114C622.638 111.705 623.882 112 625.303 112C626.734 112 627.979 111.705 629.036 111.114C630.104 110.523 630.928 109.71 631.507 108.676C632.098 107.642 632.393 106.46 632.393 105.131V83.0909ZM645.847 118V83.0909H669.369V89.1761H653.227V97.4943H668.159V103.58H653.227V111.915H669.438V118H645.847ZM694.175 93.1307C694.038 91.7557 693.453 90.6875 692.419 89.9261C691.385 89.1648 689.982 88.7841 688.209 88.7841C687.004 88.7841 685.987 88.9545 685.158 89.2955C684.328 89.625 683.692 90.0852 683.249 90.6761C682.817 91.267 682.601 91.9375 682.601 92.6875C682.578 93.3125 682.709 93.858 682.993 94.3239C683.288 94.7898 683.692 95.1932 684.203 95.5341C684.714 95.8636 685.305 96.1534 685.976 96.4034C686.646 96.642 687.362 96.8466 688.124 97.017L691.26 97.767C692.783 98.108 694.18 98.5625 695.453 99.1307C696.726 99.6989 697.828 100.398 698.76 101.227C699.692 102.057 700.413 103.034 700.925 104.159C701.447 105.284 701.714 106.574 701.726 108.028C701.714 110.165 701.169 112.017 700.089 113.585C699.021 115.142 697.476 116.352 695.453 117.216C693.442 118.068 691.016 118.494 688.175 118.494C685.357 118.494 682.902 118.062 680.811 117.199C678.732 116.335 677.107 115.057 675.936 113.364C674.777 111.659 674.169 109.551 674.112 107.04H681.254C681.334 108.21 681.669 109.187 682.26 109.972C682.862 110.744 683.663 111.33 684.663 111.727C685.675 112.114 686.817 112.307 688.089 112.307C689.339 112.307 690.425 112.125 691.345 111.761C692.277 111.398 692.999 110.892 693.51 110.244C694.021 109.597 694.277 108.852 694.277 108.011C694.277 107.227 694.044 106.568 693.578 106.034C693.124 105.5 692.453 105.045 691.567 104.67C690.692 104.295 689.618 103.955 688.345 103.648L684.544 102.693C681.601 101.977 679.277 100.858 677.572 99.3352C675.868 97.8125 675.021 95.7614 675.033 93.1818C675.021 91.0682 675.584 89.2216 676.72 87.642C677.868 86.0625 679.442 84.8295 681.442 83.9432C683.442 83.0568 685.714 82.6136 688.26 82.6136C690.851 82.6136 693.112 83.0568 695.044 83.9432C696.987 84.8295 698.499 86.0625 699.578 87.642C700.658 89.2216 701.214 91.0511 701.249 93.1307H694.175ZM705.361 89.1761V83.0909H734.031V89.1761H723.344V118H716.048V89.1761H705.361ZM563.581 176V141.091H570.962V156.483H571.422L583.984 141.091H592.831L579.876 156.722L592.984 176H584.155L574.592 161.648L570.962 166.08V176H563.581ZM596.675 176V141.091H620.197V147.176H604.055V155.494H618.987V161.58H604.055V169.915H620.266V176H596.675ZM626.065 176V141.091H639.838C642.474 141.091 644.724 141.562 646.588 142.506C648.463 143.437 649.889 144.761 650.866 146.477C651.855 148.182 652.349 150.187 652.349 152.494C652.349 154.812 651.849 156.807 650.849 158.477C649.849 160.136 648.401 161.409 646.503 162.295C644.616 163.182 642.332 163.625 639.651 163.625H630.429V157.693H638.457C639.866 157.693 641.037 157.5 641.969 157.114C642.901 156.727 643.594 156.148 644.048 155.375C644.514 154.602 644.747 153.642 644.747 152.494C644.747 151.335 644.514 150.358 644.048 149.562C643.594 148.767 642.895 148.165 641.952 147.756C641.02 147.335 639.844 147.125 638.423 147.125H633.446V176H626.065ZM644.918 160.114L653.594 176H645.446L636.957 160.114H644.918ZM686.764 141.091V176H680.389L665.202 154.028H664.946V176H657.565V141.091H664.043L679.111 163.045H679.418V141.091H686.764ZM692.862 176V141.091H716.385V147.176H700.243V155.494H715.175V161.58H700.243V169.915H716.453V176H692.862ZM722.253 176V141.091H729.634V169.915H744.599V176H722.253Z" fill="white"/>
<rect x="525" y="238" width="255" height="114" fill="#F97968" stroke="#761A0D" stroke-width="6"/>
<path d="M559.186 286V259.818H576.828V264.382H564.721V270.621H575.92V275.185H564.721V281.436H576.879V286H559.186ZM580.232 264.382V259.818H601.734V264.382H593.719V286H588.247V264.382H580.232ZM605.276 286V259.818H610.811V270.621H622.048V259.818H627.571V286H622.048V275.185H610.811V286H605.276ZM632.135 286V259.818H649.777V264.382H637.67V270.621H648.869V275.185H637.67V281.436H649.828V286H632.135ZM654.178 286V259.818H664.507C666.485 259.818 668.172 260.172 669.57 260.879C670.976 261.578 672.046 262.571 672.779 263.858C673.52 265.136 673.891 266.641 673.891 268.371C673.891 270.109 673.516 271.605 672.766 272.858C672.016 274.102 670.929 275.057 669.506 275.722C668.091 276.386 666.378 276.719 664.367 276.719H657.451V272.27H663.472C664.529 272.27 665.407 272.125 666.105 271.835C666.804 271.545 667.324 271.111 667.665 270.531C668.015 269.952 668.189 269.232 668.189 268.371C668.189 267.501 668.015 266.768 667.665 266.172C667.324 265.575 666.8 265.124 666.093 264.817C665.394 264.501 664.512 264.344 663.446 264.344H659.713V286H654.178ZM668.317 274.085L674.824 286H668.713L662.347 274.085H668.317ZM699.702 259.818V286H694.921L683.53 269.521H683.338V286H677.803V259.818H682.661L693.962 276.284H694.192V259.818H699.702ZM704.276 286V259.818H721.918V264.382H709.811V270.621H721.01V275.185H709.811V281.436H721.969V286H704.276ZM725.321 264.382V259.818H746.824V264.382H738.809V286H733.337V264.382H725.321ZM597.805 330H588.524V303.818H597.882C600.515 303.818 602.782 304.342 604.683 305.391C606.583 306.43 608.045 307.926 609.068 309.878C610.099 311.83 610.615 314.165 610.615 316.884C610.615 319.611 610.099 321.955 609.068 323.915C608.045 325.875 606.575 327.379 604.657 328.428C602.748 329.476 600.464 330 597.805 330ZM594.059 325.257H597.575C599.211 325.257 600.588 324.967 601.704 324.388C602.829 323.8 603.673 322.892 604.235 321.665C604.806 320.429 605.092 318.835 605.092 316.884C605.092 314.949 604.806 313.368 604.235 312.141C603.673 310.913 602.833 310.01 601.717 309.43C600.6 308.851 599.224 308.561 597.588 308.561H594.059V325.257ZM614.715 330V303.818H625.045C627.022 303.818 628.709 304.172 630.107 304.879C631.513 305.578 632.583 306.571 633.316 307.858C634.057 309.136 634.428 310.641 634.428 312.371C634.428 314.109 634.053 315.605 633.303 316.858C632.553 318.102 631.466 319.057 630.043 319.722C628.628 320.386 626.915 320.719 624.904 320.719H617.988V316.27H624.009C625.066 316.27 625.944 316.125 626.643 315.835C627.341 315.545 627.861 315.111 628.202 314.531C628.552 313.952 628.726 313.232 628.726 312.371C628.726 311.501 628.552 310.768 628.202 310.172C627.861 309.575 627.337 309.124 626.63 308.817C625.931 308.501 625.049 308.344 623.983 308.344H620.251V330H614.715ZM628.854 318.085L635.361 330H629.251L622.884 318.085H628.854ZM643.876 303.818V330H638.34V303.818H643.876ZM653.16 303.818L659.488 323.71H659.731L666.072 303.818H672.208L663.183 330H656.049L647.011 303.818H653.16ZM675.36 330V303.818H693.002V308.382H680.895V314.621H692.094V319.185H680.895V325.436H693.053V330H675.36ZM697.403 330V303.818H707.732C709.709 303.818 711.397 304.172 712.795 304.879C714.201 305.578 715.27 306.571 716.003 307.858C716.745 309.136 717.116 310.641 717.116 312.371C717.116 314.109 716.741 315.605 715.991 316.858C715.241 318.102 714.154 319.057 712.731 319.722C711.316 320.386 709.603 320.719 707.591 320.719H700.675V316.27H706.697C707.753 316.27 708.631 316.125 709.33 315.835C710.029 315.545 710.549 315.111 710.89 314.531C711.239 313.952 711.414 313.232 711.414 312.371C711.414 311.501 711.239 310.768 710.89 310.172C710.549 309.575 710.025 309.124 709.317 308.817C708.618 308.501 707.736 308.344 706.671 308.344H702.938V330H697.403ZM711.542 318.085L718.049 330H711.938L705.572 318.085H711.542Z" fill="white"/>
<path fill-rule="evenodd" clip-rule="evenodd" d="M522 301.312L254.119 301.312L254.119 1032.7H459.343V1013.6L499.343 1036.7L459.343 1059.79V1040.7H246L246 1032.7H246.119L246.119 301.312H246V293.312L522 293.312V301.312Z" fill="black"/>
<rect x="346" y="767" width="613" height="110" fill="#54C75F" stroke="#44894B" stroke-width="6"/>
<path d="M619.682 820.284L613.034 820.693C612.92 820.125 612.676 819.614 612.301 819.159C611.926 818.693 611.432 818.324 610.818 818.051C610.216 817.767 609.494 817.625 608.653 817.625C607.528 817.625 606.58 817.864 605.807 818.341C605.034 818.807 604.648 819.432 604.648 820.216C604.648 820.841 604.898 821.369 605.398 821.801C605.898 822.233 606.756 822.58 607.972 822.841L612.71 823.795C615.256 824.318 617.153 825.159 618.403 826.318C619.653 827.477 620.278 829 620.278 830.886C620.278 832.602 619.773 834.108 618.761 835.403C617.761 836.699 616.386 837.71 614.636 838.438C612.898 839.153 610.892 839.511 608.619 839.511C605.153 839.511 602.392 838.79 600.335 837.347C598.29 835.892 597.091 833.915 596.739 831.415L603.881 831.04C604.097 832.097 604.619 832.903 605.449 833.46C606.278 834.006 607.341 834.278 608.636 834.278C609.909 834.278 610.932 834.034 611.705 833.545C612.489 833.045 612.886 832.403 612.898 831.619C612.886 830.96 612.608 830.42 612.062 830C611.517 829.568 610.676 829.239 609.54 829.011L605.006 828.108C602.449 827.597 600.545 826.71 599.295 825.449C598.057 824.187 597.438 822.58 597.438 820.625C597.438 818.943 597.892 817.494 598.801 816.278C599.722 815.062 601.011 814.125 602.67 813.466C604.341 812.807 606.295 812.477 608.534 812.477C611.841 812.477 614.443 813.176 616.341 814.574C618.25 815.972 619.364 817.875 619.682 820.284ZM636.783 839.511C634.089 839.511 631.771 838.966 629.828 837.875C627.896 836.773 626.408 835.216 625.362 833.205C624.317 831.182 623.794 828.79 623.794 826.028C623.794 823.335 624.317 820.972 625.362 818.938C626.408 816.903 627.879 815.318 629.777 814.182C631.686 813.045 633.925 812.477 636.493 812.477C638.22 812.477 639.828 812.756 641.317 813.312C642.817 813.858 644.124 814.682 645.237 815.784C646.362 816.886 647.237 818.273 647.862 819.943C648.487 821.602 648.8 823.545 648.8 825.773V827.767H626.692V823.267H641.964C641.964 822.222 641.737 821.295 641.283 820.489C640.828 819.682 640.197 819.051 639.391 818.597C638.595 818.131 637.669 817.898 636.612 817.898C635.51 817.898 634.533 818.153 633.68 818.665C632.839 819.165 632.18 819.841 631.703 820.693C631.226 821.534 630.982 822.472 630.97 823.506V827.784C630.97 829.08 631.209 830.199 631.686 831.142C632.175 832.085 632.862 832.812 633.749 833.324C634.635 833.835 635.686 834.091 636.902 834.091C637.709 834.091 638.447 833.977 639.118 833.75C639.788 833.523 640.362 833.182 640.839 832.727C641.317 832.273 641.68 831.716 641.93 831.057L648.646 831.5C648.305 833.114 647.607 834.523 646.55 835.727C645.504 836.92 644.152 837.852 642.493 838.523C640.845 839.182 638.942 839.511 636.783 839.511ZM653.675 839V804.091H661.055V832.915H676.021V839H653.675ZM680.176 832.864V827.051L694.75 804.091H699.761V812.136H696.795L687.608 826.676V826.949H708.318V832.864H680.176ZM696.932 839V831.091L697.068 828.517V804.091H703.989V839H696.932Z" fill="white"/>
</svg>
