<svg width="1665" height="807" viewBox="0 0 1665 807" fill="none" xmlns="http://www.w3.org/2000/svg">
<rect x="683" y="232" width="375" height="167" fill="#2C6AB1" stroke="#233E5C" stroke-width="6"/>
<path d="M787.62 278.131C787.484 276.756 786.898 275.687 785.864 274.926C784.83 274.165 783.427 273.784 781.654 273.784C780.45 273.784 779.433 273.955 778.603 274.295C777.773 274.625 777.137 275.085 776.694 275.676C776.262 276.267 776.046 276.938 776.046 277.688C776.023 278.312 776.154 278.858 776.438 279.324C776.734 279.79 777.137 280.193 777.648 280.534C778.16 280.864 778.751 281.153 779.421 281.403C780.092 281.642 780.808 281.847 781.569 282.017L784.705 282.767C786.228 283.108 787.626 283.562 788.898 284.131C790.171 284.699 791.273 285.398 792.205 286.227C793.137 287.057 793.859 288.034 794.37 289.159C794.893 290.284 795.16 291.574 795.171 293.028C795.16 295.165 794.614 297.017 793.535 298.585C792.467 300.142 790.921 301.352 788.898 302.216C786.887 303.068 784.461 303.494 781.62 303.494C778.802 303.494 776.347 303.062 774.256 302.199C772.177 301.335 770.552 300.057 769.381 298.364C768.222 296.659 767.614 294.551 767.558 292.04H774.7C774.779 293.21 775.114 294.187 775.705 294.972C776.308 295.744 777.109 296.33 778.109 296.727C779.12 297.114 780.262 297.307 781.535 297.307C782.785 297.307 783.87 297.125 784.79 296.761C785.722 296.398 786.444 295.892 786.955 295.244C787.467 294.597 787.722 293.852 787.722 293.011C787.722 292.227 787.489 291.568 787.023 291.034C786.569 290.5 785.898 290.045 785.012 289.67C784.137 289.295 783.063 288.955 781.79 288.648L777.989 287.693C775.046 286.977 772.722 285.858 771.018 284.335C769.313 282.812 768.467 280.761 768.478 278.182C768.467 276.068 769.029 274.222 770.165 272.642C771.313 271.062 772.887 269.83 774.887 268.943C776.887 268.057 779.16 267.614 781.705 267.614C784.296 267.614 786.558 268.057 788.489 268.943C790.433 269.83 791.944 271.062 793.023 272.642C794.103 274.222 794.66 276.051 794.694 278.131H787.62ZM811.931 303.511C809.238 303.511 806.92 302.966 804.977 301.875C803.045 300.773 801.556 299.216 800.511 297.205C799.465 295.182 798.942 292.79 798.942 290.028C798.942 287.335 799.465 284.972 800.511 282.938C801.556 280.903 803.028 279.318 804.925 278.182C806.835 277.045 809.073 276.477 811.641 276.477C813.369 276.477 814.977 276.756 816.465 277.312C817.965 277.858 819.272 278.682 820.386 279.784C821.511 280.886 822.386 282.273 823.011 283.943C823.636 285.602 823.948 287.545 823.948 289.773V291.767H801.84V287.267H817.113C817.113 286.222 816.886 285.295 816.431 284.489C815.977 283.682 815.346 283.051 814.539 282.597C813.744 282.131 812.817 281.898 811.761 281.898C810.658 281.898 809.681 282.153 808.829 282.665C807.988 283.165 807.329 283.841 806.852 284.693C806.374 285.534 806.13 286.472 806.119 287.506V291.784C806.119 293.08 806.357 294.199 806.835 295.142C807.323 296.085 808.011 296.812 808.897 297.324C809.783 297.835 810.835 298.091 812.05 298.091C812.857 298.091 813.596 297.977 814.266 297.75C814.937 297.523 815.511 297.182 815.988 296.727C816.465 296.273 816.829 295.716 817.079 295.057L823.795 295.5C823.454 297.114 822.755 298.523 821.698 299.727C820.653 300.92 819.3 301.852 817.641 302.523C815.994 303.182 814.09 303.511 811.931 303.511ZM828.687 303V276.818H835.727V281.386H835.999C836.477 279.761 837.278 278.534 838.403 277.705C839.528 276.864 840.823 276.443 842.289 276.443C842.653 276.443 843.045 276.466 843.465 276.511C843.886 276.557 844.255 276.619 844.573 276.699V283.142C844.232 283.04 843.761 282.949 843.158 282.869C842.556 282.79 842.005 282.75 841.505 282.75C840.437 282.75 839.482 282.983 838.641 283.449C837.812 283.903 837.153 284.54 836.664 285.358C836.187 286.176 835.948 287.119 835.948 288.188V303H828.687ZM848.327 303V276.818H855.589V303H848.327ZM851.975 273.443C850.896 273.443 849.969 273.085 849.197 272.369C848.435 271.642 848.055 270.773 848.055 269.761C848.055 268.761 848.435 267.903 849.197 267.188C849.969 266.46 850.896 266.097 851.975 266.097C853.055 266.097 853.975 266.46 854.737 267.188C855.509 267.903 855.896 268.761 855.896 269.761C855.896 270.773 855.509 271.642 854.737 272.369C853.975 273.085 853.055 273.443 851.975 273.443ZM868.871 303.494C867.201 303.494 865.712 303.205 864.406 302.625C863.099 302.034 862.065 301.165 861.303 300.017C860.553 298.858 860.178 297.415 860.178 295.688C860.178 294.233 860.445 293.011 860.979 292.023C861.513 291.034 862.241 290.239 863.161 289.636C864.082 289.034 865.127 288.58 866.298 288.273C867.479 287.966 868.718 287.75 870.013 287.625C871.536 287.466 872.763 287.318 873.695 287.182C874.627 287.034 875.303 286.818 875.724 286.534C876.144 286.25 876.354 285.83 876.354 285.273V285.17C876.354 284.091 876.013 283.256 875.332 282.665C874.661 282.074 873.707 281.778 872.468 281.778C871.161 281.778 870.121 282.068 869.349 282.648C868.576 283.216 868.065 283.932 867.815 284.795L861.099 284.25C861.44 282.659 862.11 281.284 863.11 280.125C864.11 278.955 865.4 278.057 866.979 277.432C868.57 276.795 870.411 276.477 872.502 276.477C873.957 276.477 875.349 276.648 876.678 276.989C878.019 277.33 879.207 277.858 880.241 278.574C881.286 279.29 882.11 280.21 882.712 281.335C883.315 282.449 883.616 283.784 883.616 285.341V303H876.729V299.369H876.525C876.104 300.188 875.542 300.909 874.837 301.534C874.133 302.148 873.286 302.631 872.298 302.983C871.309 303.324 870.167 303.494 868.871 303.494ZM870.951 298.483C872.019 298.483 872.962 298.273 873.781 297.852C874.599 297.42 875.241 296.841 875.707 296.114C876.173 295.386 876.406 294.562 876.406 293.642V290.864C876.178 291.011 875.866 291.148 875.468 291.273C875.082 291.386 874.644 291.494 874.156 291.597C873.667 291.687 873.178 291.773 872.69 291.852C872.201 291.92 871.758 291.983 871.36 292.04C870.508 292.165 869.763 292.364 869.127 292.636C868.491 292.909 867.996 293.278 867.644 293.744C867.292 294.199 867.116 294.767 867.116 295.449C867.116 296.438 867.474 297.193 868.19 297.716C868.917 298.227 869.837 298.483 870.951 298.483ZM896.511 268.091V303H889.249V268.091H896.511ZM913.573 303V268.091H927.346C929.982 268.091 932.232 268.562 934.096 269.506C935.971 270.437 937.397 271.761 938.374 273.477C939.363 275.182 939.857 277.187 939.857 279.494C939.857 281.812 939.357 283.807 938.357 285.477C937.357 287.136 935.908 288.409 934.011 289.295C932.124 290.182 929.84 290.625 927.158 290.625H917.937V284.693H925.965C927.374 284.693 928.545 284.5 929.477 284.114C930.408 283.727 931.102 283.148 931.556 282.375C932.022 281.602 932.255 280.642 932.255 279.494C932.255 278.335 932.022 277.358 931.556 276.562C931.102 275.767 930.403 275.165 929.46 274.756C928.528 274.335 927.352 274.125 925.931 274.125H920.954V303H913.573ZM932.425 287.114L941.102 303H932.954L924.465 287.114H932.425ZM951.994 268.091L959.033 279.989H959.306L966.38 268.091H974.715L964.062 285.545L974.954 303H966.465L959.306 291.085H959.033L951.874 303H943.42L954.346 285.545L943.624 268.091H951.994ZM778.33 334.818L769.177 361H760.995L751.842 334.818H759.512L764.95 353.551H765.222L770.643 334.818H778.33ZM782.046 361V334.818H789.308V361H782.046ZM785.694 331.443C784.614 331.443 783.688 331.085 782.915 330.369C782.154 329.642 781.773 328.773 781.773 327.761C781.773 326.761 782.154 325.903 782.915 325.188C783.688 324.46 784.614 324.097 785.694 324.097C786.773 324.097 787.694 324.46 788.455 325.188C789.228 325.903 789.614 326.761 789.614 327.761C789.614 328.773 789.228 329.642 788.455 330.369C787.694 331.085 786.773 331.443 785.694 331.443ZM795.124 361V334.818H802.164V339.386H802.437C802.914 337.761 803.715 336.534 804.84 335.705C805.965 334.864 807.261 334.443 808.727 334.443C809.09 334.443 809.482 334.466 809.903 334.511C810.323 334.557 810.692 334.619 811.011 334.699V341.142C810.67 341.04 810.198 340.949 809.596 340.869C808.994 340.79 808.442 340.75 807.942 340.75C806.874 340.75 805.92 340.983 805.079 341.449C804.249 341.903 803.59 342.54 803.102 343.358C802.624 344.176 802.386 345.119 802.386 346.188V361H795.124ZM830.004 334.818V340.273H814.237V334.818H830.004ZM817.816 328.545H825.077V352.955C825.077 353.625 825.18 354.148 825.384 354.523C825.589 354.886 825.873 355.142 826.237 355.29C826.612 355.437 827.043 355.511 827.532 355.511C827.873 355.511 828.214 355.483 828.555 355.426C828.896 355.358 829.157 355.307 829.339 355.273L830.481 360.676C830.117 360.79 829.606 360.92 828.947 361.068C828.288 361.227 827.487 361.324 826.543 361.358C824.793 361.426 823.259 361.193 821.941 360.659C820.634 360.125 819.617 359.295 818.89 358.17C818.163 357.045 817.805 355.625 817.816 353.909V328.545ZM851.523 349.852V334.818H858.785V361H851.813V356.244H851.54C850.95 357.778 849.967 359.011 848.592 359.943C847.228 360.875 845.563 361.341 843.597 361.341C841.847 361.341 840.308 360.943 838.978 360.148C837.648 359.352 836.609 358.222 835.859 356.756C835.12 355.29 834.745 353.534 834.734 351.489V334.818H841.995V350.193C842.006 351.739 842.421 352.96 843.239 353.858C844.058 354.756 845.154 355.205 846.529 355.205C847.404 355.205 848.222 355.006 848.984 354.608C849.745 354.199 850.359 353.597 850.825 352.801C851.302 352.006 851.535 351.023 851.523 349.852ZM872.059 361.494C870.388 361.494 868.9 361.205 867.593 360.625C866.286 360.034 865.252 359.165 864.491 358.017C863.741 356.858 863.366 355.415 863.366 353.688C863.366 352.233 863.633 351.011 864.167 350.023C864.701 349.034 865.428 348.239 866.349 347.636C867.269 347.034 868.315 346.58 869.485 346.273C870.667 345.966 871.906 345.75 873.201 345.625C874.724 345.466 875.951 345.318 876.883 345.182C877.815 345.034 878.491 344.818 878.911 344.534C879.332 344.25 879.542 343.83 879.542 343.273V343.17C879.542 342.091 879.201 341.256 878.519 340.665C877.849 340.074 876.894 339.778 875.656 339.778C874.349 339.778 873.309 340.068 872.536 340.648C871.763 341.216 871.252 341.932 871.002 342.795L864.286 342.25C864.627 340.659 865.298 339.284 866.298 338.125C867.298 336.955 868.587 336.057 870.167 335.432C871.758 334.795 873.599 334.477 875.69 334.477C877.144 334.477 878.536 334.648 879.866 334.989C881.207 335.33 882.394 335.858 883.428 336.574C884.474 337.29 885.298 338.21 885.9 339.335C886.502 340.449 886.803 341.784 886.803 343.341V361H879.917V357.369H879.712C879.292 358.188 878.729 358.909 878.025 359.534C877.32 360.148 876.474 360.631 875.485 360.983C874.496 361.324 873.354 361.494 872.059 361.494ZM874.138 356.483C875.207 356.483 876.15 356.273 876.968 355.852C877.786 355.42 878.428 354.841 878.894 354.114C879.36 353.386 879.593 352.562 879.593 351.642V348.864C879.366 349.011 879.053 349.148 878.656 349.273C878.269 349.386 877.832 349.494 877.343 349.597C876.854 349.687 876.366 349.773 875.877 349.852C875.388 349.92 874.945 349.983 874.548 350.04C873.695 350.165 872.951 350.364 872.315 350.636C871.678 350.909 871.184 351.278 870.832 351.744C870.479 352.199 870.303 352.767 870.303 353.449C870.303 354.438 870.661 355.193 871.377 355.716C872.104 356.227 873.025 356.483 874.138 356.483ZM899.698 326.091V361H892.437V326.091H899.698ZM905.515 361V334.818H912.776V361H905.515ZM909.163 331.443C908.083 331.443 907.157 331.085 906.384 330.369C905.623 329.642 905.242 328.773 905.242 327.761C905.242 326.761 905.623 325.903 906.384 325.188C907.157 324.46 908.083 324.097 909.163 324.097C910.242 324.097 911.163 324.46 911.924 325.188C912.697 325.903 913.083 326.761 913.083 327.761C913.083 328.773 912.697 329.642 911.924 330.369C911.163 331.085 910.242 331.443 909.163 331.443ZM940.377 342.284L933.729 342.693C933.616 342.125 933.371 341.614 932.996 341.159C932.621 340.693 932.127 340.324 931.513 340.051C930.911 339.767 930.19 339.625 929.349 339.625C928.224 339.625 927.275 339.864 926.502 340.341C925.729 340.807 925.343 341.432 925.343 342.216C925.343 342.841 925.593 343.369 926.093 343.801C926.593 344.233 927.451 344.58 928.667 344.841L933.406 345.795C935.951 346.318 937.849 347.159 939.099 348.318C940.349 349.477 940.974 351 940.974 352.886C940.974 354.602 940.468 356.108 939.457 357.403C938.457 358.699 937.082 359.71 935.332 360.438C933.593 361.153 931.587 361.511 929.315 361.511C925.849 361.511 923.087 360.79 921.031 359.347C918.985 357.892 917.786 355.915 917.434 353.415L924.576 353.04C924.792 354.097 925.315 354.903 926.144 355.46C926.974 356.006 928.036 356.278 929.332 356.278C930.604 356.278 931.627 356.034 932.4 355.545C933.184 355.045 933.582 354.403 933.593 353.619C933.582 352.96 933.303 352.42 932.758 352C932.212 351.568 931.371 351.239 930.235 351.011L925.701 350.108C923.144 349.597 921.241 348.71 919.991 347.449C918.752 346.187 918.133 344.58 918.133 342.625C918.133 340.943 918.587 339.494 919.496 338.278C920.417 337.062 921.707 336.125 923.366 335.466C925.036 334.807 926.991 334.477 929.229 334.477C932.536 334.477 935.138 335.176 937.036 336.574C938.945 337.972 940.059 339.875 940.377 342.284ZM957.478 361.511C954.785 361.511 952.467 360.966 950.523 359.875C948.592 358.773 947.103 357.216 946.058 355.205C945.012 353.182 944.489 350.79 944.489 348.028C944.489 345.335 945.012 342.972 946.058 340.938C947.103 338.903 948.575 337.318 950.472 336.182C952.381 335.045 954.62 334.477 957.188 334.477C958.915 334.477 960.523 334.756 962.012 335.312C963.512 335.858 964.819 336.682 965.933 337.784C967.058 338.886 967.933 340.273 968.558 341.943C969.183 343.602 969.495 345.545 969.495 347.773V349.767H947.387V345.267H962.66C962.66 344.222 962.433 343.295 961.978 342.489C961.523 341.682 960.893 341.051 960.086 340.597C959.29 340.131 958.364 339.898 957.308 339.898C956.205 339.898 955.228 340.153 954.376 340.665C953.535 341.165 952.876 341.841 952.398 342.693C951.921 343.534 951.677 344.472 951.665 345.506V349.784C951.665 351.08 951.904 352.199 952.381 353.142C952.87 354.085 953.558 354.812 954.444 355.324C955.33 355.835 956.381 356.091 957.597 356.091C958.404 356.091 959.143 355.977 959.813 355.75C960.484 355.523 961.058 355.182 961.535 354.727C962.012 354.273 962.376 353.716 962.626 353.057L969.342 353.5C969.001 355.114 968.302 356.523 967.245 357.727C966.2 358.92 964.847 359.852 963.188 360.523C961.54 361.182 959.637 361.511 957.478 361.511ZM974.234 361V334.818H981.273V339.386H981.546C982.023 337.761 982.825 336.534 983.95 335.705C985.075 334.864 986.37 334.443 987.836 334.443C988.2 334.443 988.592 334.466 989.012 334.511C989.433 334.557 989.802 334.619 990.12 334.699V341.142C989.779 341.04 989.308 340.949 988.705 340.869C988.103 340.79 987.552 340.75 987.052 340.75C985.984 340.75 985.029 340.983 984.188 341.449C983.359 341.903 982.7 342.54 982.211 343.358C981.734 344.176 981.495 345.119 981.495 346.188V361H974.234Z" fill="white"/>
<rect x="683" y="578" width="375" height="167" fill="#2C6AB1" stroke="#233E5C" stroke-width="6"/>
<path d="M787.339 624.131C787.202 622.756 786.617 621.687 785.583 620.926C784.549 620.165 783.146 619.784 781.373 619.784C780.168 619.784 779.151 619.955 778.322 620.295C777.492 620.625 776.856 621.085 776.413 621.676C775.981 622.267 775.765 622.938 775.765 623.688C775.742 624.312 775.873 624.858 776.157 625.324C776.452 625.79 776.856 626.193 777.367 626.534C777.879 626.864 778.469 627.153 779.14 627.403C779.81 627.642 780.526 627.847 781.288 628.017L784.424 628.767C785.947 629.108 787.344 629.562 788.617 630.131C789.89 630.699 790.992 631.398 791.924 632.227C792.856 633.057 793.577 634.034 794.089 635.159C794.612 636.284 794.879 637.574 794.89 639.028C794.879 641.165 794.333 643.017 793.254 644.585C792.185 646.142 790.64 647.352 788.617 648.216C786.606 649.068 784.18 649.494 781.339 649.494C778.521 649.494 776.066 649.062 773.975 648.199C771.896 647.335 770.271 646.057 769.1 644.364C767.941 642.659 767.333 640.551 767.276 638.04H774.418C774.498 639.21 774.833 640.187 775.424 640.972C776.026 641.744 776.827 642.33 777.827 642.727C778.839 643.114 779.981 643.307 781.254 643.307C782.504 643.307 783.589 643.125 784.509 642.761C785.441 642.398 786.163 641.892 786.674 641.244C787.185 640.597 787.441 639.852 787.441 639.011C787.441 638.227 787.208 637.568 786.742 637.034C786.288 636.5 785.617 636.045 784.731 635.67C783.856 635.295 782.782 634.955 781.509 634.648L777.708 633.693C774.765 632.977 772.441 631.858 770.737 630.335C769.032 628.812 768.185 626.761 768.197 624.182C768.185 622.068 768.748 620.222 769.884 618.642C771.032 617.062 772.606 615.83 774.606 614.943C776.606 614.057 778.879 613.614 781.424 613.614C784.015 613.614 786.276 614.057 788.208 614.943C790.151 615.83 791.663 617.062 792.742 618.642C793.822 620.222 794.379 622.051 794.413 624.131H787.339ZM811.65 649.511C808.957 649.511 806.638 648.966 804.695 647.875C802.763 646.773 801.275 645.216 800.229 643.205C799.184 641.182 798.661 638.79 798.661 636.028C798.661 633.335 799.184 630.972 800.229 628.938C801.275 626.903 802.746 625.318 804.644 624.182C806.553 623.045 808.792 622.477 811.36 622.477C813.087 622.477 814.695 622.756 816.184 623.312C817.684 623.858 818.991 624.682 820.104 625.784C821.229 626.886 822.104 628.273 822.729 629.943C823.354 631.602 823.667 633.545 823.667 635.773V637.767H801.559V633.267H816.832C816.832 632.222 816.604 631.295 816.15 630.489C815.695 629.682 815.065 629.051 814.258 628.597C813.462 628.131 812.536 627.898 811.479 627.898C810.377 627.898 809.4 628.153 808.548 628.665C807.707 629.165 807.048 629.841 806.57 630.693C806.093 631.534 805.849 632.472 805.837 633.506V637.784C805.837 639.08 806.076 640.199 806.553 641.142C807.042 642.085 807.729 642.812 808.616 643.324C809.502 643.835 810.553 644.091 811.769 644.091C812.576 644.091 813.315 643.977 813.985 643.75C814.656 643.523 815.229 643.182 815.707 642.727C816.184 642.273 816.548 641.716 816.798 641.057L823.513 641.5C823.173 643.114 822.474 644.523 821.417 645.727C820.371 646.92 819.019 647.852 817.36 648.523C815.712 649.182 813.809 649.511 811.65 649.511ZM828.406 649V622.818H835.445V627.386H835.718C836.195 625.761 836.996 624.534 838.121 623.705C839.246 622.864 840.542 622.443 842.008 622.443C842.371 622.443 842.763 622.466 843.184 622.511C843.604 622.557 843.974 622.619 844.292 622.699V629.142C843.951 629.04 843.479 628.949 842.877 628.869C842.275 628.79 841.724 628.75 841.224 628.75C840.156 628.75 839.201 628.983 838.36 629.449C837.531 629.903 836.871 630.54 836.383 631.358C835.906 632.176 835.667 633.119 835.667 634.188V649H828.406ZM848.046 649V622.818H855.308V649H848.046ZM851.694 619.443C850.614 619.443 849.688 619.085 848.915 618.369C848.154 617.642 847.773 616.773 847.773 615.761C847.773 614.761 848.154 613.903 848.915 613.188C849.688 612.46 850.614 612.097 851.694 612.097C852.773 612.097 853.694 612.46 854.455 613.188C855.228 613.903 855.614 614.761 855.614 615.761C855.614 616.773 855.228 617.642 854.455 618.369C853.694 619.085 852.773 619.443 851.694 619.443ZM868.59 649.494C866.92 649.494 865.431 649.205 864.124 648.625C862.817 648.034 861.783 647.165 861.022 646.017C860.272 644.858 859.897 643.415 859.897 641.688C859.897 640.233 860.164 639.011 860.698 638.023C861.232 637.034 861.96 636.239 862.88 635.636C863.8 635.034 864.846 634.58 866.016 634.273C867.198 633.966 868.437 633.75 869.732 633.625C871.255 633.466 872.482 633.318 873.414 633.182C874.346 633.034 875.022 632.818 875.442 632.534C875.863 632.25 876.073 631.83 876.073 631.273V631.17C876.073 630.091 875.732 629.256 875.05 628.665C874.38 628.074 873.425 627.778 872.187 627.778C870.88 627.778 869.84 628.068 869.067 628.648C868.295 629.216 867.783 629.932 867.533 630.795L860.817 630.25C861.158 628.659 861.829 627.284 862.829 626.125C863.829 624.955 865.119 624.057 866.698 623.432C868.289 622.795 870.13 622.477 872.221 622.477C873.675 622.477 875.067 622.648 876.397 622.989C877.738 623.33 878.925 623.858 879.96 624.574C881.005 625.29 881.829 626.21 882.431 627.335C883.033 628.449 883.335 629.784 883.335 631.341V649H876.448V645.369H876.244C875.823 646.188 875.261 646.909 874.556 647.534C873.852 648.148 873.005 648.631 872.016 648.983C871.028 649.324 869.886 649.494 868.59 649.494ZM870.67 644.483C871.738 644.483 872.681 644.273 873.499 643.852C874.317 643.42 874.96 642.841 875.425 642.114C875.891 641.386 876.124 640.562 876.124 639.642V636.864C875.897 637.011 875.585 637.148 875.187 637.273C874.8 637.386 874.363 637.494 873.874 637.597C873.386 637.687 872.897 637.773 872.408 637.852C871.92 637.92 871.477 637.983 871.079 638.04C870.227 638.165 869.482 638.364 868.846 638.636C868.21 638.909 867.715 639.278 867.363 639.744C867.011 640.199 866.835 640.767 866.835 641.449C866.835 642.438 867.192 643.193 867.908 643.716C868.636 644.227 869.556 644.483 870.67 644.483ZM896.229 614.091V649H888.968V614.091H896.229ZM911.962 620.176V614.091H940.633V620.176H929.945V649H922.65V620.176H911.962ZM952.275 614.091L959.315 625.989H959.587L966.661 614.091H974.996L964.343 631.545L975.235 649H966.746L959.587 637.085H959.315L952.156 649H943.701L954.627 631.545L943.906 614.091H952.275ZM778.33 680.818L769.177 707H760.995L751.842 680.818H759.512L764.95 699.551H765.222L770.643 680.818H778.33ZM782.046 707V680.818H789.308V707H782.046ZM785.694 677.443C784.614 677.443 783.688 677.085 782.915 676.369C782.154 675.642 781.773 674.773 781.773 673.761C781.773 672.761 782.154 671.903 782.915 671.188C783.688 670.46 784.614 670.097 785.694 670.097C786.773 670.097 787.694 670.46 788.455 671.188C789.228 671.903 789.614 672.761 789.614 673.761C789.614 674.773 789.228 675.642 788.455 676.369C787.694 677.085 786.773 677.443 785.694 677.443ZM795.124 707V680.818H802.164V685.386H802.437C802.914 683.761 803.715 682.534 804.84 681.705C805.965 680.864 807.261 680.443 808.727 680.443C809.09 680.443 809.482 680.466 809.903 680.511C810.323 680.557 810.692 680.619 811.011 680.699V687.142C810.67 687.04 810.198 686.949 809.596 686.869C808.994 686.79 808.442 686.75 807.942 686.75C806.874 686.75 805.92 686.983 805.079 687.449C804.249 687.903 803.59 688.54 803.102 689.358C802.624 690.176 802.386 691.119 802.386 692.188V707H795.124ZM830.004 680.818V686.273H814.237V680.818H830.004ZM817.816 674.545H825.077V698.955C825.077 699.625 825.18 700.148 825.384 700.523C825.589 700.886 825.873 701.142 826.237 701.29C826.612 701.437 827.043 701.511 827.532 701.511C827.873 701.511 828.214 701.483 828.555 701.426C828.896 701.358 829.157 701.307 829.339 701.273L830.481 706.676C830.117 706.79 829.606 706.92 828.947 707.068C828.288 707.227 827.487 707.324 826.543 707.358C824.793 707.426 823.259 707.193 821.941 706.659C820.634 706.125 819.617 705.295 818.89 704.17C818.163 703.045 817.805 701.625 817.816 699.909V674.545ZM851.523 695.852V680.818H858.785V707H851.813V702.244H851.54C850.95 703.778 849.967 705.011 848.592 705.943C847.228 706.875 845.563 707.341 843.597 707.341C841.847 707.341 840.308 706.943 838.978 706.148C837.648 705.352 836.609 704.222 835.859 702.756C835.12 701.29 834.745 699.534 834.734 697.489V680.818H841.995V696.193C842.006 697.739 842.421 698.96 843.239 699.858C844.058 700.756 845.154 701.205 846.529 701.205C847.404 701.205 848.222 701.006 848.984 700.608C849.745 700.199 850.359 699.597 850.825 698.801C851.302 698.006 851.535 697.023 851.523 695.852ZM872.059 707.494C870.388 707.494 868.9 707.205 867.593 706.625C866.286 706.034 865.252 705.165 864.491 704.017C863.741 702.858 863.366 701.415 863.366 699.688C863.366 698.233 863.633 697.011 864.167 696.023C864.701 695.034 865.428 694.239 866.349 693.636C867.269 693.034 868.315 692.58 869.485 692.273C870.667 691.966 871.906 691.75 873.201 691.625C874.724 691.466 875.951 691.318 876.883 691.182C877.815 691.034 878.491 690.818 878.911 690.534C879.332 690.25 879.542 689.83 879.542 689.273V689.17C879.542 688.091 879.201 687.256 878.519 686.665C877.849 686.074 876.894 685.778 875.656 685.778C874.349 685.778 873.309 686.068 872.536 686.648C871.763 687.216 871.252 687.932 871.002 688.795L864.286 688.25C864.627 686.659 865.298 685.284 866.298 684.125C867.298 682.955 868.587 682.057 870.167 681.432C871.758 680.795 873.599 680.477 875.69 680.477C877.144 680.477 878.536 680.648 879.866 680.989C881.207 681.33 882.394 681.858 883.428 682.574C884.474 683.29 885.298 684.21 885.9 685.335C886.502 686.449 886.803 687.784 886.803 689.341V707H879.917V703.369H879.712C879.292 704.188 878.729 704.909 878.025 705.534C877.32 706.148 876.474 706.631 875.485 706.983C874.496 707.324 873.354 707.494 872.059 707.494ZM874.138 702.483C875.207 702.483 876.15 702.273 876.968 701.852C877.786 701.42 878.428 700.841 878.894 700.114C879.36 699.386 879.593 698.562 879.593 697.642V694.864C879.366 695.011 879.053 695.148 878.656 695.273C878.269 695.386 877.832 695.494 877.343 695.597C876.854 695.687 876.366 695.773 875.877 695.852C875.388 695.92 874.945 695.983 874.548 696.04C873.695 696.165 872.951 696.364 872.315 696.636C871.678 696.909 871.184 697.278 870.832 697.744C870.479 698.199 870.303 698.767 870.303 699.449C870.303 700.438 870.661 701.193 871.377 701.716C872.104 702.227 873.025 702.483 874.138 702.483ZM899.698 672.091V707H892.437V672.091H899.698ZM905.515 707V680.818H912.776V707H905.515ZM909.163 677.443C908.083 677.443 907.157 677.085 906.384 676.369C905.623 675.642 905.242 674.773 905.242 673.761C905.242 672.761 905.623 671.903 906.384 671.188C907.157 670.46 908.083 670.097 909.163 670.097C910.242 670.097 911.163 670.46 911.924 671.188C912.697 671.903 913.083 672.761 913.083 673.761C913.083 674.773 912.697 675.642 911.924 676.369C911.163 677.085 910.242 677.443 909.163 677.443ZM940.377 688.284L933.729 688.693C933.616 688.125 933.371 687.614 932.996 687.159C932.621 686.693 932.127 686.324 931.513 686.051C930.911 685.767 930.19 685.625 929.349 685.625C928.224 685.625 927.275 685.864 926.502 686.341C925.729 686.807 925.343 687.432 925.343 688.216C925.343 688.841 925.593 689.369 926.093 689.801C926.593 690.233 927.451 690.58 928.667 690.841L933.406 691.795C935.951 692.318 937.849 693.159 939.099 694.318C940.349 695.477 940.974 697 940.974 698.886C940.974 700.602 940.468 702.108 939.457 703.403C938.457 704.699 937.082 705.71 935.332 706.438C933.593 707.153 931.587 707.511 929.315 707.511C925.849 707.511 923.087 706.79 921.031 705.347C918.985 703.892 917.786 701.915 917.434 699.415L924.576 699.04C924.792 700.097 925.315 700.903 926.144 701.46C926.974 702.006 928.036 702.278 929.332 702.278C930.604 702.278 931.627 702.034 932.4 701.545C933.184 701.045 933.582 700.403 933.593 699.619C933.582 698.96 933.303 698.42 932.758 698C932.212 697.568 931.371 697.239 930.235 697.011L925.701 696.108C923.144 695.597 921.241 694.71 919.991 693.449C918.752 692.187 918.133 690.58 918.133 688.625C918.133 686.943 918.587 685.494 919.496 684.278C920.417 683.062 921.707 682.125 923.366 681.466C925.036 680.807 926.991 680.477 929.229 680.477C932.536 680.477 935.138 681.176 937.036 682.574C938.945 683.972 940.059 685.875 940.377 688.284ZM957.478 707.511C954.785 707.511 952.467 706.966 950.523 705.875C948.592 704.773 947.103 703.216 946.058 701.205C945.012 699.182 944.489 696.79 944.489 694.028C944.489 691.335 945.012 688.972 946.058 686.938C947.103 684.903 948.575 683.318 950.472 682.182C952.381 681.045 954.62 680.477 957.188 680.477C958.915 680.477 960.523 680.756 962.012 681.312C963.512 681.858 964.819 682.682 965.933 683.784C967.058 684.886 967.933 686.273 968.558 687.943C969.183 689.602 969.495 691.545 969.495 693.773V695.767H947.387V691.267H962.66C962.66 690.222 962.433 689.295 961.978 688.489C961.523 687.682 960.893 687.051 960.086 686.597C959.29 686.131 958.364 685.898 957.308 685.898C956.205 685.898 955.228 686.153 954.376 686.665C953.535 687.165 952.876 687.841 952.398 688.693C951.921 689.534 951.677 690.472 951.665 691.506V695.784C951.665 697.08 951.904 698.199 952.381 699.142C952.87 700.085 953.558 700.812 954.444 701.324C955.33 701.835 956.381 702.091 957.597 702.091C958.404 702.091 959.143 701.977 959.813 701.75C960.484 701.523 961.058 701.182 961.535 700.727C962.012 700.273 962.376 699.716 962.626 699.057L969.342 699.5C969.001 701.114 968.302 702.523 967.245 703.727C966.2 704.92 964.847 705.852 963.188 706.523C961.54 707.182 959.637 707.511 957.478 707.511ZM974.234 707V680.818H981.273V685.386H981.546C982.023 683.761 982.825 682.534 983.95 681.705C985.075 680.864 986.37 680.443 987.836 680.443C988.2 680.443 988.592 680.466 989.012 680.511C989.433 680.557 989.802 680.619 990.12 680.699V687.142C989.779 687.04 989.308 686.949 988.705 686.869C988.103 686.79 987.552 686.75 987.052 686.75C985.984 686.75 985.029 686.983 984.188 687.449C983.359 687.903 982.7 688.54 982.211 689.358C981.734 690.176 981.495 691.119 981.495 692.188V707H974.234Z" fill="white"/>
<rect x="1287" y="405" width="375" height="167" fill="#2C6AB1" stroke="#233E5C" stroke-width="6"/>
<path d="M1318.01 478.818L1324.33 498.71H1324.58L1330.92 478.818H1337.05L1328.03 505H1320.89L1311.86 478.818H1318.01ZM1340.21 478.818H1347.03L1354.24 496.409H1354.55L1361.76 478.818H1368.59V505H1363.22V487.959H1363L1356.22 504.872H1352.57L1345.79 487.895H1345.57V505H1340.21V478.818ZM1373.15 478.818H1379.97L1387.18 496.409H1387.49L1394.7 478.818H1401.53V505H1396.16V487.959H1395.94L1389.17 504.872H1385.51L1378.73 487.895H1378.52V505H1373.15V478.818Z" fill="white"/>
<rect x="1424" y="445" width="219" height="94" fill="#233E5C"/>
<path d="M1453.94 469.727L1448.6 485H1443.83L1438.49 469.727H1442.96L1446.13 480.655H1446.29L1449.45 469.727H1453.94ZM1456.11 485V469.727H1460.34V485H1456.11ZM1458.23 467.759C1457.6 467.759 1457.06 467.55 1456.61 467.132C1456.17 466.708 1455.95 466.201 1455.95 465.611C1455.95 465.027 1456.17 464.527 1456.61 464.109C1457.06 463.685 1457.6 463.473 1458.23 463.473C1458.86 463.473 1459.4 463.685 1459.84 464.109C1460.3 464.527 1460.52 465.027 1460.52 465.611C1460.52 466.201 1460.3 466.708 1459.84 467.132C1459.4 467.55 1458.86 467.759 1458.23 467.759ZM1463.74 485V469.727H1467.84V472.392H1468C1468.28 471.444 1468.75 470.728 1469.4 470.244C1470.06 469.754 1470.81 469.509 1471.67 469.509C1471.88 469.509 1472.11 469.522 1472.36 469.548C1472.6 469.575 1472.82 469.611 1473 469.658V473.416C1472.8 473.357 1472.53 473.304 1472.18 473.257C1471.83 473.211 1471.5 473.188 1471.21 473.188C1470.59 473.188 1470.03 473.323 1469.54 473.595C1469.06 473.86 1468.67 474.232 1468.39 474.709C1468.11 475.186 1467.97 475.736 1467.97 476.359V485H1463.74ZM1484.08 469.727V472.909H1474.88V469.727H1484.08ZM1476.97 466.068H1481.21V480.307C1481.21 480.698 1481.27 481.003 1481.39 481.222C1481.51 481.434 1481.67 481.583 1481.88 481.669C1482.1 481.755 1482.35 481.798 1482.64 481.798C1482.84 481.798 1483.04 481.782 1483.24 481.749C1483.44 481.709 1483.59 481.679 1483.69 481.659L1484.36 484.811C1484.15 484.877 1483.85 484.954 1483.47 485.04C1483.08 485.133 1482.61 485.189 1482.06 485.209C1481.04 485.249 1480.15 485.113 1479.38 484.801C1478.62 484.49 1478.02 484.006 1477.6 483.349C1477.17 482.693 1476.97 481.865 1476.97 480.864V466.068ZM1491.55 464.636V485H1487.25V464.636H1491.55ZM1513.81 474.818C1513.81 477.039 1513.39 478.928 1512.55 480.486C1511.71 482.044 1510.57 483.233 1509.13 484.055C1507.69 484.871 1506.07 485.278 1504.27 485.278C1502.46 485.278 1500.84 484.867 1499.4 484.045C1497.96 483.223 1496.83 482.034 1495.99 480.476C1495.16 478.918 1494.74 477.032 1494.74 474.818C1494.74 472.598 1495.16 470.708 1495.99 469.151C1496.83 467.593 1497.96 466.406 1499.4 465.591C1500.84 464.769 1502.46 464.358 1504.27 464.358C1506.07 464.358 1507.69 464.769 1509.13 465.591C1510.57 466.406 1511.71 467.593 1512.55 469.151C1513.39 470.708 1513.81 472.598 1513.81 474.818ZM1509.44 474.818C1509.44 473.38 1509.23 472.167 1508.8 471.179C1508.37 470.191 1507.77 469.442 1507 468.932C1506.22 468.421 1505.31 468.166 1504.27 468.166C1503.23 468.166 1502.32 468.421 1501.55 468.932C1500.77 469.442 1500.17 470.191 1499.74 471.179C1499.32 472.167 1499.1 473.38 1499.1 474.818C1499.1 476.257 1499.32 477.47 1499.74 478.457C1500.17 479.445 1500.77 480.194 1501.55 480.705C1502.32 481.215 1503.23 481.47 1504.27 481.47C1505.31 481.47 1506.22 481.215 1507 480.705C1507.77 480.194 1508.37 479.445 1508.8 478.457C1509.23 477.47 1509.44 476.257 1509.44 474.818ZM1530.3 485.298C1528.74 485.298 1527.39 484.967 1526.26 484.304C1525.14 483.634 1524.28 482.706 1523.68 481.52C1523.08 480.333 1522.78 478.968 1522.78 477.423C1522.78 475.859 1523.08 474.487 1523.69 473.307C1524.3 472.12 1525.16 471.196 1526.28 470.533C1527.4 469.863 1528.74 469.528 1530.28 469.528C1531.61 469.528 1532.78 469.77 1533.78 470.254C1534.78 470.738 1535.57 471.418 1536.16 472.293C1536.74 473.168 1537.06 474.195 1537.12 475.375H1533.12C1533.01 474.613 1532.71 474 1532.23 473.536C1531.75 473.065 1531.13 472.83 1530.35 472.83C1529.69 472.83 1529.12 473.009 1528.63 473.366C1528.15 473.718 1527.77 474.232 1527.5 474.908C1527.22 475.584 1527.09 476.402 1527.09 477.364C1527.09 478.338 1527.22 479.167 1527.49 479.849C1527.76 480.532 1528.14 481.053 1528.63 481.411C1529.12 481.768 1529.69 481.947 1530.35 481.947C1530.83 481.947 1531.27 481.848 1531.65 481.649C1532.04 481.45 1532.36 481.162 1532.62 480.784C1532.88 480.4 1533.04 479.939 1533.12 479.402H1537.12C1537.05 480.569 1536.74 481.596 1536.17 482.484C1535.6 483.366 1534.82 484.055 1533.83 484.553C1532.84 485.05 1531.66 485.298 1530.3 485.298ZM1546.73 485.298C1545.19 485.298 1543.85 484.97 1542.73 484.314C1541.61 483.651 1540.74 482.73 1540.13 481.55C1539.52 480.363 1539.22 478.988 1539.22 477.423C1539.22 475.846 1539.52 474.467 1540.13 473.287C1540.74 472.1 1541.61 471.179 1542.73 470.523C1543.85 469.86 1545.19 469.528 1546.73 469.528C1548.28 469.528 1549.61 469.86 1550.73 470.523C1551.86 471.179 1552.73 472.1 1553.34 473.287C1553.95 474.467 1554.25 475.846 1554.25 477.423C1554.25 478.988 1553.95 480.363 1553.34 481.55C1552.73 482.73 1551.86 483.651 1550.73 484.314C1549.61 484.97 1548.28 485.298 1546.73 485.298ZM1546.75 482.017C1547.46 482.017 1548.04 481.818 1548.51 481.42C1548.98 481.016 1549.34 480.466 1549.58 479.77C1549.82 479.074 1549.95 478.282 1549.95 477.393C1549.95 476.505 1549.82 475.713 1549.58 475.017C1549.34 474.321 1548.98 473.771 1548.51 473.366C1548.04 472.962 1547.46 472.76 1546.75 472.76C1546.04 472.76 1545.45 472.962 1544.96 473.366C1544.49 473.771 1544.13 474.321 1543.88 475.017C1543.64 475.713 1543.52 476.505 1543.52 477.393C1543.52 478.282 1543.64 479.074 1543.88 479.77C1544.13 480.466 1544.49 481.016 1544.96 481.42C1545.45 481.818 1546.04 482.017 1546.75 482.017ZM1561.24 476.17V485H1557V469.727H1561.04V472.422H1561.22C1561.56 471.534 1562.13 470.831 1562.92 470.314C1563.72 469.79 1564.68 469.528 1565.81 469.528C1566.88 469.528 1567.8 469.76 1568.59 470.224C1569.38 470.688 1569.99 471.351 1570.43 472.213C1570.87 473.068 1571.08 474.089 1571.08 475.276V485H1566.85V476.031C1566.86 475.097 1566.62 474.367 1566.13 473.844C1565.65 473.313 1564.98 473.048 1564.13 473.048C1563.56 473.048 1563.06 473.171 1562.62 473.416C1562.19 473.661 1561.85 474.019 1561.61 474.49C1561.37 474.954 1561.25 475.514 1561.24 476.17ZM1587.13 474.082L1583.25 474.321C1583.19 473.99 1583.04 473.691 1582.82 473.426C1582.61 473.154 1582.32 472.939 1581.96 472.78C1581.61 472.614 1581.19 472.531 1580.7 472.531C1580.04 472.531 1579.49 472.67 1579.04 472.949C1578.59 473.221 1578.36 473.585 1578.36 474.043C1578.36 474.407 1578.51 474.715 1578.8 474.967C1579.09 475.219 1579.59 475.421 1580.3 475.574L1583.06 476.131C1584.55 476.436 1585.66 476.926 1586.38 477.602C1587.11 478.278 1587.48 479.167 1587.48 480.267C1587.48 481.268 1587.18 482.146 1586.59 482.902C1586.01 483.658 1585.21 484.248 1584.19 484.672C1583.17 485.089 1582 485.298 1580.68 485.298C1578.66 485.298 1577.04 484.877 1575.84 484.036C1574.65 483.187 1573.95 482.034 1573.75 480.575L1577.91 480.357C1578.04 480.973 1578.34 481.444 1578.83 481.768C1579.31 482.087 1579.93 482.246 1580.69 482.246C1581.43 482.246 1582.03 482.103 1582.48 481.818C1582.93 481.527 1583.17 481.152 1583.17 480.695C1583.17 480.31 1583 479.995 1582.69 479.75C1582.37 479.498 1581.88 479.306 1581.21 479.173L1578.57 478.646C1577.08 478.348 1575.97 477.831 1575.24 477.095C1574.52 476.359 1574.15 475.421 1574.15 474.281C1574.15 473.3 1574.42 472.455 1574.95 471.746C1575.49 471.036 1576.24 470.49 1577.21 470.105C1578.18 469.721 1579.32 469.528 1580.63 469.528C1582.56 469.528 1584.07 469.936 1585.18 470.751C1586.29 471.567 1586.94 472.677 1587.13 474.082ZM1597.05 485.298C1595.5 485.298 1594.17 484.97 1593.04 484.314C1591.92 483.651 1591.05 482.73 1590.44 481.55C1589.83 480.363 1589.53 478.988 1589.53 477.423C1589.53 475.846 1589.83 474.467 1590.44 473.287C1591.05 472.1 1591.92 471.179 1593.04 470.523C1594.17 469.86 1595.5 469.528 1597.05 469.528C1598.59 469.528 1599.92 469.86 1601.04 470.523C1602.17 471.179 1603.04 472.1 1603.65 473.287C1604.26 474.467 1604.56 475.846 1604.56 477.423C1604.56 478.988 1604.26 480.363 1603.65 481.55C1603.04 482.73 1602.17 483.651 1601.04 484.314C1599.92 484.97 1598.59 485.298 1597.05 485.298ZM1597.07 482.017C1597.77 482.017 1598.36 481.818 1598.83 481.42C1599.3 481.016 1599.65 480.466 1599.89 479.77C1600.14 479.074 1600.26 478.282 1600.26 477.393C1600.26 476.505 1600.14 475.713 1599.89 475.017C1599.65 474.321 1599.3 473.771 1598.83 473.366C1598.36 472.962 1597.77 472.76 1597.07 472.76C1596.36 472.76 1595.76 472.962 1595.28 473.366C1594.8 473.771 1594.44 474.321 1594.19 475.017C1593.95 475.713 1593.83 476.505 1593.83 477.393C1593.83 478.282 1593.95 479.074 1594.19 479.77C1594.44 480.466 1594.8 481.016 1595.28 481.42C1595.76 481.818 1596.36 482.017 1597.07 482.017ZM1611.55 464.636V485H1607.32V464.636H1611.55ZM1621.91 485.298C1620.34 485.298 1618.98 484.98 1617.85 484.344C1616.72 483.701 1615.85 482.793 1615.24 481.619C1614.63 480.439 1614.33 479.044 1614.33 477.433C1614.33 475.862 1614.63 474.483 1615.24 473.297C1615.85 472.11 1616.71 471.186 1617.82 470.523C1618.93 469.86 1620.24 469.528 1621.74 469.528C1622.74 469.528 1623.68 469.691 1624.55 470.016C1625.43 470.334 1626.19 470.814 1626.84 471.457C1627.49 472.1 1628 472.909 1628.37 473.884C1628.73 474.851 1628.92 475.985 1628.92 477.284V478.447H1616.02V475.822H1624.93C1624.93 475.213 1624.8 474.672 1624.53 474.202C1624.27 473.731 1623.9 473.363 1623.43 473.098C1622.96 472.826 1622.42 472.69 1621.81 472.69C1621.16 472.69 1620.59 472.839 1620.1 473.138C1619.61 473.429 1619.22 473.824 1618.94 474.321C1618.66 474.812 1618.52 475.358 1618.52 475.962V478.457C1618.52 479.213 1618.66 479.866 1618.93 480.416C1619.22 480.966 1619.62 481.391 1620.14 481.689C1620.65 481.987 1621.27 482.136 1621.98 482.136C1622.45 482.136 1622.88 482.07 1623.27 481.938C1623.66 481.805 1623.99 481.606 1624.27 481.341C1624.55 481.076 1624.76 480.751 1624.91 480.366L1628.83 480.625C1628.63 481.566 1628.22 482.388 1627.6 483.091C1626.99 483.787 1626.21 484.33 1625.24 484.722C1624.28 485.106 1623.17 485.298 1621.91 485.298ZM1495.65 519.249C1494.49 519.249 1493.44 518.95 1492.5 518.354C1491.57 517.75 1490.83 516.866 1490.27 515.699C1489.73 514.526 1489.46 513.087 1489.46 511.384C1489.46 509.634 1489.74 508.179 1490.3 507.018C1490.87 505.852 1491.62 504.98 1492.55 504.403C1493.49 503.82 1494.52 503.528 1495.64 503.528C1496.5 503.528 1497.21 503.674 1497.78 503.966C1498.36 504.251 1498.82 504.609 1499.17 505.04C1499.53 505.464 1499.8 505.882 1499.99 506.293H1500.12V498.636H1504.34V519H1500.17V516.554H1499.99C1499.79 516.978 1499.51 517.399 1499.14 517.817C1498.79 518.228 1498.32 518.569 1497.74 518.841C1497.17 519.113 1496.48 519.249 1495.65 519.249ZM1497 515.878C1497.68 515.878 1498.26 515.692 1498.73 515.321C1499.2 514.943 1499.57 514.416 1499.82 513.74C1500.08 513.064 1500.21 512.272 1500.21 511.364C1500.21 510.455 1500.08 509.667 1499.83 508.997C1499.58 508.328 1499.21 507.811 1498.74 507.446C1498.26 507.081 1497.68 506.899 1497 506.899C1496.3 506.899 1495.71 507.088 1495.24 507.466C1494.76 507.844 1494.4 508.367 1494.15 509.037C1493.91 509.706 1493.78 510.482 1493.78 511.364C1493.78 512.252 1493.91 513.037 1494.15 513.72C1494.4 514.396 1494.77 514.927 1495.24 515.311C1495.71 515.689 1496.3 515.878 1497 515.878ZM1514.79 519.298C1513.22 519.298 1511.86 518.98 1510.73 518.344C1509.6 517.701 1508.74 516.793 1508.13 515.619C1507.52 514.439 1507.21 513.044 1507.21 511.433C1507.21 509.862 1507.52 508.483 1508.13 507.297C1508.74 506.11 1509.59 505.186 1510.7 504.523C1511.81 503.86 1513.12 503.528 1514.62 503.528C1515.63 503.528 1516.56 503.691 1517.43 504.016C1518.31 504.334 1519.07 504.814 1519.72 505.457C1520.38 506.1 1520.89 506.909 1521.25 507.884C1521.61 508.851 1521.8 509.985 1521.8 511.284V512.447H1508.9V509.822H1517.81C1517.81 509.213 1517.68 508.672 1517.41 508.202C1517.15 507.731 1516.78 507.363 1516.31 507.098C1515.84 506.826 1515.3 506.69 1514.69 506.69C1514.04 506.69 1513.47 506.839 1512.98 507.138C1512.49 507.429 1512.1 507.824 1511.82 508.321C1511.55 508.812 1511.4 509.358 1511.4 509.962V512.457C1511.4 513.213 1511.54 513.866 1511.81 514.416C1512.1 514.966 1512.5 515.391 1513.02 515.689C1513.53 515.987 1514.15 516.136 1514.86 516.136C1515.33 516.136 1515.76 516.07 1516.15 515.938C1516.54 515.805 1516.88 515.606 1517.15 515.341C1517.43 515.076 1517.64 514.751 1517.79 514.366L1521.71 514.625C1521.51 515.566 1521.1 516.388 1520.48 517.091C1519.87 517.787 1519.09 518.33 1518.12 518.722C1517.16 519.106 1516.05 519.298 1514.79 519.298ZM1538.39 503.727L1533.05 519H1528.28L1522.94 503.727H1527.41L1530.58 514.655H1530.74L1533.91 503.727H1538.39ZM1540.56 519V503.727H1544.79V519H1540.56ZM1542.69 501.759C1542.06 501.759 1541.52 501.55 1541.06 501.132C1540.62 500.708 1540.4 500.201 1540.4 499.611C1540.4 499.027 1540.62 498.527 1541.06 498.109C1541.52 497.685 1542.06 497.473 1542.69 497.473C1543.32 497.473 1543.85 497.685 1544.3 498.109C1544.75 498.527 1544.97 499.027 1544.97 499.611C1544.97 500.201 1544.75 500.708 1544.3 501.132C1543.85 501.55 1543.32 501.759 1542.69 501.759ZM1555.09 519.298C1553.52 519.298 1552.18 518.967 1551.05 518.304C1549.93 517.634 1549.07 516.706 1548.46 515.52C1547.87 514.333 1547.57 512.968 1547.57 511.423C1547.57 509.859 1547.87 508.487 1548.47 507.307C1549.08 506.12 1549.95 505.196 1551.07 504.533C1552.19 503.863 1553.52 503.528 1555.07 503.528C1556.4 503.528 1557.57 503.77 1558.57 504.254C1559.57 504.738 1560.36 505.418 1560.94 506.293C1561.53 507.168 1561.85 508.195 1561.91 509.375H1557.91C1557.8 508.613 1557.5 508 1557.02 507.536C1556.54 507.065 1555.91 506.83 1555.14 506.83C1554.48 506.83 1553.91 507.009 1553.42 507.366C1552.93 507.718 1552.55 508.232 1552.28 508.908C1552.01 509.584 1551.88 510.402 1551.88 511.364C1551.88 512.338 1552.01 513.167 1552.27 513.849C1552.54 514.532 1552.93 515.053 1553.42 515.411C1553.91 515.768 1554.48 515.947 1555.14 515.947C1555.62 515.947 1556.05 515.848 1556.44 515.649C1556.83 515.45 1557.15 515.162 1557.4 514.784C1557.66 514.4 1557.83 513.939 1557.91 513.402H1561.91C1561.84 514.569 1561.52 515.596 1560.95 516.484C1560.39 517.366 1559.61 518.055 1558.62 518.553C1557.62 519.05 1556.45 519.298 1555.09 519.298ZM1571.58 519.298C1570.01 519.298 1568.66 518.98 1567.52 518.344C1566.4 517.701 1565.53 516.793 1564.92 515.619C1564.31 514.439 1564 513.044 1564 511.433C1564 509.862 1564.31 508.483 1564.92 507.297C1565.53 506.11 1566.39 505.186 1567.49 504.523C1568.61 503.86 1569.91 503.528 1571.41 503.528C1572.42 503.528 1573.36 503.691 1574.23 504.016C1575.1 504.334 1575.86 504.814 1576.51 505.457C1577.17 506.1 1577.68 506.909 1578.04 507.884C1578.41 508.851 1578.59 509.985 1578.59 511.284V512.447H1565.69V509.822H1574.6C1574.6 509.213 1574.47 508.672 1574.21 508.202C1573.94 507.731 1573.57 507.363 1573.1 507.098C1572.64 506.826 1572.1 506.69 1571.48 506.69C1570.84 506.69 1570.27 506.839 1569.77 507.138C1569.28 507.429 1568.9 507.824 1568.62 508.321C1568.34 508.812 1568.2 509.358 1568.19 509.962V512.457C1568.19 513.213 1568.33 513.866 1568.61 514.416C1568.89 514.966 1569.29 515.391 1569.81 515.689C1570.33 515.987 1570.94 516.136 1571.65 516.136C1572.12 516.136 1572.55 516.07 1572.94 515.938C1573.33 515.805 1573.67 515.606 1573.95 515.341C1574.23 515.076 1574.44 514.751 1574.58 514.366L1578.5 514.625C1578.3 515.566 1577.89 516.388 1577.28 517.091C1576.67 517.787 1575.88 518.33 1574.91 518.722C1573.95 519.106 1572.84 519.298 1571.58 519.298Z" fill="white"/>
<rect x="79" y="405" width="375" height="167" fill="#2C6AB1" stroke="#233E5C" stroke-width="6"/>
<path d="M224.354 441.091H231.735V463.761C231.735 466.307 231.127 468.534 229.911 470.443C228.707 472.352 227.019 473.841 224.849 474.909C222.678 475.966 220.15 476.494 217.263 476.494C214.366 476.494 211.832 475.966 209.661 474.909C207.491 473.841 205.803 472.352 204.599 470.443C203.394 468.534 202.792 466.307 202.792 463.761V441.091H210.173V463.131C210.173 464.46 210.462 465.642 211.042 466.676C211.633 467.71 212.462 468.523 213.531 469.114C214.599 469.705 215.843 470 217.263 470C218.695 470 219.94 469.705 220.996 469.114C222.065 468.523 222.888 467.71 223.468 466.676C224.059 465.642 224.354 464.46 224.354 463.131V441.091ZM243.825 476H235.915L247.967 441.091H257.478L269.512 476H261.603L252.859 449.068H252.586L243.825 476ZM243.33 462.278H262.012V468.04H243.33V462.278ZM273.714 476V441.091H287.487C290.123 441.091 292.373 441.562 294.237 442.506C296.112 443.437 297.538 444.761 298.515 446.477C299.504 448.182 299.998 450.187 299.998 452.494C299.998 454.812 299.498 456.807 298.498 458.477C297.498 460.136 296.049 461.409 294.151 462.295C292.265 463.182 289.981 463.625 287.299 463.625H278.077V457.693H286.106C287.515 457.693 288.685 457.5 289.617 457.114C290.549 456.727 291.242 456.148 291.697 455.375C292.163 454.602 292.396 453.642 292.396 452.494C292.396 451.335 292.163 450.358 291.697 449.562C291.242 448.767 290.543 448.165 289.6 447.756C288.668 447.335 287.492 447.125 286.072 447.125H281.094V476H273.714ZM292.566 460.114L301.242 476H293.094L284.606 460.114H292.566ZM303.884 447.176V441.091H332.555V447.176H321.867V476H314.572V447.176H303.884ZM194.073 534H181.698V499.091H194.175C197.687 499.091 200.71 499.79 203.244 501.188C205.778 502.574 207.727 504.568 209.09 507.17C210.465 509.773 211.153 512.886 211.153 516.511C211.153 520.148 210.465 523.273 209.09 525.886C207.727 528.5 205.766 530.506 203.21 531.903C200.664 533.301 197.619 534 194.073 534ZM189.079 527.676H193.766C195.948 527.676 197.783 527.29 199.272 526.517C200.772 525.733 201.897 524.523 202.647 522.886C203.408 521.239 203.789 519.114 203.789 516.511C203.789 513.932 203.408 511.824 202.647 510.188C201.897 508.551 200.778 507.347 199.289 506.574C197.8 505.801 195.965 505.415 193.783 505.415H189.079V527.676ZM216.62 534V499.091H230.393C233.029 499.091 235.279 499.562 237.143 500.506C239.018 501.437 240.444 502.761 241.421 504.477C242.41 506.182 242.904 508.187 242.904 510.494C242.904 512.812 242.404 514.807 241.404 516.477C240.404 518.136 238.955 519.409 237.058 520.295C235.171 521.182 232.887 521.625 230.205 521.625H220.984V515.693H229.012C230.421 515.693 231.592 515.5 232.523 515.114C233.455 514.727 234.148 514.148 234.603 513.375C235.069 512.602 235.302 511.642 235.302 510.494C235.302 509.335 235.069 508.358 234.603 507.562C234.148 506.767 233.45 506.165 232.506 505.756C231.575 505.335 230.398 505.125 228.978 505.125H224.001V534H216.62ZM235.472 518.114L244.148 534H236.001L227.512 518.114H235.472ZM255.501 499.091V534H248.12V499.091H255.501ZM267.88 499.091L276.317 525.614H276.641L285.096 499.091H293.278L281.244 534H271.732L259.681 499.091H267.88ZM297.479 534V499.091H321.002V505.176H304.86V513.494H319.792V519.58H304.86V527.915H321.07V534H297.479ZM326.87 534V499.091H340.643C343.279 499.091 345.529 499.562 347.393 500.506C349.268 501.437 350.694 502.761 351.671 504.477C352.66 506.182 353.154 508.187 353.154 510.494C353.154 512.812 352.654 514.807 351.654 516.477C350.654 518.136 349.205 519.409 347.308 520.295C345.421 521.182 343.137 521.625 340.455 521.625H331.234V515.693H339.262C340.671 515.693 341.842 515.5 342.773 515.114C343.705 514.727 344.398 514.148 344.853 513.375C345.319 512.602 345.552 511.642 345.552 510.494C345.552 509.335 345.319 508.358 344.853 507.562C344.398 506.767 343.7 506.165 342.756 505.756C341.825 505.335 340.648 505.125 339.228 505.125H334.251V534H326.87ZM345.722 518.114L354.398 534H346.251L337.762 518.114H345.722Z" fill="white"/>
<rect x="1287" y="3" width="375" height="296" fill="#D75A49" stroke="#761A0D" stroke-width="6"/>
<path d="M1418.46 98.375C1418.22 97.5455 1417.89 96.8125 1417.46 96.1761C1417.03 95.5284 1416.5 94.983 1415.87 94.5398C1415.26 94.0852 1414.55 93.7386 1413.76 93.5C1412.97 93.2614 1412.11 93.142 1411.15 93.142C1409.37 93.142 1407.8 93.5852 1406.45 94.4716C1405.11 95.358 1404.06 96.6477 1403.31 98.3409C1402.56 100.023 1402.18 102.08 1402.18 104.511C1402.18 106.943 1402.55 109.011 1403.29 110.716C1404.03 112.42 1405.08 113.722 1406.43 114.619C1407.78 115.506 1409.38 115.949 1411.22 115.949C1412.89 115.949 1414.32 115.653 1415.5 115.062C1416.69 114.46 1417.6 113.614 1418.22 112.523C1418.86 111.432 1419.18 110.142 1419.18 108.653L1420.68 108.875H1411.68V103.318H1426.29V107.716C1426.29 110.784 1425.64 113.42 1424.34 115.625C1423.05 117.818 1421.26 119.511 1418.99 120.705C1416.72 121.886 1414.12 122.477 1411.18 122.477C1407.91 122.477 1405.04 121.756 1402.56 120.312C1400.08 118.858 1398.15 116.795 1396.76 114.125C1395.39 111.443 1394.7 108.261 1394.7 104.58C1394.7 101.75 1395.11 99.2273 1395.93 97.0114C1396.76 94.7841 1397.92 92.8977 1399.41 91.3523C1400.89 89.8068 1402.63 88.6307 1404.61 87.8239C1406.58 87.017 1408.72 86.6136 1411.03 86.6136C1413.01 86.6136 1414.85 86.9034 1416.55 87.483C1418.26 88.0511 1419.77 88.858 1421.09 89.9034C1422.42 90.9489 1423.5 92.1932 1424.34 93.6364C1425.18 95.0682 1425.72 96.6477 1425.96 98.375H1418.46ZM1453.39 87.0909H1460.77V109.761C1460.77 112.307 1460.17 114.534 1458.95 116.443C1457.75 118.352 1456.06 119.841 1453.89 120.909C1451.72 121.966 1449.19 122.494 1446.3 122.494C1443.4 122.494 1440.87 121.966 1438.7 120.909C1436.53 119.841 1434.84 118.352 1433.64 116.443C1432.43 114.534 1431.83 112.307 1431.83 109.761V87.0909H1439.21V109.131C1439.21 110.46 1439.5 111.642 1440.08 112.676C1440.67 113.71 1441.5 114.523 1442.57 115.114C1443.64 115.705 1444.88 116 1446.3 116C1447.73 116 1448.98 115.705 1450.04 115.114C1451.1 114.523 1451.93 113.71 1452.51 112.676C1453.1 111.642 1453.39 110.46 1453.39 109.131V87.0909ZM1466.85 122V87.0909H1490.37V93.1761H1474.23V101.494H1489.16V107.58H1474.23V115.915H1490.44V122H1466.85ZM1515.17 97.1307C1515.04 95.7557 1514.45 94.6875 1513.42 93.9261C1512.38 93.1648 1510.98 92.7841 1509.21 92.7841C1508 92.7841 1506.99 92.9545 1506.16 93.2955C1505.33 93.625 1504.69 94.0852 1504.25 94.6761C1503.82 95.267 1503.6 95.9375 1503.6 96.6875C1503.58 97.3125 1503.71 97.858 1503.99 98.3239C1504.29 98.7898 1504.69 99.1932 1505.2 99.5341C1505.71 99.8636 1506.31 100.153 1506.98 100.403C1507.65 100.642 1508.36 100.847 1509.12 101.017L1512.26 101.767C1513.78 102.108 1515.18 102.562 1516.45 103.131C1517.73 103.699 1518.83 104.398 1519.76 105.227C1520.69 106.057 1521.41 107.034 1521.92 108.159C1522.45 109.284 1522.71 110.574 1522.73 112.028C1522.71 114.165 1522.17 116.017 1521.09 117.585C1520.02 119.142 1518.48 120.352 1516.45 121.216C1514.44 122.068 1512.02 122.494 1509.17 122.494C1506.36 122.494 1503.9 122.062 1501.81 121.199C1499.73 120.335 1498.11 119.057 1496.94 117.364C1495.78 115.659 1495.17 113.551 1495.11 111.04H1502.25C1502.33 112.21 1502.67 113.187 1503.26 113.972C1503.86 114.744 1504.66 115.33 1505.66 115.727C1506.67 116.114 1507.82 116.307 1509.09 116.307C1510.34 116.307 1511.42 116.125 1512.35 115.761C1513.28 115.398 1514 114.892 1514.51 114.244C1515.02 113.597 1515.28 112.852 1515.28 112.011C1515.28 111.227 1515.04 110.568 1514.58 110.034C1514.12 109.5 1513.45 109.045 1512.57 108.67C1511.69 108.295 1510.62 107.955 1509.35 107.648L1505.54 106.693C1502.6 105.977 1500.28 104.858 1498.57 103.335C1496.87 101.812 1496.02 99.7614 1496.03 97.1818C1496.02 95.0682 1496.58 93.2216 1497.72 91.642C1498.87 90.0625 1500.44 88.8295 1502.44 87.9432C1504.44 87.0568 1506.71 86.6136 1509.26 86.6136C1511.85 86.6136 1514.11 87.0568 1516.04 87.9432C1517.99 88.8295 1519.5 90.0625 1520.58 91.642C1521.66 93.2216 1522.21 95.0511 1522.25 97.1307H1515.17ZM1526.36 93.1761V87.0909H1555.03V93.1761H1544.34V122H1537.05V93.1761H1526.36Z" fill="white"/>
<path fill-rule="evenodd" clip-rule="evenodd" d="M1061 663.852L1095.61 662.475L1087.97 650.367L1260.24 541.557L1267.89 553.665L1284 523L1249.39 524.377L1257.03 536.484L1084.76 645.295L1077.12 633.187L1061 663.852ZM1284.07 462.999L1249.5 460.846L1257.42 448.913L1084.34 334.084L1076.42 346.017L1061 314.999L1095.57 317.152L1087.66 329.085L1260.73 443.914L1268.65 431.981L1284.07 462.999Z" fill="black"/>
<path fill-rule="evenodd" clip-rule="evenodd" d="M680.072 312L645.458 313.377L653.106 325.484L480.834 434.295L473.187 422.187L457.072 452.852L491.686 451.475L484.038 439.367L656.31 330.557L663.957 342.665L680.072 312ZM457 512.853L491.574 515.005L483.657 526.938L656.732 641.767L664.649 629.834L680.072 660.853L645.498 658.7L653.415 646.767L480.34 531.938L472.423 543.871L457 512.853Z" fill="black"/>
<path d="M1540 445L1557.32 415L1522.68 415L1540 445ZM1540 273L1522.68 303L1557.32 303L1540 273ZM1543 418L1543 300L1537 300L1537 418L1543 418Z" fill="black"/>
<rect x="1322" y="160" width="310" height="113" fill="#761A0D"/>
<path d="M1385.26 190.545L1379.16 208H1373.7L1367.6 190.545H1372.71L1376.34 203.034H1376.52L1380.13 190.545H1385.26ZM1387.74 208V190.545H1392.58V208H1387.74ZM1390.17 188.295C1389.45 188.295 1388.83 188.057 1388.31 187.58C1387.81 187.095 1387.55 186.515 1387.55 185.841C1387.55 185.174 1387.81 184.602 1388.31 184.125C1388.83 183.64 1389.45 183.398 1390.17 183.398C1390.89 183.398 1391.5 183.64 1392.01 184.125C1392.52 184.602 1392.78 185.174 1392.78 185.841C1392.78 186.515 1392.52 187.095 1392.01 187.58C1391.5 188.057 1390.89 188.295 1390.17 188.295ZM1396.45 208V190.545H1401.15V193.591H1401.33C1401.65 192.508 1402.18 191.689 1402.93 191.136C1403.68 190.576 1404.55 190.295 1405.52 190.295C1405.76 190.295 1406.03 190.311 1406.31 190.341C1406.59 190.371 1406.83 190.413 1407.05 190.466V194.761C1406.82 194.693 1406.5 194.633 1406.1 194.58C1405.7 194.527 1405.33 194.5 1405 194.5C1404.29 194.5 1403.65 194.655 1403.09 194.966C1402.54 195.269 1402.1 195.693 1401.77 196.239C1401.45 196.784 1401.3 197.413 1401.3 198.125V208H1396.45ZM1419.71 190.545V194.182H1409.2V190.545H1419.71ZM1411.58 186.364H1416.42V202.636C1416.42 203.083 1416.49 203.432 1416.63 203.682C1416.76 203.924 1416.95 204.095 1417.2 204.193C1417.45 204.292 1417.73 204.341 1418.06 204.341C1418.29 204.341 1418.51 204.322 1418.74 204.284C1418.97 204.239 1419.14 204.205 1419.26 204.182L1420.03 207.784C1419.78 207.86 1419.44 207.947 1419 208.045C1418.56 208.152 1418.03 208.216 1417.4 208.239C1416.23 208.284 1415.21 208.129 1414.33 207.773C1413.46 207.417 1412.78 206.864 1412.3 206.114C1411.81 205.364 1411.57 204.417 1411.58 203.273V186.364ZM1428.25 184.727V208H1423.33V184.727H1428.25ZM1453.68 196.364C1453.68 198.902 1453.2 201.061 1452.24 202.841C1451.28 204.621 1449.98 205.981 1448.33 206.92C1446.69 207.852 1444.84 208.318 1442.78 208.318C1440.72 208.318 1438.86 207.848 1437.22 206.909C1435.57 205.97 1434.27 204.61 1433.32 202.83C1432.36 201.049 1431.89 198.894 1431.89 196.364C1431.89 193.826 1432.36 191.667 1433.32 189.886C1434.27 188.106 1435.57 186.75 1437.22 185.818C1438.86 184.879 1440.72 184.409 1442.78 184.409C1444.84 184.409 1446.69 184.879 1448.33 185.818C1449.98 186.75 1451.28 188.106 1452.24 189.886C1453.2 191.667 1453.68 193.826 1453.68 196.364ZM1448.69 196.364C1448.69 194.72 1448.45 193.333 1447.95 192.205C1447.47 191.076 1446.78 190.22 1445.9 189.636C1445.01 189.053 1443.97 188.761 1442.78 188.761C1441.59 188.761 1440.56 189.053 1439.67 189.636C1438.78 190.22 1438.09 191.076 1437.6 192.205C1437.12 193.333 1436.87 194.72 1436.87 196.364C1436.87 198.008 1437.12 199.394 1437.6 200.523C1438.09 201.652 1438.78 202.508 1439.67 203.091C1440.56 203.674 1441.59 203.966 1442.78 203.966C1443.97 203.966 1445.01 203.674 1445.9 203.091C1446.78 202.508 1447.47 201.652 1447.95 200.523C1448.45 199.394 1448.69 198.008 1448.69 196.364ZM1472.53 208.341C1470.74 208.341 1469.2 207.962 1467.91 207.205C1466.63 206.439 1465.65 205.379 1464.96 204.023C1464.28 202.667 1463.94 201.106 1463.94 199.341C1463.94 197.553 1464.28 195.985 1464.97 194.636C1465.67 193.28 1466.66 192.223 1467.94 191.466C1469.22 190.701 1470.74 190.318 1472.51 190.318C1474.03 190.318 1475.36 190.595 1476.51 191.148C1477.65 191.701 1478.55 192.477 1479.22 193.477C1479.89 194.477 1480.26 195.652 1480.32 197H1475.76C1475.63 196.129 1475.29 195.428 1474.73 194.898C1474.19 194.36 1473.47 194.091 1472.58 194.091C1471.83 194.091 1471.18 194.295 1470.62 194.705C1470.07 195.106 1469.63 195.693 1469.32 196.466C1469.01 197.239 1468.86 198.174 1468.86 199.273C1468.86 200.386 1469.01 201.333 1469.31 202.114C1469.62 202.894 1470.06 203.489 1470.62 203.898C1471.18 204.307 1471.83 204.511 1472.58 204.511C1473.14 204.511 1473.63 204.398 1474.07 204.17C1474.52 203.943 1474.89 203.614 1475.18 203.182C1475.47 202.742 1475.66 202.216 1475.76 201.602H1480.32C1480.25 202.936 1479.88 204.11 1479.23 205.125C1478.59 206.133 1477.7 206.92 1476.56 207.489C1475.43 208.057 1474.08 208.341 1472.53 208.341ZM1491.31 208.341C1489.54 208.341 1488.02 207.966 1486.73 207.216C1485.45 206.458 1484.46 205.405 1483.76 204.057C1483.07 202.701 1482.72 201.129 1482.72 199.341C1482.72 197.538 1483.07 195.962 1483.76 194.614C1484.46 193.258 1485.45 192.205 1486.73 191.455C1488.02 190.697 1489.54 190.318 1491.31 190.318C1493.07 190.318 1494.6 190.697 1495.88 191.455C1497.17 192.205 1498.16 193.258 1498.85 194.614C1499.55 195.962 1499.9 197.538 1499.9 199.341C1499.9 201.129 1499.55 202.701 1498.85 204.057C1498.16 205.405 1497.17 206.458 1495.88 207.216C1494.6 207.966 1493.07 208.341 1491.31 208.341ZM1491.33 204.591C1492.14 204.591 1492.81 204.364 1493.34 203.909C1493.88 203.447 1494.29 202.818 1494.56 202.023C1494.84 201.227 1494.98 200.322 1494.98 199.307C1494.98 198.292 1494.84 197.386 1494.56 196.591C1494.29 195.795 1493.88 195.167 1493.34 194.705C1492.81 194.242 1492.14 194.011 1491.33 194.011C1490.52 194.011 1489.84 194.242 1489.29 194.705C1488.74 195.167 1488.33 195.795 1488.05 196.591C1487.78 197.386 1487.64 198.292 1487.64 199.307C1487.64 200.322 1487.78 201.227 1488.05 202.023C1488.33 202.818 1488.74 203.447 1489.29 203.909C1489.84 204.364 1490.52 204.591 1491.33 204.591ZM1507.89 197.909V208H1503.05V190.545H1507.66V193.625H1507.87C1508.25 192.61 1508.9 191.807 1509.81 191.216C1510.72 190.617 1511.82 190.318 1513.12 190.318C1514.33 190.318 1515.39 190.583 1516.29 191.114C1517.19 191.644 1517.89 192.402 1518.39 193.386C1518.89 194.364 1519.14 195.53 1519.14 196.886V208H1514.3V197.75C1514.31 196.682 1514.03 195.848 1513.48 195.25C1512.93 194.644 1512.17 194.341 1511.2 194.341C1510.54 194.341 1509.97 194.481 1509.47 194.761C1508.98 195.042 1508.59 195.451 1508.31 195.989C1508.04 196.519 1507.9 197.159 1507.89 197.909ZM1537.48 195.523L1533.05 195.795C1532.97 195.417 1532.81 195.076 1532.56 194.773C1532.31 194.462 1531.98 194.216 1531.57 194.034C1531.17 193.845 1530.69 193.75 1530.12 193.75C1529.37 193.75 1528.74 193.909 1528.23 194.227C1527.71 194.538 1527.45 194.955 1527.45 195.477C1527.45 195.894 1527.62 196.246 1527.95 196.534C1528.29 196.822 1528.86 197.053 1529.67 197.227L1532.83 197.864C1534.53 198.212 1535.79 198.773 1536.62 199.545C1537.46 200.318 1537.87 201.333 1537.87 202.591C1537.87 203.735 1537.54 204.739 1536.86 205.602C1536.2 206.466 1535.28 207.14 1534.11 207.625C1532.95 208.102 1531.62 208.341 1530.1 208.341C1527.79 208.341 1525.95 207.86 1524.58 206.898C1523.22 205.928 1522.42 204.61 1522.18 202.943L1526.94 202.693C1527.09 203.398 1527.44 203.936 1527.99 204.307C1528.54 204.67 1529.25 204.852 1530.11 204.852C1530.96 204.852 1531.64 204.689 1532.16 204.364C1532.68 204.03 1532.95 203.602 1532.95 203.08C1532.95 202.64 1532.76 202.28 1532.4 202C1532.03 201.712 1531.47 201.492 1530.72 201.341L1527.69 200.739C1525.99 200.398 1524.72 199.807 1523.89 198.966C1523.06 198.125 1522.65 197.053 1522.65 195.75C1522.65 194.629 1522.95 193.663 1523.56 192.852C1524.17 192.042 1525.03 191.417 1526.14 190.977C1527.25 190.538 1528.55 190.318 1530.05 190.318C1532.25 190.318 1533.98 190.784 1535.25 191.716C1536.52 192.648 1537.26 193.917 1537.48 195.523ZM1548.81 208.341C1547.04 208.341 1545.52 207.966 1544.23 207.216C1542.95 206.458 1541.96 205.405 1541.26 204.057C1540.57 202.701 1540.22 201.129 1540.22 199.341C1540.22 197.538 1540.57 195.962 1541.26 194.614C1541.96 193.258 1542.95 192.205 1544.23 191.455C1545.52 190.697 1547.04 190.318 1548.81 190.318C1550.57 190.318 1552.1 190.697 1553.38 191.455C1554.67 192.205 1555.66 193.258 1556.35 194.614C1557.05 195.962 1557.4 197.538 1557.4 199.341C1557.4 201.129 1557.05 202.701 1556.35 204.057C1555.66 205.405 1554.67 206.458 1553.38 207.216C1552.1 207.966 1550.57 208.341 1548.81 208.341ZM1548.83 204.591C1549.64 204.591 1550.31 204.364 1550.84 203.909C1551.38 203.447 1551.79 202.818 1552.06 202.023C1552.34 201.227 1552.48 200.322 1552.48 199.307C1552.48 198.292 1552.34 197.386 1552.06 196.591C1551.79 195.795 1551.38 195.167 1550.84 194.705C1550.31 194.242 1549.64 194.011 1548.83 194.011C1548.02 194.011 1547.34 194.242 1546.79 194.705C1546.24 195.167 1545.83 195.795 1545.55 196.591C1545.28 197.386 1545.14 198.292 1545.14 199.307C1545.14 200.322 1545.28 201.227 1545.55 202.023C1545.83 202.818 1546.24 203.447 1546.79 203.909C1547.34 204.364 1548.02 204.591 1548.83 204.591ZM1565.39 184.727V208H1560.55V184.727H1565.39ZM1577.22 208.341C1575.43 208.341 1573.88 207.977 1572.58 207.25C1571.3 206.515 1570.3 205.477 1569.61 204.136C1568.91 202.788 1568.56 201.193 1568.56 199.352C1568.56 197.557 1568.91 195.981 1569.61 194.625C1570.3 193.269 1571.29 192.212 1572.55 191.455C1573.82 190.697 1575.32 190.318 1577.03 190.318C1578.18 190.318 1579.25 190.504 1580.24 190.875C1581.24 191.239 1582.12 191.788 1582.86 192.523C1583.61 193.258 1584.19 194.182 1584.61 195.295C1585.02 196.402 1585.23 197.697 1585.23 199.182V200.511H1570.49V197.511H1580.68C1580.68 196.814 1580.52 196.197 1580.22 195.659C1579.92 195.121 1579.5 194.701 1578.96 194.398C1578.43 194.087 1577.81 193.932 1577.11 193.932C1576.37 193.932 1575.72 194.102 1575.15 194.443C1574.59 194.777 1574.15 195.227 1573.83 195.795C1573.52 196.356 1573.35 196.981 1573.35 197.67V200.523C1573.35 201.386 1573.51 202.133 1573.82 202.761C1574.15 203.39 1574.61 203.875 1575.2 204.216C1575.79 204.557 1576.49 204.727 1577.3 204.727C1577.84 204.727 1578.33 204.652 1578.78 204.5C1579.23 204.348 1579.61 204.121 1579.93 203.818C1580.24 203.515 1580.49 203.144 1580.65 202.705L1585.13 203C1584.9 204.076 1584.44 205.015 1583.73 205.818C1583.04 206.614 1582.13 207.235 1581.03 207.682C1579.93 208.121 1578.66 208.341 1577.22 208.341ZM1438.84 247.284C1437.51 247.284 1436.31 246.943 1435.24 246.261C1434.17 245.572 1433.32 244.561 1432.69 243.227C1432.07 241.886 1431.76 240.242 1431.76 238.295C1431.76 236.295 1432.08 234.633 1432.73 233.307C1433.37 231.973 1434.23 230.977 1435.29 230.318C1436.37 229.652 1437.55 229.318 1438.83 229.318C1439.81 229.318 1440.62 229.485 1441.27 229.818C1441.93 230.144 1442.46 230.553 1442.86 231.045C1443.27 231.53 1443.58 232.008 1443.79 232.477H1443.94V223.727H1448.77V247H1444V244.205H1443.79C1443.57 244.689 1443.24 245.17 1442.83 245.648C1442.42 246.117 1441.88 246.508 1441.23 246.818C1440.57 247.129 1439.78 247.284 1438.84 247.284ZM1440.37 243.432C1441.15 243.432 1441.81 243.22 1442.35 242.795C1442.9 242.364 1443.31 241.761 1443.6 240.989C1443.9 240.216 1444.04 239.311 1444.04 238.273C1444.04 237.235 1443.9 236.333 1443.61 235.568C1443.32 234.803 1442.91 234.212 1442.36 233.795C1441.82 233.379 1441.15 233.17 1440.37 233.17C1439.58 233.17 1438.91 233.386 1438.36 233.818C1437.82 234.25 1437.4 234.848 1437.12 235.614C1436.84 236.379 1436.7 237.265 1436.7 238.273C1436.7 239.288 1436.84 240.186 1437.12 240.966C1437.41 241.739 1437.82 242.345 1438.36 242.784C1438.91 243.216 1439.58 243.432 1440.37 243.432ZM1452.75 247V229.545H1457.44V232.591H1457.63C1457.94 231.508 1458.48 230.689 1459.23 230.136C1459.98 229.576 1460.84 229.295 1461.82 229.295C1462.06 229.295 1462.32 229.311 1462.6 229.341C1462.88 229.371 1463.13 229.413 1463.34 229.466V233.761C1463.11 233.693 1462.8 233.633 1462.4 233.58C1462 233.527 1461.63 233.5 1461.3 233.5C1460.58 233.5 1459.95 233.655 1459.39 233.966C1458.83 234.269 1458.4 234.693 1458.07 235.239C1457.75 235.784 1457.59 236.413 1457.59 237.125V247H1452.75ZM1465.84 247V229.545H1470.69V247H1465.84ZM1468.28 227.295C1467.56 227.295 1466.94 227.057 1466.42 226.58C1465.92 226.095 1465.66 225.515 1465.66 224.841C1465.66 224.174 1465.92 223.602 1466.42 223.125C1466.94 222.64 1467.56 222.398 1468.28 222.398C1469 222.398 1469.61 222.64 1470.12 223.125C1470.63 223.602 1470.89 224.174 1470.89 224.841C1470.89 225.515 1470.63 226.095 1470.12 226.58C1469.61 227.057 1469 227.295 1468.28 227.295ZM1490.84 229.545L1484.73 247H1479.28L1473.18 229.545H1478.29L1481.92 242.034H1482.1L1485.71 229.545H1490.84ZM1500.71 247.341C1498.91 247.341 1497.36 246.977 1496.07 246.25C1494.78 245.515 1493.79 244.477 1493.09 243.136C1492.4 241.788 1492.05 240.193 1492.05 238.352C1492.05 236.557 1492.4 234.981 1493.09 233.625C1493.79 232.269 1494.77 231.212 1496.04 230.455C1497.31 229.697 1498.8 229.318 1500.51 229.318C1501.66 229.318 1502.74 229.504 1503.73 229.875C1504.73 230.239 1505.6 230.788 1506.34 231.523C1507.09 232.258 1507.68 233.182 1508.09 234.295C1508.51 235.402 1508.72 236.697 1508.72 238.182V239.511H1493.98V236.511H1504.16C1504.16 235.814 1504.01 235.197 1503.71 234.659C1503.4 234.121 1502.98 233.701 1502.44 233.398C1501.91 233.087 1501.3 232.932 1500.59 232.932C1499.86 232.932 1499.21 233.102 1498.64 233.443C1498.08 233.777 1497.64 234.227 1497.32 234.795C1497 235.356 1496.84 235.981 1496.83 236.67V239.523C1496.83 240.386 1496.99 241.133 1497.31 241.761C1497.63 242.39 1498.09 242.875 1498.68 243.216C1499.27 243.557 1499.97 243.727 1500.79 243.727C1501.32 243.727 1501.82 243.652 1502.26 243.5C1502.71 243.348 1503.09 243.121 1503.41 242.818C1503.73 242.515 1503.97 242.144 1504.14 241.705L1508.61 242C1508.39 243.076 1507.92 244.015 1507.22 244.818C1506.52 245.614 1505.62 246.235 1504.51 246.682C1503.41 247.121 1502.15 247.341 1500.71 247.341ZM1511.88 247V229.545H1516.57V232.591H1516.75C1517.07 231.508 1517.6 230.689 1518.35 230.136C1519.1 229.576 1519.97 229.295 1520.94 229.295C1521.19 229.295 1521.45 229.311 1521.73 229.341C1522.01 229.371 1522.25 229.413 1522.47 229.466V233.761C1522.24 233.693 1521.93 233.633 1521.52 233.58C1521.12 233.527 1520.75 233.5 1520.42 233.5C1519.71 233.5 1519.07 233.655 1518.51 233.966C1517.96 234.269 1517.52 234.693 1517.19 235.239C1516.88 235.784 1516.72 236.413 1516.72 237.125V247H1511.88Z" fill="white"/>
<rect x="3" y="174" width="1197" height="630" stroke="#ADADAD" stroke-width="6" stroke-dasharray="12 12"/>
<path d="M347.143 103.284L340.495 103.693C340.381 103.125 340.137 102.614 339.762 102.159C339.387 101.693 338.893 101.324 338.279 101.051C337.677 100.767 336.955 100.625 336.114 100.625C334.989 100.625 334.04 100.864 333.268 101.341C332.495 101.807 332.109 102.432 332.109 103.216C332.109 103.841 332.359 104.369 332.859 104.801C333.359 105.233 334.217 105.58 335.433 105.841L340.171 106.795C342.717 107.318 344.614 108.159 345.864 109.318C347.114 110.477 347.739 112 347.739 113.886C347.739 115.602 347.234 117.108 346.222 118.403C345.222 119.699 343.847 120.71 342.097 121.438C340.359 122.153 338.353 122.511 336.08 122.511C332.614 122.511 329.853 121.79 327.796 120.347C325.751 118.892 324.552 116.915 324.2 114.415L331.342 114.04C331.558 115.097 332.08 115.903 332.91 116.46C333.739 117.006 334.802 117.278 336.097 117.278C337.37 117.278 338.393 117.034 339.165 116.545C339.95 116.045 340.347 115.403 340.359 114.619C340.347 113.96 340.069 113.42 339.523 113C338.978 112.568 338.137 112.239 337.001 112.011L332.467 111.108C329.91 110.597 328.006 109.71 326.756 108.449C325.518 107.187 324.898 105.58 324.898 103.625C324.898 101.943 325.353 100.494 326.262 99.2784C327.183 98.0625 328.472 97.125 330.131 96.4659C331.802 95.8068 333.756 95.4773 335.995 95.4773C339.302 95.4773 341.904 96.1761 343.802 97.5739C345.711 98.9716 346.825 100.875 347.143 103.284ZM364.823 122H352.448V87.0909H364.925C368.437 87.0909 371.46 87.7898 373.994 89.1875C376.528 90.5739 378.477 92.5682 379.84 95.1705C381.215 97.7727 381.903 100.886 381.903 104.511C381.903 108.148 381.215 111.273 379.84 113.886C378.477 116.5 376.516 118.506 373.96 119.903C371.414 121.301 368.369 122 364.823 122ZM359.829 115.676H364.516C366.698 115.676 368.533 115.29 370.022 114.517C371.522 113.733 372.647 112.523 373.397 110.886C374.158 109.239 374.539 107.114 374.539 104.511C374.539 101.932 374.158 99.8239 373.397 98.1875C372.647 96.5511 371.528 95.3466 370.039 94.5739C368.55 93.8011 366.715 93.4148 364.533 93.4148H359.829V115.676ZM399.745 122H387.37V87.0909H399.847C403.359 87.0909 406.381 87.7898 408.915 89.1875C411.45 90.5739 413.398 92.5682 414.762 95.1705C416.137 97.7727 416.825 100.886 416.825 104.511C416.825 108.148 416.137 111.273 414.762 113.886C413.398 116.5 411.438 118.506 408.881 119.903C406.336 121.301 403.29 122 399.745 122ZM394.751 115.676H399.438C401.62 115.676 403.455 115.29 404.944 114.517C406.444 113.733 407.569 112.523 408.319 110.886C409.08 109.239 409.461 107.114 409.461 104.511C409.461 101.932 409.08 99.8239 408.319 98.1875C407.569 96.5511 406.45 95.3466 404.961 94.5739C403.472 93.8011 401.637 93.4148 399.455 93.4148H394.751V115.676ZM422.292 122V87.0909H445.406V93.1761H429.673V101.494H443.871V107.58H429.673V122H422.292ZM483.127 103.284L476.479 103.693C476.366 103.125 476.121 102.614 475.746 102.159C475.371 101.693 474.877 101.324 474.263 101.051C473.661 100.767 472.94 100.625 472.099 100.625C470.974 100.625 470.025 100.864 469.252 101.341C468.479 101.807 468.093 102.432 468.093 103.216C468.093 103.841 468.343 104.369 468.843 104.801C469.343 105.233 470.201 105.58 471.417 105.841L476.156 106.795C478.701 107.318 480.599 108.159 481.849 109.318C483.099 110.477 483.724 112 483.724 113.886C483.724 115.602 483.218 117.108 482.207 118.403C481.207 119.699 479.832 120.71 478.082 121.438C476.343 122.153 474.337 122.511 472.065 122.511C468.599 122.511 465.837 121.79 463.781 120.347C461.735 118.892 460.536 116.915 460.184 114.415L467.326 114.04C467.542 115.097 468.065 115.903 468.894 116.46C469.724 117.006 470.786 117.278 472.082 117.278C473.354 117.278 474.377 117.034 475.15 116.545C475.934 116.045 476.332 115.403 476.343 114.619C476.332 113.96 476.053 113.42 475.508 113C474.962 112.568 474.121 112.239 472.985 112.011L468.451 111.108C465.894 110.597 463.991 109.71 462.741 108.449C461.502 107.187 460.883 105.58 460.883 103.625C460.883 101.943 461.337 100.494 462.246 99.2784C463.167 98.0625 464.457 97.125 466.116 96.4659C467.786 95.8068 469.741 95.4773 471.979 95.4773C475.286 95.4773 477.888 96.1761 479.786 97.5739C481.695 98.9716 482.809 100.875 483.127 103.284ZM500.228 122.511C497.535 122.511 495.217 121.966 493.273 120.875C491.342 119.773 489.853 118.216 488.808 116.205C487.762 114.182 487.239 111.79 487.239 109.028C487.239 106.335 487.762 103.972 488.808 101.938C489.853 99.9034 491.325 98.3182 493.222 97.1818C495.131 96.0455 497.37 95.4773 499.938 95.4773C501.665 95.4773 503.273 95.7557 504.762 96.3125C506.262 96.858 507.569 97.6818 508.683 98.7841C509.808 99.8864 510.683 101.273 511.308 102.943C511.933 104.602 512.245 106.545 512.245 108.773V110.767H490.137V106.267H505.41C505.41 105.222 505.183 104.295 504.728 103.489C504.273 102.682 503.643 102.051 502.836 101.597C502.04 101.131 501.114 100.898 500.058 100.898C498.955 100.898 497.978 101.153 497.126 101.665C496.285 102.165 495.626 102.841 495.148 103.693C494.671 104.534 494.427 105.472 494.415 106.506V110.784C494.415 112.08 494.654 113.199 495.131 114.142C495.62 115.085 496.308 115.812 497.194 116.324C498.08 116.835 499.131 117.091 500.347 117.091C501.154 117.091 501.893 116.977 502.563 116.75C503.234 116.523 503.808 116.182 504.285 115.727C504.762 115.273 505.126 114.716 505.376 114.057L512.092 114.5C511.751 116.114 511.052 117.523 509.995 118.727C508.95 119.92 507.597 120.852 505.938 121.523C504.29 122.182 502.387 122.511 500.228 122.511ZM516.984 122V95.8182H524.023V100.386H524.296C524.773 98.7614 525.575 97.5341 526.7 96.7045C527.825 95.8636 529.12 95.4432 530.586 95.4432C530.95 95.4432 531.342 95.4659 531.762 95.5114C532.183 95.5568 532.552 95.6193 532.87 95.6989V102.142C532.529 102.04 532.058 101.949 531.455 101.869C530.853 101.79 530.302 101.75 529.802 101.75C528.734 101.75 527.779 101.983 526.938 102.449C526.109 102.903 525.45 103.54 524.961 104.358C524.484 105.176 524.245 106.119 524.245 107.188V122H516.984ZM536.624 122V95.8182H543.886V122H536.624ZM540.272 92.4432C539.192 92.4432 538.266 92.0852 537.494 91.3693C536.732 90.642 536.352 89.7727 536.352 88.7614C536.352 87.7614 536.732 86.9034 537.494 86.1875C538.266 85.4602 539.192 85.0966 540.272 85.0966C541.352 85.0966 542.272 85.4602 543.033 86.1875C543.806 86.9034 544.192 87.7614 544.192 88.7614C544.192 89.7727 543.806 90.642 543.033 91.3693C542.272 92.0852 541.352 92.4432 540.272 92.4432ZM557.168 122.494C555.498 122.494 554.009 122.205 552.702 121.625C551.396 121.034 550.362 120.165 549.6 119.017C548.85 117.858 548.475 116.415 548.475 114.688C548.475 113.233 548.742 112.011 549.276 111.023C549.81 110.034 550.538 109.239 551.458 108.636C552.379 108.034 553.424 107.58 554.594 107.273C555.776 106.966 557.015 106.75 558.31 106.625C559.833 106.466 561.06 106.318 561.992 106.182C562.924 106.034 563.6 105.818 564.021 105.534C564.441 105.25 564.651 104.83 564.651 104.273V104.17C564.651 103.091 564.31 102.256 563.629 101.665C562.958 101.074 562.004 100.778 560.765 100.778C559.458 100.778 558.418 101.068 557.646 101.648C556.873 102.216 556.362 102.932 556.112 103.795L549.396 103.25C549.737 101.659 550.407 100.284 551.407 99.125C552.407 97.9545 553.697 97.0568 555.276 96.4318C556.867 95.7955 558.708 95.4773 560.799 95.4773C562.254 95.4773 563.646 95.6477 564.975 95.9886C566.316 96.3295 567.504 96.858 568.538 97.5739C569.583 98.2898 570.407 99.2102 571.009 100.335C571.612 101.449 571.913 102.784 571.913 104.341V122H565.026V118.369H564.822C564.401 119.188 563.839 119.909 563.134 120.534C562.43 121.148 561.583 121.631 560.594 121.983C559.606 122.324 558.464 122.494 557.168 122.494ZM559.248 117.483C560.316 117.483 561.259 117.273 562.077 116.852C562.896 116.42 563.538 115.841 564.004 115.114C564.469 114.386 564.702 113.562 564.702 112.642V109.864C564.475 110.011 564.163 110.148 563.765 110.273C563.379 110.386 562.941 110.494 562.452 110.597C561.964 110.687 561.475 110.773 560.987 110.852C560.498 110.92 560.055 110.983 559.657 111.04C558.805 111.165 558.06 111.364 557.424 111.636C556.788 111.909 556.293 112.278 555.941 112.744C555.589 113.199 555.413 113.767 555.413 114.449C555.413 115.438 555.771 116.193 556.487 116.716C557.214 117.227 558.134 117.483 559.248 117.483ZM584.808 87.0909V122H577.546V87.0909H584.808ZM623.518 103.284L616.87 103.693C616.756 103.125 616.512 102.614 616.137 102.159C615.762 101.693 615.268 101.324 614.654 101.051C614.052 100.767 613.33 100.625 612.489 100.625C611.364 100.625 610.415 100.864 609.643 101.341C608.87 101.807 608.484 102.432 608.484 103.216C608.484 103.841 608.734 104.369 609.234 104.801C609.734 105.233 610.592 105.58 611.808 105.841L616.546 106.795C619.092 107.318 620.989 108.159 622.239 109.318C623.489 110.477 624.114 112 624.114 113.886C624.114 115.602 623.609 117.108 622.597 118.403C621.597 119.699 620.222 120.71 618.472 121.438C616.734 122.153 614.728 122.511 612.455 122.511C608.989 122.511 606.228 121.79 604.171 120.347C602.126 118.892 600.927 116.915 600.575 114.415L607.717 114.04C607.933 115.097 608.455 115.903 609.285 116.46C610.114 117.006 611.177 117.278 612.472 117.278C613.745 117.278 614.768 117.034 615.54 116.545C616.325 116.045 616.722 115.403 616.734 114.619C616.722 113.96 616.444 113.42 615.898 113C615.353 112.568 614.512 112.239 613.376 112.011L608.842 111.108C606.285 110.597 604.381 109.71 603.131 108.449C601.893 107.187 601.273 105.58 601.273 103.625C601.273 101.943 601.728 100.494 602.637 99.2784C603.558 98.0625 604.847 97.125 606.506 96.4659C608.177 95.8068 610.131 95.4773 612.37 95.4773C615.677 95.4773 618.279 96.1761 620.177 97.5739C622.086 98.9716 623.2 100.875 623.518 103.284ZM645.477 110.852V95.8182H652.738V122H645.766V117.244H645.494C644.903 118.778 643.92 120.011 642.545 120.943C641.181 121.875 639.516 122.341 637.55 122.341C635.8 122.341 634.261 121.943 632.931 121.148C631.602 120.352 630.562 119.222 629.812 117.756C629.073 116.29 628.698 114.534 628.687 112.489V95.8182H635.948V111.193C635.96 112.739 636.374 113.96 637.192 114.858C638.011 115.756 639.107 116.205 640.482 116.205C641.357 116.205 642.175 116.006 642.937 115.608C643.698 115.199 644.312 114.597 644.778 113.801C645.255 113.006 645.488 112.023 645.477 110.852ZM658.683 122V87.0909H665.944V100.216H666.165C666.484 99.5114 666.944 98.7955 667.546 98.0682C668.16 97.3295 668.955 96.7159 669.933 96.2273C670.921 95.7273 672.148 95.4773 673.614 95.4773C675.523 95.4773 677.285 95.9773 678.898 96.9773C680.512 97.9659 681.802 99.4602 682.768 101.46C683.734 103.449 684.217 105.943 684.217 108.943C684.217 111.864 683.745 114.33 682.802 116.341C681.87 118.341 680.597 119.858 678.984 120.892C677.381 121.915 675.586 122.426 673.597 122.426C672.188 122.426 670.989 122.193 670.001 121.727C669.023 121.261 668.222 120.676 667.597 119.972C666.972 119.256 666.495 118.534 666.165 117.807H665.842V122H658.683ZM665.79 108.909C665.79 110.466 666.006 111.824 666.438 112.983C666.87 114.142 667.495 115.045 668.313 115.693C669.131 116.33 670.126 116.648 671.296 116.648C672.478 116.648 673.478 116.324 674.296 115.676C675.114 115.017 675.734 114.108 676.154 112.949C676.586 111.778 676.802 110.432 676.802 108.909C676.802 107.398 676.592 106.068 676.171 104.92C675.751 103.773 675.131 102.875 674.313 102.227C673.495 101.58 672.489 101.256 671.296 101.256C670.114 101.256 669.114 101.568 668.296 102.193C667.489 102.818 666.87 103.705 666.438 104.852C666.006 106 665.79 107.352 665.79 108.909ZM705.374 104.784V110.545H689.454V104.784H705.374ZM733.346 103.284L726.698 103.693C726.585 103.125 726.34 102.614 725.965 102.159C725.59 101.693 725.096 101.324 724.482 101.051C723.88 100.767 723.158 100.625 722.317 100.625C721.192 100.625 720.244 100.864 719.471 101.341C718.698 101.807 718.312 102.432 718.312 103.216C718.312 103.841 718.562 104.369 719.062 104.801C719.562 105.233 720.42 105.58 721.636 105.841L726.374 106.795C728.92 107.318 730.817 108.159 732.067 109.318C733.317 110.477 733.942 112 733.942 113.886C733.942 115.602 733.437 117.108 732.425 118.403C731.425 119.699 730.05 120.71 728.3 121.438C726.562 122.153 724.556 122.511 722.283 122.511C718.817 122.511 716.056 121.79 713.999 120.347C711.954 118.892 710.755 116.915 710.403 114.415L717.545 114.04C717.761 115.097 718.283 115.903 719.113 116.46C719.942 117.006 721.005 117.278 722.3 117.278C723.573 117.278 724.596 117.034 725.369 116.545C726.153 116.045 726.55 115.403 726.562 114.619C726.55 113.96 726.272 113.42 725.727 113C725.181 112.568 724.34 112.239 723.204 112.011L718.67 111.108C716.113 110.597 714.21 109.71 712.96 108.449C711.721 107.187 711.102 105.58 711.102 103.625C711.102 101.943 711.556 100.494 712.465 99.2784C713.386 98.0625 714.675 97.125 716.335 96.4659C718.005 95.8068 719.96 95.4773 722.198 95.4773C725.505 95.4773 728.107 96.1761 730.005 97.5739C731.914 98.9716 733.028 100.875 733.346 103.284ZM742.998 131.818C742.077 131.818 741.214 131.744 740.407 131.597C739.612 131.46 738.952 131.284 738.43 131.068L740.066 125.648C740.918 125.909 741.685 126.051 742.367 126.074C743.06 126.097 743.657 125.938 744.157 125.597C744.668 125.256 745.083 124.676 745.401 123.858L745.827 122.75L736.435 95.8182H744.072L749.492 115.045H749.765L755.237 95.8182H762.924L752.748 124.83C752.259 126.239 751.594 127.466 750.754 128.511C749.924 129.568 748.873 130.381 747.6 130.949C746.327 131.528 744.793 131.818 742.998 131.818ZM788.424 103.284L781.776 103.693C781.663 103.125 781.418 102.614 781.043 102.159C780.668 101.693 780.174 101.324 779.56 101.051C778.958 100.767 778.237 100.625 777.396 100.625C776.271 100.625 775.322 100.864 774.549 101.341C773.776 101.807 773.39 102.432 773.39 103.216C773.39 103.841 773.64 104.369 774.14 104.801C774.64 105.233 775.498 105.58 776.714 105.841L781.452 106.795C783.998 107.318 785.896 108.159 787.146 109.318C788.396 110.477 789.021 112 789.021 113.886C789.021 115.602 788.515 117.108 787.504 118.403C786.504 119.699 785.129 120.71 783.379 121.438C781.64 122.153 779.634 122.511 777.362 122.511C773.896 122.511 771.134 121.79 769.077 120.347C767.032 118.892 765.833 116.915 765.481 114.415L772.623 114.04C772.839 115.097 773.362 115.903 774.191 116.46C775.021 117.006 776.083 117.278 777.379 117.278C778.651 117.278 779.674 117.034 780.447 116.545C781.231 116.045 781.629 115.403 781.64 114.619C781.629 113.96 781.35 113.42 780.805 113C780.259 112.568 779.418 112.239 778.282 112.011L773.748 111.108C771.191 110.597 769.288 109.71 768.038 108.449C766.799 107.187 766.18 105.58 766.18 103.625C766.18 101.943 766.634 100.494 767.543 99.2784C768.464 98.0625 769.754 97.125 771.413 96.4659C773.083 95.8068 775.038 95.4773 777.276 95.4773C780.583 95.4773 783.185 96.1761 785.083 97.5739C786.992 98.9716 788.106 100.875 788.424 103.284ZM807.519 95.8182V101.273H791.752V95.8182H807.519ZM795.332 89.5455H802.593V113.955C802.593 114.625 802.695 115.148 802.9 115.523C803.104 115.886 803.388 116.142 803.752 116.29C804.127 116.437 804.559 116.511 805.048 116.511C805.388 116.511 805.729 116.483 806.07 116.426C806.411 116.358 806.673 116.307 806.854 116.273L807.996 121.676C807.633 121.79 807.121 121.92 806.462 122.068C805.803 122.227 805.002 122.324 804.059 122.358C802.309 122.426 800.775 122.193 799.457 121.659C798.15 121.125 797.133 120.295 796.406 119.17C795.678 118.045 795.32 116.625 795.332 114.909V89.5455ZM823.9 122.511C821.207 122.511 818.888 121.966 816.945 120.875C815.013 119.773 813.525 118.216 812.479 116.205C811.434 114.182 810.911 111.79 810.911 109.028C810.911 106.335 811.434 103.972 812.479 101.938C813.525 99.9034 814.996 98.3182 816.894 97.1818C818.803 96.0455 821.042 95.4773 823.61 95.4773C825.337 95.4773 826.945 95.7557 828.434 96.3125C829.934 96.858 831.241 97.6818 832.354 98.7841C833.479 99.8864 834.354 101.273 834.979 102.943C835.604 104.602 835.917 106.545 835.917 108.773V110.767H813.809V106.267H829.082C829.082 105.222 828.854 104.295 828.4 103.489C827.945 102.682 827.315 102.051 826.508 101.597C825.712 101.131 824.786 100.898 823.729 100.898C822.627 100.898 821.65 101.153 820.798 101.665C819.957 102.165 819.298 102.841 818.82 103.693C818.343 104.534 818.099 105.472 818.087 106.506V110.784C818.087 112.08 818.326 113.199 818.803 114.142C819.292 115.085 819.979 115.812 820.866 116.324C821.752 116.835 822.803 117.091 824.019 117.091C824.826 117.091 825.565 116.977 826.235 116.75C826.906 116.523 827.479 116.182 827.957 115.727C828.434 115.273 828.798 114.716 829.048 114.057L835.763 114.5C835.423 116.114 834.724 117.523 833.667 118.727C832.621 119.92 831.269 120.852 829.61 121.523C827.962 122.182 826.059 122.511 823.9 122.511ZM840.656 122V95.8182H847.576V100.438H847.883C848.428 98.9034 849.337 97.6932 850.61 96.8068C851.883 95.9205 853.406 95.4773 855.178 95.4773C856.974 95.4773 858.502 95.9261 859.763 96.8239C861.025 97.7102 861.866 98.9148 862.286 100.438H862.559C863.093 98.9375 864.059 97.7386 865.457 96.8409C866.866 95.9318 868.531 95.4773 870.451 95.4773C872.894 95.4773 874.877 96.2557 876.4 97.8125C877.934 99.358 878.701 101.551 878.701 104.392V122H871.457V105.824C871.457 104.369 871.07 103.278 870.298 102.551C869.525 101.824 868.559 101.46 867.4 101.46C866.082 101.46 865.053 101.881 864.315 102.722C863.576 103.551 863.207 104.648 863.207 106.011V122H856.167V105.67C856.167 104.386 855.798 103.364 855.059 102.602C854.332 101.841 853.371 101.46 852.178 101.46C851.371 101.46 850.644 101.665 849.996 102.074C849.36 102.472 848.854 103.034 848.479 103.761C848.104 104.477 847.917 105.318 847.917 106.284V122H840.656Z" fill="#4F4F4F"/>
</svg>
